{"glyphs":{"0":{"ha":1531,"x_min":38,"x_max":1493,"o":"m 1493 540 l 1493 499 q 1481 374 1493 435 q 1424 240 1468 314 q 1307 111 1379 165 q 1103 19 1235 57 q 796 -18 971 -18 l 735 -18 q 428 19 560 -18 q 225 110 297 57 q 108 239 153 164 q 51 374 64 314 q 38 499 38 435 l 38 540 q 51 665 38 604 q 108 799 64 725 q 225 925 153 872 q 428 1015 297 978 q 735 1051 560 1051 l 796 1051 q 1103 1015 971 1051 q 1307 925 1235 978 q 1424 799 1379 872 q 1481 665 1468 725 q 1493 540 1493 604 m 1154 511 l 1154 531 q 1137 623 1154 579 q 1079 708 1119 667 q 958 775 1039 750 q 765 800 878 800 q 601 783 672 800 q 489 739 531 765 q 421 676 447 713 q 385 604 394 639 q 376 531 376 569 l 376 514 q 394 420 376 465 q 451 331 411 375 q 572 261 492 288 q 765 235 653 235 q 958 260 878 235 q 1079 329 1039 286 q 1137 417 1119 372 q 1154 511 1154 461 z "},"1":{"ha":674,"x_min":28,"x_max":589,"o":"m 268 640 l 28 640 l 28 835 q 336 1033 256 849 l 589 1033 l 589 0 l 268 0 l 268 640 z "},"2":{"ha":1349,"x_min":40,"x_max":1301,"o":"m 1301 0 l 40 0 l 40 117 q 43 187 40 156 q 57 262 46 218 q 88 340 68 306 q 147 415 108 375 q 237 488 185 456 q 368 549 289 519 q 547 600 447 579 l 789 650 q 913 688 885 668 q 942 736 942 707 q 926 775 942 760 q 849 802 910 790 q 682 814 789 814 q 529 799 590 814 q 442 759 468 785 q 406 713 415 733 q 396 668 397 693 l 58 668 l 58 679 q 67 764 58 724 q 110 860 75 804 q 205 955 146 915 q 377 1023 264 994 q 643 1051 490 1051 l 699 1051 q 946 1033 840 1051 q 1115 987 1051 1015 q 1217 916 1178 958 q 1269 830 1256 874 q 1283 733 1283 786 l 1283 731 q 1268 623 1283 667 q 1211 539 1253 579 q 1090 470 1169 499 q 885 421 1010 442 l 601 374 q 329 244 329 324 l 983 244 l 983 378 l 1301 378 l 1301 0 z "},"3":{"ha":1350,"x_min":22,"x_max":1322,"o":"m 703 -18 l 638 -18 q 427 -2 522 -18 q 269 40 332 14 q 160 101 207 65 q 87 171 113 136 q 46 245 61 206 q 26 312 31 285 q 22 367 22 339 l 22 378 l 363 378 q 667 221 388 221 q 812 229 751 221 q 903 249 872 238 q 953 278 935 261 q 974 308 971 296 q 978 336 978 319 q 833 417 978 417 l 468 417 l 468 657 l 817 657 q 951 725 951 657 q 947 749 951 739 q 925 773 943 760 q 876 794 907 786 q 786 809 844 803 q 646 815 728 815 q 511 804 568 815 q 428 781 454 793 q 385 747 401 769 q 367 719 368 725 q 363 697 365 714 l 25 697 l 25 711 q 28 760 25 736 q 47 820 32 785 q 85 885 61 856 q 153 947 108 915 q 258 1001 199 979 q 410 1038 318 1024 q 615 1051 503 1051 l 674 1051 q 949 1034 832 1051 q 1131 990 1067 1017 q 1232 926 1194 964 q 1280 856 1269 888 q 1290 785 1290 824 l 1290 776 q 1239 657 1290 703 q 1125 597 1188 611 q 1191 570 1160 588 q 1253 524 1222 553 q 1303 448 1285 494 q 1322 344 1322 401 l 1322 335 q 703 -18 1322 -18 z "},"4":{"ha":1325,"x_min":18,"x_max":1304,"o":"m 18 410 l 746 1038 l 1094 1038 l 1094 454 l 1304 454 l 1304 214 l 1094 214 l 1094 0 l 775 0 l 775 214 l 18 214 l 18 410 m 775 454 l 775 779 l 396 454 l 775 454 z "},"5":{"ha":1300,"x_min":47,"x_max":1271,"o":"m 699 -18 l 633 -18 q 438 -5 526 -18 q 290 30 349 8 q 185 81 231 51 q 114 141 139 111 q 73 204 89 171 q 52 263 57 238 q 47 314 47 289 l 47 324 l 389 324 q 665 221 417 221 q 878 256 825 221 q 932 347 932 292 l 932 356 q 878 447 932 411 q 665 482 825 482 q 542 474 596 482 q 460 456 488 465 q 413 432 432 446 q 390 411 394 418 q 385 399 386 404 l 69 399 l 69 1033 l 1199 1033 l 1199 793 l 388 793 l 388 608 q 756 704 510 704 l 768 704 q 1019 678 917 704 q 1174 601 1121 651 q 1249 492 1228 550 q 1271 357 1271 433 l 1271 349 q 1257 245 1271 293 q 1205 147 1243 197 q 1105 62 1167 97 q 939 4 1043 26 q 699 -18 835 -18 z "},"6":{"ha":1378,"x_min":40,"x_max":1347,"o":"m 740 -21 l 679 -21 q 410 11 526 -21 q 224 93 293 43 q 113 214 156 143 q 55 353 69 285 q 40 499 40 421 l 40 532 q 57 678 40 608 q 118 817 74 747 q 231 938 163 888 q 410 1019 299 988 q 667 1051 522 1051 l 722 1051 q 1008 1021 889 1051 q 1189 940 1128 990 q 1276 838 1250 890 q 1303 728 1303 785 l 1303 722 l 969 722 q 931 765 951 751 q 694 813 860 813 q 546 794 610 813 q 449 749 482 775 q 395 686 415 722 q 369 624 375 650 q 364 571 364 597 l 364 565 q 482 626 425 608 q 793 665 601 665 l 811 665 q 1347 346 1347 665 l 1347 333 q 1335 238 1347 282 q 1283 144 1322 193 q 1179 60 1243 94 q 1003 2 1115 25 q 740 -21 890 -21 m 406 338 l 406 333 q 418 294 406 313 q 460 256 431 275 q 554 225 490 236 q 708 214 618 214 q 1008 329 1008 214 l 1008 335 q 998 374 1008 357 q 958 410 988 392 q 866 439 929 429 q 708 449 803 449 q 406 338 406 449 z "},"7":{"ha":1313,"x_min":49,"x_max":1283,"o":"m 49 1033 l 1283 1033 l 1283 815 q 1225 751 1271 801 q 1126 638 1179 700 q 1026 514 1074 575 q 888 265 918 371 q 858 13 858 160 l 858 0 l 488 0 l 488 131 q 543 348 488 253 q 757 593 599 443 q 951 785 935 763 q 960 800 958 793 l 376 800 l 376 588 l 49 588 l 49 1033 z "},"8":{"ha":1344,"x_min":28,"x_max":1315,"o":"m 1289 772 l 1289 758 q 1221 611 1289 668 q 1078 544 1153 554 q 1243 469 1171 529 q 1315 313 1315 408 l 1315 294 q 1305 217 1315 253 q 1257 135 1294 181 q 1156 56 1219 89 q 976 1 1093 24 q 703 -21 860 -21 l 642 -21 q 28 294 28 -21 l 28 313 q 101 465 28 404 q 267 544 174 525 q 119 613 185 558 q 53 758 53 668 l 53 772 q 56 818 53 797 q 74 869 60 839 q 111 922 88 899 q 179 971 135 946 q 284 1013 224 996 q 436 1041 344 1031 q 642 1051 528 1051 l 703 1051 q 974 1031 860 1051 q 1147 981 1088 1010 q 1240 911 1206 953 q 1281 839 1274 869 q 1289 772 1289 808 m 954 743 l 954 747 q 951 772 954 761 q 931 798 947 783 q 885 822 914 813 q 802 838 857 831 q 671 844 747 844 q 540 838 594 844 q 456 822 485 831 q 412 798 428 813 q 392 773 396 783 q 389 747 389 763 l 389 743 q 393 717 389 728 q 413 691 397 706 q 458 667 429 676 q 542 650 488 657 q 671 643 596 643 q 801 650 746 643 q 885 667 856 657 q 931 691 914 676 q 951 717 947 706 q 954 743 954 728 m 982 314 l 982 318 q 973 356 982 340 q 935 388 964 371 q 839 413 906 404 q 671 422 772 422 q 501 413 568 422 q 406 388 435 404 q 369 356 378 371 q 361 318 361 340 l 361 314 q 366 285 361 299 q 389 257 371 272 q 439 231 407 242 q 531 213 471 219 q 671 206 590 206 q 813 213 753 206 q 904 231 872 221 q 954 257 936 242 q 977 285 972 272 q 982 314 982 297 z "},"9":{"ha":1378,"x_min":31,"x_max":1339,"o":"m 972 697 l 972 701 q 669 815 972 815 q 371 701 371 815 l 371 697 q 669 581 371 581 q 972 697 972 581 m 719 -21 l 664 -21 q 427 0 532 -21 q 258 54 322 21 q 151 131 193 88 q 92 217 108 175 q 75 303 75 260 l 75 308 l 410 308 q 417 293 411 301 q 440 270 422 285 q 485 245 458 256 q 565 226 513 235 q 685 218 617 218 q 833 237 769 218 q 929 282 896 256 q 983 344 963 308 q 1008 407 1003 381 q 1014 460 1014 433 l 1014 464 q 603 364 883 364 l 585 364 q 317 390 429 364 q 144 464 204 417 q 57 565 83 511 q 31 685 31 619 l 31 697 q 41 794 31 750 q 89 888 51 838 q 190 972 126 938 q 366 1028 253 1006 q 633 1051 479 1051 l 694 1051 q 1339 532 1339 1051 l 1339 499 q 1324 351 1339 419 q 1265 212 1308 282 q 1155 92 1222 142 q 976 10 1088 42 q 719 -21 865 -21 z "},"\u0000":{"ha":0,"x_min":0,"x_max":0,"o":""},"\r":{"ha":428,"x_min":0,"x_max":0,"o":""}," ":{"ha":428,"x_min":0,"x_max":0,"o":""},"!":{"ha":444,"x_min":33,"x_max":411,"o":"m 33 1033 l 411 1033 l 315 314 l 129 314 l 33 1033 m 390 243 l 390 0 l 54 0 l 54 243 l 390 243 z "},"\"":{"ha":674,"x_min":49,"x_max":625,"o":"m 625 1033 l 625 690 l 372 690 l 372 1033 l 625 1033 m 301 1033 l 301 690 l 49 690 l 49 1033 l 301 1033 z "},"#":{"ha":1081,"x_min":4,"x_max":1076,"o":"m 613 453 l 660 626 l 465 626 l 418 453 l 613 453 m 488 0 l 569 299 l 375 299 l 293 0 l 94 0 l 176 299 l 4 299 l 46 453 l 218 453 l 267 626 l 93 626 l 136 781 l 308 781 l 378 1033 l 578 1033 l 508 781 l 703 781 l 772 1033 l 972 1033 l 903 781 l 1076 781 l 1033 626 l 860 626 l 811 453 l 988 453 l 944 299 l 769 299 l 686 0 l 488 0 z "},"$":{"ha":1317,"x_min":24,"x_max":1289,"o":"m 360 749 l 360 747 q 373 707 360 724 q 436 675 386 690 q 576 654 486 660 l 576 842 q 474 833 517 840 q 410 818 432 826 q 377 797 389 810 q 363 774 365 783 q 360 749 360 764 m 961 310 l 961 315 q 909 390 961 365 q 706 419 857 414 l 706 192 q 842 206 788 194 q 920 235 896 217 q 953 271 944 254 q 961 310 961 288 m 706 -104 l 576 -104 l 576 -18 q 24 351 24 -6 l 24 367 l 350 367 q 400 257 350 307 q 576 194 450 207 l 576 424 l 522 425 q 38 726 38 439 l 38 739 q 50 831 38 789 q 99 913 63 872 q 193 983 135 954 q 349 1028 251 1011 q 576 1046 447 1046 l 576 1129 l 706 1129 l 706 1046 q 932 1024 833 1044 q 1090 974 1031 1004 q 1188 901 1150 943 q 1240 816 1226 858 q 1254 725 1254 774 l 1254 711 l 929 711 q 706 839 918 826 l 706 649 l 767 647 q 1168 569 1047 639 q 1289 347 1289 500 l 1289 328 q 1276 225 1289 271 q 1226 132 1264 179 q 1125 53 1188 85 q 956 2 1063 22 q 706 -18 849 -18 l 706 -104 z "},"%":{"ha":1958,"x_min":39,"x_max":1919,"o":"m 464 446 l 431 446 q 261 467 335 446 q 147 518 188 488 q 80 590 106 549 q 47 667 54 632 q 39 736 39 701 l 39 760 q 47 830 39 796 q 80 905 54 864 q 147 976 106 946 q 261 1026 188 1006 q 431 1046 335 1046 l 464 1046 q 633 1026 560 1046 q 747 976 706 1006 q 813 905 788 946 q 847 830 839 864 q 854 760 854 796 l 854 736 q 840 647 854 690 q 787 554 825 603 q 666 476 749 506 q 464 446 583 446 m 1397 1033 l 1672 1033 l 558 0 l 285 0 l 1397 1033 m 446 617 q 586 653 542 617 q 631 742 631 690 l 631 753 q 446 875 631 875 q 264 753 264 875 l 264 744 q 308 653 264 690 q 446 617 351 617 m 1529 -11 l 1494 -11 q 1326 10 1399 -11 q 1212 62 1253 31 q 1145 135 1171 93 q 1111 211 1119 176 q 1103 281 1103 246 l 1103 304 q 1111 374 1103 339 q 1145 449 1119 408 q 1212 519 1171 489 q 1326 570 1253 550 q 1494 590 1399 590 l 1529 590 q 1730 561 1647 590 q 1851 485 1813 532 q 1904 394 1889 438 q 1919 304 1919 350 l 1919 281 q 1912 211 1919 246 q 1878 135 1904 176 q 1813 62 1853 93 q 1699 10 1772 31 q 1529 -11 1625 -11 m 1372 198 q 1393 180 1372 198 q 1511 161 1415 161 q 1651 198 1607 161 q 1696 286 1696 235 l 1696 297 q 1652 385 1696 350 q 1511 419 1608 419 q 1371 385 1414 419 q 1328 297 1328 350 l 1328 289 q 1372 198 1328 235 z "},"&":{"ha":1522,"x_min":22,"x_max":1532,"o":"m 514 801 q 548 733 514 765 q 671 640 582 700 q 860 779 860 697 q 819 855 860 829 q 674 881 779 881 q 549 860 583 881 q 514 801 514 839 m 653 183 q 881 208 786 183 l 464 479 q 353 347 353 438 l 353 343 q 426 230 353 276 q 653 183 500 183 m 1532 211 l 1446 -15 q 1103 67 1251 -15 q 663 -18 919 -18 q 22 294 22 -18 l 22 310 q 342 560 22 511 q 204 792 204 663 l 204 803 q 213 875 204 843 q 250 942 222 907 q 324 1001 278 978 q 452 1040 371 1025 q 642 1056 533 1056 l 715 1056 q 1143 810 1143 1056 l 1143 803 q 806 549 1143 611 l 1088 358 q 1157 626 1157 468 l 1461 626 q 1317 235 1453 399 q 1532 211 1401 211 z "},"'":{"ha":350,"x_min":49,"x_max":301,"o":"m 301 1033 l 301 690 l 49 690 l 49 1033 l 301 1033 z "},"(":{"ha":467,"x_min":49,"x_max":471,"o":"m 49 471 q 301 1122 49 831 l 471 1122 q 346 823 393 993 q 299 471 299 653 q 346 119 299 290 q 471 -182 393 -51 l 301 -182 q 49 471 49 101 z "},")":{"ha":467,"x_min":-4,"x_max":418,"o":"m 165 -182 l -4 -182 q 121 119 74 -51 q 168 471 168 290 q 121 823 168 653 q -4 1122 74 993 l 165 1122 q 418 471 418 821 q 165 -182 418 101 z "},"*":{"ha":626,"x_min":29,"x_max":597,"o":"m 376 874 l 513 988 l 597 832 l 417 781 l 597 728 l 513 574 l 376 686 l 417 525 l 210 525 l 251 686 l 117 574 l 29 728 l 207 781 l 29 832 l 117 988 l 251 874 l 210 1033 l 417 1033 l 376 874 z "},"+":{"ha":865,"x_min":53,"x_max":813,"o":"m 813 332 l 549 332 l 549 88 l 315 88 l 315 332 l 53 332 l 53 524 l 315 524 l 315 768 l 549 768 l 549 524 l 813 524 l 813 332 z "},",":{"ha":432,"x_min":49,"x_max":383,"o":"m 318 -136 l 142 -136 q 193 0 185 -53 l 49 0 l 49 243 l 383 243 l 383 42 q 363 -48 383 3 q 318 -136 343 -99 z "},"-":{"ha":551,"x_min":53,"x_max":499,"o":"m 53 532 l 499 532 l 499 293 l 53 293 l 53 532 z "},".":{"ha":432,"x_min":49,"x_max":383,"o":"m 383 243 l 383 0 l 49 0 l 49 243 l 383 243 z "},"/":{"ha":653,"x_min":-51,"x_max":667,"o":"m 667 1122 l 183 -182 l -51 -182 l 431 1122 l 667 1122 z "},":":{"ha":435,"x_min":50,"x_max":385,"o":"m 385 672 l 385 429 l 50 429 l 50 672 l 385 672 m 385 243 l 385 0 l 50 0 l 50 243 l 385 243 z "},";":{"ha":435,"x_min":50,"x_max":385,"o":"m 385 672 l 385 429 l 50 429 l 50 672 l 385 672 m 319 -136 l 143 -136 q 194 0 186 -53 l 50 0 l 50 243 l 385 243 l 385 42 q 365 -48 385 3 q 319 -136 344 -99 z "},"<":{"ha":757,"x_min":53,"x_max":700,"o":"m 700 94 l 53 310 l 53 531 l 700 749 l 700 538 l 261 419 l 700 304 l 700 94 z "},"=":{"ha":822,"x_min":60,"x_max":763,"o":"m 60 656 l 763 656 l 763 478 l 60 478 l 60 656 m 60 381 l 763 381 l 763 204 l 60 204 l 60 381 z "},">":{"ha":757,"x_min":57,"x_max":704,"o":"m 57 94 l 57 304 l 496 419 l 57 538 l 57 749 l 704 531 l 704 310 l 57 94 z "},"?":{"ha":1182,"x_min":28,"x_max":1154,"o":"m 681 335 l 364 335 l 364 439 q 408 561 364 518 q 588 639 451 604 l 704 668 q 808 708 782 688 q 833 756 833 729 q 824 791 833 778 q 759 816 814 804 q 600 828 704 828 q 478 817 529 828 q 402 795 426 807 q 364 760 378 783 q 349 728 350 738 q 344 699 347 719 l 28 699 l 28 715 q 30 774 28 750 q 43 836 32 799 q 74 900 54 874 q 134 956 94 926 q 228 1003 174 985 q 369 1034 283 1022 q 561 1046 454 1046 l 639 1046 q 860 1028 765 1046 q 1010 984 956 1011 q 1099 917 1065 957 q 1143 840 1132 878 q 1154 758 1154 803 l 1154 749 q 1092 577 1154 646 q 888 472 1029 508 l 772 442 q 696 407 711 426 q 681 344 681 388 l 681 335 m 694 243 l 694 0 l 360 0 l 360 243 l 694 243 z "},"@":{"ha":1846,"x_min":38,"x_max":1808,"o":"m 938 -224 q 560 -187 724 -224 q 300 -94 397 -151 q 142 49 203 -36 q 59 218 81 133 q 38 404 38 303 l 38 421 q 63 615 38 528 q 149 781 88 701 q 308 915 211 861 q 558 1000 406 968 q 911 1032 711 1032 l 929 1032 q 1185 1019 1068 1032 q 1385 988 1301 1007 q 1537 936 1469 968 q 1648 874 1604 904 q 1723 800 1692 843 q 1770 723 1754 757 q 1795 642 1786 689 q 1806 565 1804 594 q 1808 493 1808 535 l 1808 478 q 1795 359 1808 417 q 1749 244 1782 301 q 1667 146 1717 188 q 1535 78 1617 104 q 1351 53 1454 53 l 1328 53 q 1092 160 1144 53 q 789 53 985 53 l 768 53 q 592 85 667 53 q 479 171 518 118 q 426 284 440 224 q 419 408 411 344 l 429 478 q 526 672 442 592 q 764 753 610 753 l 785 753 q 1122 640 996 753 l 1135 736 l 1440 736 l 1378 242 q 1387 203 1375 218 q 1426 188 1399 188 q 1560 267 1507 188 q 1613 485 1613 347 l 1613 489 q 1610 570 1613 540 q 1594 647 1608 600 q 1556 724 1581 694 q 1481 787 1531 753 q 1359 840 1431 821 q 1178 873 1288 860 q 929 886 1069 886 l 911 886 q 631 863 750 886 q 440 799 513 839 q 322 699 367 760 q 262 571 278 638 q 246 418 246 504 l 246 401 q 275 222 246 301 q 376 73 304 143 q 590 -36 449 3 q 938 -75 732 -75 q 1615 38 1390 -75 l 1668 -112 q 938 -224 1450 -224 m 1094 392 l 1097 418 q 1053 524 1104 483 q 903 565 1003 565 q 725 431 738 565 l 722 406 q 753 293 713 343 q 888 243 793 243 q 1094 392 1074 243 z "},"A":{"ha":1450,"x_min":-22,"x_max":1472,"o":"m 907 422 l 707 810 l 515 422 l 907 422 m 1124 0 l 1026 189 l 400 189 l 307 0 l -22 0 l 500 1033 l 919 1033 l 1472 0 l 1124 0 z "},"B":{"ha":1424,"x_min":79,"x_max":1400,"o":"m 79 0 l 79 1033 l 964 1033 q 1256 967 1169 1033 q 1342 797 1342 901 l 1342 778 q 1324 692 1342 731 q 1278 631 1307 654 q 1225 596 1249 608 q 1178 576 1201 583 q 1243 553 1211 568 q 1314 509 1275 538 q 1376 431 1353 481 q 1400 317 1400 381 l 1400 297 q 972 0 1400 0 l 79 0 m 908 815 l 403 815 l 403 647 l 908 647 q 1021 731 1021 647 l 1021 733 q 908 815 1021 815 m 936 428 l 403 428 l 403 225 l 936 225 q 1036 256 1008 225 q 1064 326 1064 286 l 1064 332 q 936 428 1064 428 z "},"C":{"ha":1513,"x_min":38,"x_max":1479,"o":"m 786 -18 l 729 -18 q 503 1 606 -18 q 330 52 400 21 q 206 128 260 83 q 121 219 151 174 q 70 318 90 265 q 44 414 50 371 q 38 500 38 457 l 38 540 q 50 667 38 607 q 106 800 63 726 q 221 926 150 874 q 423 1015 292 979 q 729 1051 554 1051 l 786 1051 q 1088 1020 957 1051 q 1290 944 1218 989 q 1406 840 1361 899 q 1465 734 1451 781 q 1478 644 1478 688 l 1478 629 l 1135 629 q 1124 659 1131 646 q 1092 701 1118 672 q 1030 750 1067 731 q 922 785 993 769 q 757 801 850 801 q 567 778 646 801 q 449 715 489 756 q 393 631 410 675 q 376 533 376 586 l 376 517 q 395 420 376 467 q 454 330 414 374 q 574 260 494 286 q 760 233 653 233 q 1135 413 1078 233 q 1136 417 1136 415 l 1479 417 l 1479 401 q 1465 307 1479 356 q 1404 198 1450 258 q 1286 92 1358 138 q 1084 14 1214 46 q 786 -18 954 -18 z "},"D":{"ha":1525,"x_min":79,"x_max":1493,"o":"m 79 0 l 79 1033 l 764 1033 q 1025 1014 908 1033 q 1219 958 1142 994 q 1353 876 1297 921 q 1438 774 1408 831 q 1480 662 1467 717 q 1493 544 1493 607 l 1493 503 q 1476 365 1493 429 q 1410 231 1460 300 q 1283 113 1361 161 q 1072 32 1206 64 q 765 0 939 0 l 79 0 m 403 789 l 403 249 l 739 249 q 1154 515 1154 249 l 1154 524 q 739 789 1154 789 l 403 789 z "},"E":{"ha":1238,"x_min":79,"x_max":1182,"o":"m 79 1033 l 1168 1033 l 1168 799 l 399 799 l 399 646 l 1150 646 l 1150 410 l 399 410 l 399 240 l 1182 240 l 1182 0 l 79 0 l 79 1033 z "},"F":{"ha":1204,"x_min":79,"x_max":1147,"o":"m 79 1033 l 1147 1033 l 1147 799 l 401 799 l 401 646 l 1129 646 l 1129 410 l 401 410 l 401 0 l 79 0 l 79 1033 z "},"G":{"ha":1557,"x_min":38,"x_max":1489,"o":"m 756 -18 l 726 -18 q 440 17 565 -18 q 241 105 315 51 q 119 230 167 158 q 55 367 72 301 q 38 501 38 433 l 38 540 q 52 672 38 608 q 113 806 67 735 q 233 930 160 878 q 437 1017 307 982 q 738 1051 567 1051 l 797 1051 q 1089 1024 963 1051 q 1287 955 1215 996 q 1404 858 1358 914 q 1465 755 1450 801 q 1482 660 1481 708 l 1482 658 l 1138 658 q 769 806 1086 806 q 376 526 376 806 l 376 511 q 473 315 376 397 q 767 233 569 233 q 925 246 853 233 q 1040 276 997 258 q 1113 316 1083 294 q 1155 354 1143 338 q 1167 381 1167 371 l 1167 383 l 761 383 l 761 579 l 1489 579 l 1489 0 l 1294 0 q 1253 161 1285 83 q 756 -18 1097 -18 z "},"H":{"ha":1500,"x_min":79,"x_max":1421,"o":"m 79 0 l 79 1033 l 403 1033 l 403 657 l 1097 657 l 1097 1033 l 1421 1033 l 1421 0 l 1097 0 l 1097 407 l 403 407 l 403 0 l 79 0 z "},"I":{"ha":482,"x_min":79,"x_max":403,"o":"m 403 1033 l 403 0 l 79 0 l 79 1033 l 403 1033 z "},"J":{"ha":1244,"x_min":10,"x_max":1178,"o":"m 636 -15 l 558 -15 q 337 13 435 -15 q 178 85 239 40 q 79 190 118 131 q 25 310 40 250 q 10 432 10 369 l 10 440 l 338 440 q 343 401 339 419 q 363 351 347 383 q 403 297 379 319 q 476 258 428 275 q 588 242 524 242 l 604 242 q 791 309 729 242 q 853 497 853 376 l 853 1033 l 1178 1033 l 1178 489 q 1165 354 1178 419 q 1114 219 1151 289 q 1018 100 1076 150 q 861 17 960 50 q 636 -15 763 -15 z "},"K":{"ha":1344,"x_min":79,"x_max":1371,"o":"m 403 0 l 79 0 l 79 1033 l 403 1033 l 403 603 l 932 1033 l 1343 1033 l 749 561 l 1371 0 l 949 0 l 403 488 l 403 0 z "},"L":{"ha":1161,"x_min":79,"x_max":1121,"o":"m 79 1033 l 403 1033 l 403 257 l 1121 257 l 1121 0 l 79 0 l 79 1033 z "},"M":{"ha":1776,"x_min":79,"x_max":1697,"o":"m 79 0 l 79 1033 l 539 1033 l 896 390 l 1254 1033 l 1697 1033 l 1697 0 l 1378 0 l 1378 715 l 971 0 l 797 0 l 390 715 l 390 0 l 79 0 z "},"N":{"ha":1499,"x_min":79,"x_max":1419,"o":"m 79 1033 l 440 1033 l 1100 383 l 1100 1033 l 1419 1033 l 1419 0 l 1100 0 l 399 685 l 399 0 l 79 0 l 79 1033 z "},"O":{"ha":1589,"x_min":38,"x_max":1551,"o":"m 765 1051 l 825 1051 q 1069 1033 960 1051 q 1253 983 1179 1014 q 1383 908 1328 953 q 1470 819 1439 864 q 1521 722 1501 775 q 1546 628 1540 669 q 1551 540 1551 586 l 1551 499 q 1546 413 1551 454 q 1521 317 1540 371 q 1471 219 1501 264 q 1384 128 1440 174 q 1254 52 1328 83 q 1070 1 1181 21 q 825 -18 960 -18 l 765 -18 q 519 1 631 -18 q 335 52 408 21 q 205 128 261 83 q 117 219 149 174 q 67 317 86 264 q 43 413 49 371 q 38 499 38 454 l 38 540 q 43 627 38 586 q 67 722 49 668 q 117 819 86 775 q 204 908 149 864 q 334 983 260 953 q 519 1033 408 1014 q 765 1051 631 1051 m 1213 511 l 1213 531 q 1203 604 1213 569 q 1165 676 1193 639 q 1093 740 1138 714 q 972 784 1049 767 q 794 801 896 801 q 376 531 376 801 l 376 514 q 394 419 376 464 q 453 331 411 375 q 582 260 494 286 q 794 233 669 233 q 1005 259 918 233 q 1135 328 1092 285 q 1195 417 1178 372 q 1213 511 1213 461 z "},"P":{"ha":1364,"x_min":79,"x_max":1336,"o":"m 854 344 l 403 344 l 403 0 l 79 0 l 79 1033 l 854 1033 q 1336 697 1336 1033 l 1336 683 q 854 344 1336 344 m 403 799 l 403 576 l 849 576 q 999 685 999 576 l 999 689 q 849 799 999 799 l 403 799 z "},"Q":{"ha":1588,"x_min":38,"x_max":1551,"o":"m 671 -215 l 671 -15 q 391 33 511 -7 q 206 127 271 74 q 100 252 140 181 q 49 381 60 324 q 38 499 38 438 l 38 540 q 43 628 38 586 q 68 723 49 669 q 119 821 88 776 q 206 909 150 865 q 335 983 261 953 q 520 1033 410 1014 q 765 1051 631 1051 l 825 1051 q 1147 1015 1010 1051 q 1360 926 1285 979 q 1481 800 1435 874 q 1539 667 1526 726 q 1551 540 1551 607 l 1551 499 q 1541 384 1551 439 q 1494 260 1531 329 q 1399 140 1458 192 q 1232 45 1340 88 q 979 -11 1124 3 l 1140 -215 l 671 -215 m 1213 511 l 1213 531 q 794 801 1213 801 q 376 531 376 801 l 376 514 q 386 438 376 474 q 424 363 396 401 q 496 297 451 324 q 617 251 540 269 q 794 233 693 233 q 1005 258 918 233 q 1135 327 1092 283 q 1195 415 1178 371 q 1213 511 1213 460 z "},"R":{"ha":1414,"x_min":79,"x_max":1385,"o":"m 403 799 l 403 596 l 893 596 q 992 624 960 596 q 1024 697 1024 651 l 1024 699 q 992 771 1024 743 q 893 799 960 799 l 403 799 m 403 367 l 403 0 l 79 0 l 79 1033 l 913 1033 q 1361 765 1361 1033 l 1361 749 q 1169 522 1361 585 q 1311 438 1257 497 q 1365 285 1365 379 l 1365 133 q 1385 7 1365 40 l 1385 0 l 1056 0 q 1040 65 1040 19 l 1040 185 q 992 324 1040 281 q 825 367 943 367 l 403 367 z "},"S":{"ha":1363,"x_min":26,"x_max":1332,"o":"m 726 -18 l 631 -18 q 361 8 476 -18 q 183 72 246 35 q 84 163 121 110 q 37 260 47 217 q 26 351 26 303 l 26 367 l 364 367 q 671 203 375 203 l 690 203 q 851 212 788 203 q 944 238 915 221 q 983 272 974 254 q 993 313 993 289 q 976 365 993 346 q 899 399 960 385 q 722 417 838 414 l 544 421 q 40 724 40 435 l 40 736 q 53 828 40 786 q 103 913 65 871 q 201 985 140 956 q 364 1033 261 1014 q 603 1051 467 1051 l 699 1051 q 949 1032 840 1051 q 1122 982 1057 1013 q 1227 907 1186 951 q 1283 819 1268 863 q 1299 725 1299 775 l 1299 711 l 963 711 q 955 740 960 728 q 932 771 950 751 q 885 803 914 790 q 798 825 856 815 q 664 835 740 835 l 642 835 q 463 820 525 835 q 387 790 400 806 q 374 746 374 774 q 388 703 374 719 q 458 672 403 686 q 613 657 513 658 l 786 654 q 1203 576 1075 649 q 1332 347 1332 503 l 1332 328 q 1319 226 1332 271 q 1268 133 1307 181 q 1165 54 1229 86 q 988 2 1100 22 q 726 -18 876 -18 z "},"T":{"ha":1294,"x_min":39,"x_max":1256,"o":"m 483 0 l 483 789 l 39 789 l 39 1033 l 1256 1033 l 1256 789 l 810 789 l 810 0 l 483 0 z "},"U":{"ha":1463,"x_min":67,"x_max":1396,"o":"m 761 -15 l 711 -15 q 501 5 596 -15 q 340 58 406 25 q 225 139 275 92 q 146 235 175 186 q 98 339 117 283 q 73 440 79 394 q 67 532 67 486 l 67 1033 l 392 1033 l 392 551 q 406 448 392 496 q 456 353 421 400 q 562 280 490 307 q 733 253 633 253 q 902 280 832 253 q 1008 353 972 307 q 1058 448 1043 400 q 1072 551 1072 496 l 1072 1033 l 1396 1033 l 1396 532 q 1381 400 1396 467 q 1324 256 1367 333 q 1214 121 1281 179 q 1030 24 1147 63 q 761 -15 913 -15 z "},"V":{"ha":1407,"x_min":-17,"x_max":1424,"o":"m 924 0 l 521 0 l -17 1033 l 350 1033 l 731 274 l 1088 1033 l 1424 1033 l 924 0 z "},"W":{"ha":1976,"x_min":-17,"x_max":1993,"o":"m 765 0 l 408 0 l -17 1033 l 336 1033 l 603 322 l 833 1033 l 1178 1033 l 1414 343 l 1675 1033 l 1993 1033 l 1575 0 l 1249 0 l 1000 692 l 765 0 z "},"X":{"ha":1408,"x_min":-14,"x_max":1422,"o":"m 385 0 l -14 0 l 500 522 l -3 1033 l 431 1033 l 722 731 l 1014 1033 l 1411 1033 l 915 529 l 1422 0 l 1015 0 l 699 321 l 385 0 z "},"Y":{"ha":1353,"x_min":-31,"x_max":1383,"o":"m 522 0 l 522 400 l -31 1033 l 371 1033 l 692 653 l 1018 1033 l 1383 1033 l 846 400 l 846 0 l 522 0 z "},"Z":{"ha":1268,"x_min":47,"x_max":1221,"o":"m 58 1033 l 1211 1033 l 1211 844 l 503 244 l 1221 244 l 1221 0 l 47 0 l 47 190 l 738 794 l 58 794 l 58 1033 z "},"[":{"ha":486,"x_min":79,"x_max":467,"o":"m 79 -182 l 79 1122 l 467 1122 l 467 969 l 318 969 l 318 -28 l 467 -28 l 467 -182 l 79 -182 z "},"\\":{"ha":653,"x_min":-14,"x_max":704,"o":"m 471 -182 l -14 1122 l 224 1122 l 704 -182 l 471 -182 z "},"]":{"ha":486,"x_min":19,"x_max":407,"o":"m 19 -182 l 19 -28 l 168 -28 l 168 969 l 19 969 l 19 1122 l 407 1122 l 407 -182 l 19 -182 z "},"^":{"ha":975,"x_min":4,"x_max":971,"o":"m 690 594 l 489 857 l 288 594 l 4 594 l 338 1033 l 638 1033 l 971 594 l 690 594 z "},"_":{"ha":1140,"x_min":4,"x_max":1136,"o":"m 4 -210 l 4 -28 l 1136 -28 l 1136 -210 l 4 -210 z "},"`":{"ha":981,"x_min":267,"x_max":714,"o":"m 714 819 l 415 819 l 267 1033 l 589 1033 l 714 819 z "},"a":{"ha":1111,"x_min":22,"x_max":1103,"o":"m 725 332 l 725 356 l 429 310 q 342 285 367 300 q 317 240 317 271 l 317 239 q 349 179 317 204 q 453 154 381 154 q 649 208 572 154 q 725 332 725 263 m 733 103 q 615 23 699 60 q 388 -14 532 -14 l 369 -14 q 108 56 193 -14 q 22 231 22 125 l 22 240 q 95 396 22 343 q 336 464 168 449 l 678 496 q 725 535 725 501 q 716 564 725 553 q 661 585 707 575 q 531 596 615 596 l 524 596 q 433 589 471 596 q 376 574 394 582 q 345 552 357 567 q 331 531 333 538 q 328 513 329 525 l 40 513 l 40 515 q 46 580 40 551 q 78 646 51 608 q 149 708 104 683 q 280 751 193 733 q 486 768 367 768 l 563 768 q 776 753 688 768 q 913 715 865 738 q 986 658 960 693 q 1018 594 1013 622 q 1024 526 1024 567 l 1024 240 q 1063 203 1024 203 l 1103 203 l 1103 0 l 851 0 q 733 103 750 0 z "},"b":{"ha":1267,"x_min":65,"x_max":1231,"o":"m 65 1033 l 375 1033 l 375 643 q 749 765 529 765 l 774 765 q 1122 662 1013 765 q 1231 390 1231 558 l 1231 364 q 1203 219 1231 286 q 1122 98 1176 151 q 976 13 1068 44 q 764 -18 885 -18 l 740 -18 q 506 24 601 -18 q 371 106 410 67 q 351 0 360 74 l 65 0 l 65 1033 m 375 379 l 375 374 q 446 238 375 297 q 644 179 517 179 l 653 179 q 852 237 790 179 q 914 374 914 294 l 914 379 q 853 517 914 463 q 653 572 792 572 l 644 572 q 444 515 514 572 q 375 379 375 458 z "},"c":{"ha":1181,"x_min":31,"x_max":1154,"o":"m 628 -21 l 551 -21 q 334 3 429 -21 q 183 66 239 28 q 92 157 128 104 q 43 260 56 210 q 31 364 31 310 l 31 392 q 43 495 31 446 q 91 596 56 544 q 183 684 126 647 q 333 744 239 721 q 550 768 428 768 l 629 768 q 863 743 763 768 q 1016 683 963 718 q 1103 599 1069 647 q 1145 515 1136 551 q 1154 442 1154 478 l 1154 438 l 836 438 q 589 572 804 572 l 585 572 q 403 520 460 572 q 347 388 347 468 l 347 378 q 404 235 347 293 q 585 178 461 178 l 589 178 q 836 315 803 178 l 1154 315 l 1154 313 q 1146 237 1154 274 q 1106 151 1138 200 q 1020 66 1074 101 q 865 5 967 31 q 628 -21 764 -21 z "},"d":{"ha":1263,"x_min":31,"x_max":1197,"o":"m 886 372 l 886 378 q 810 513 886 456 q 603 569 733 569 l 596 569 q 404 515 461 569 q 347 378 347 461 l 347 372 q 410 237 347 294 q 599 179 472 179 l 606 179 q 811 237 736 179 q 886 372 886 294 m 886 1033 l 1197 1033 l 1197 0 l 889 0 l 889 114 q 854 80 878 99 q 788 38 831 61 q 674 -2 744 14 q 519 -18 603 -18 l 501 -18 q 148 90 265 -18 q 31 367 31 197 l 31 393 q 142 661 31 557 q 489 765 253 765 l 511 765 q 886 647 751 765 l 886 1033 z "},"e":{"ha":1182,"x_min":31,"x_max":1153,"o":"m 590 594 l 589 594 q 340 468 378 594 l 840 468 q 590 594 807 594 m 1149 264 l 1149 263 q 1139 194 1149 228 q 1096 119 1129 160 q 1010 49 1063 79 q 860 -1 957 19 q 636 -21 764 -21 l 557 -21 q 307 10 413 -21 q 143 97 201 42 q 58 218 85 153 q 31 361 31 283 l 31 392 q 56 532 31 468 q 137 651 81 596 q 298 737 193 706 q 549 768 403 768 l 633 768 q 1153 365 1153 768 l 1153 314 l 335 314 q 599 168 365 168 l 600 168 q 703 176 658 168 q 774 197 749 185 q 815 223 799 208 q 836 247 831 238 q 843 264 842 256 l 1149 264 z "},"f":{"ha":678,"x_min":19,"x_max":647,"o":"m 647 1033 l 647 850 l 526 850 q 480 836 492 850 q 468 789 468 822 l 468 747 l 647 747 l 647 542 l 468 542 l 468 0 l 163 0 l 163 542 l 19 542 l 19 747 l 163 747 l 163 836 q 422 1033 163 1033 l 647 1033 z "},"g":{"ha":1274,"x_min":31,"x_max":1208,"o":"m 610 571 l 601 571 q 405 524 464 571 q 346 404 346 476 l 346 397 q 408 274 346 325 q 601 224 469 224 l 610 224 q 819 274 747 224 q 892 396 892 325 l 892 401 q 819 522 892 474 q 610 571 747 571 m 683 -271 l 585 -271 q 352 -248 451 -271 q 202 -194 253 -225 q 121 -123 151 -164 q 83 -56 90 -82 q 76 -4 76 -29 l 76 0 l 389 0 q 628 -69 406 -69 l 632 -69 q 899 146 899 -69 q 535 33 772 33 l 518 33 q 151 133 271 33 q 31 390 31 233 l 31 418 q 139 667 31 568 q 479 765 247 765 l 508 765 q 897 647 771 765 l 897 747 l 1208 747 l 1208 136 q 1199 42 1208 89 q 1155 -65 1189 -6 q 1067 -167 1121 -124 q 913 -241 1013 -211 q 683 -271 814 -271 z "},"h":{"ha":1179,"x_min":65,"x_max":1117,"o":"m 65 0 l 65 1033 l 375 1033 l 375 622 q 743 764 517 764 l 753 764 q 1025 678 933 764 q 1117 472 1117 593 l 1117 0 l 804 0 l 804 369 q 754 507 804 458 q 604 556 704 556 q 438 500 500 556 q 375 353 375 444 l 375 0 l 65 0 z "},"i":{"ha":440,"x_min":65,"x_max":375,"o":"m 375 1033 l 375 819 l 65 819 l 65 1033 l 375 1033 m 375 747 l 375 0 l 65 0 l 65 747 l 375 747 z "},"j":{"ha":440,"x_min":-36,"x_max":375,"o":"m 375 1033 l 375 819 l 65 819 l 65 1033 l 375 1033 m -36 -43 l 21 -43 q 56 -33 46 -43 q 65 10 65 -22 l 65 747 l 375 747 l 375 -68 q 336 -214 375 -167 q 233 -261 297 -261 l -36 -261 l -36 -43 z "},"k":{"ha":1043,"x_min":65,"x_max":1064,"o":"m 375 0 l 65 0 l 65 1033 l 375 1033 l 375 449 l 678 747 l 1021 747 l 668 410 l 1064 0 l 700 0 l 375 343 l 375 0 z "},"l":{"ha":440,"x_min":65,"x_max":375,"o":"m 375 1033 l 375 0 l 65 0 l 65 1033 l 375 1033 z "},"m":{"ha":1831,"x_min":65,"x_max":1768,"o":"m 375 0 l 65 0 l 65 747 l 372 747 l 372 618 q 728 764 518 764 l 738 764 q 1036 615 954 764 q 1413 764 1185 764 l 1424 764 q 1682 678 1596 764 q 1768 472 1768 592 l 1768 0 l 1456 0 l 1456 369 q 1286 556 1456 556 q 1130 499 1188 556 q 1072 353 1072 442 l 1072 0 l 760 0 l 760 369 q 589 556 760 556 q 433 499 490 556 q 375 353 375 442 l 375 0 z "},"n":{"ha":1179,"x_min":65,"x_max":1117,"o":"m 65 0 l 65 747 l 372 747 l 372 619 q 743 764 517 764 l 753 764 q 1026 678 935 764 q 1117 472 1117 593 l 1117 0 l 804 0 l 804 369 q 754 507 804 458 q 604 556 704 556 q 438 500 500 556 q 375 353 375 444 l 375 0 l 65 0 z "},"o":{"ha":1231,"x_min":31,"x_max":1200,"o":"m 665 -21 l 568 -21 q 347 3 443 -21 q 192 65 250 28 q 96 156 133 103 q 44 259 58 208 q 31 365 31 310 l 31 390 q 44 496 31 446 q 95 597 58 546 q 190 685 132 649 q 345 745 249 722 q 567 768 442 768 l 665 768 q 1200 390 1200 768 l 1200 365 q 665 -21 1200 -21 m 410 238 q 441 209 410 238 q 617 181 472 181 q 824 238 761 181 q 886 374 886 294 l 886 381 q 824 515 886 461 q 618 569 761 569 l 617 569 q 409 516 471 569 q 347 381 347 463 l 347 374 q 410 238 347 294 z "},"p":{"ha":1261,"x_min":65,"x_max":1231,"o":"m 375 379 l 375 374 q 447 238 375 296 q 651 179 519 179 l 658 179 q 854 236 794 179 q 914 374 914 293 l 914 379 q 855 517 914 463 q 658 572 796 572 l 651 572 q 445 515 515 572 q 375 379 375 458 m 65 747 l 375 747 l 375 640 q 754 765 518 765 l 779 765 q 992 736 903 765 q 1133 654 1082 707 q 1207 536 1183 601 q 1231 390 1231 471 l 1231 364 q 1206 221 1231 286 q 1130 100 1182 156 q 986 13 1078 44 q 769 -18 894 -18 l 747 -18 q 506 25 604 -18 q 375 106 408 68 l 375 -261 l 65 -261 l 65 747 z "},"q":{"ha":1261,"x_min":31,"x_max":1196,"o":"m 915 747 l 1196 747 l 1196 -261 l 886 -261 l 886 103 q 831 55 864 78 q 713 7 797 32 q 521 -18 628 -18 l 510 -18 q 147 89 264 -18 q 31 367 31 196 l 31 393 q 143 661 31 557 q 493 765 256 765 l 513 765 q 889 646 742 765 q 915 747 907 679 m 886 374 l 886 379 q 810 513 886 457 q 603 569 735 569 l 596 569 q 404 515 461 569 q 347 378 347 461 l 347 372 q 408 235 347 293 q 599 178 468 178 l 606 178 q 811 237 736 178 q 886 374 886 296 z "},"r":{"ha":1021,"x_min":65,"x_max":994,"o":"m 375 386 l 375 0 l 65 0 l 65 747 l 372 747 l 372 615 q 421 674 392 644 q 520 733 450 703 q 675 764 590 764 l 690 764 q 920 674 846 764 q 994 431 994 583 l 994 388 l 696 388 q 658 517 696 467 q 538 567 619 567 l 536 567 q 418 515 461 567 q 375 386 375 463 z "},"s":{"ha":1082,"x_min":24,"x_max":1054,"o":"m 561 -21 l 504 -21 q 24 244 24 -21 l 24 253 l 343 253 q 535 151 343 151 l 538 151 q 663 163 618 151 q 719 188 708 174 q 731 222 731 201 l 731 225 q 699 272 731 257 q 567 290 668 288 l 433 293 q 234 317 317 296 q 109 372 151 338 q 49 444 67 407 q 31 526 31 482 l 31 535 q 40 604 31 574 q 78 667 49 635 q 158 719 108 699 q 296 754 208 740 q 503 768 383 768 l 558 768 q 1026 533 1026 768 l 1026 524 l 711 524 q 703 548 708 538 q 681 572 697 558 q 624 592 664 585 q 526 600 585 600 l 525 600 q 383 588 419 600 q 347 544 347 575 l 347 542 q 381 499 347 514 q 504 482 414 485 l 638 479 q 899 447 806 476 q 1023 372 992 418 q 1054 244 1054 325 l 1054 236 q 1034 137 1054 179 q 963 57 1014 94 q 811 -1 913 19 q 561 -21 710 -21 z "},"t":{"ha":658,"x_min":19,"x_max":618,"o":"m 618 0 l 350 0 q 165 213 165 0 l 165 542 l 19 542 l 19 747 l 165 747 l 165 965 l 471 965 l 471 747 l 618 747 l 618 542 l 471 542 l 471 271 q 483 222 471 238 q 533 206 496 206 l 618 206 l 618 0 z "},"u":{"ha":1164,"x_min":63,"x_max":1099,"o":"m 1099 747 l 1099 0 l 792 0 l 792 129 q 760 99 768 107 q 712 64 751 92 q 638 23 672 36 q 547 -3 604 10 q 429 -17 490 -17 l 418 -17 q 151 73 240 -17 q 63 282 63 163 l 63 747 l 375 747 l 375 378 q 423 242 375 292 q 567 192 471 192 q 728 247 668 192 q 789 394 789 303 l 789 747 l 1099 747 z "},"v":{"ha":1088,"x_min":-15,"x_max":1103,"o":"m 365 0 l -15 747 l 318 747 l 558 236 l 792 747 l 1103 747 l 738 0 l 365 0 z "},"w":{"ha":1586,"x_min":-14,"x_max":1600,"o":"m 617 0 l 296 0 l -14 747 l 308 747 l 479 269 l 647 747 l 972 747 l 1146 269 l 1311 747 l 1600 747 l 1311 0 l 983 0 l 800 494 l 617 0 z "},"x":{"ha":1099,"x_min":-15,"x_max":1114,"o":"m 329 0 l -15 0 l 375 379 l -3 747 l 363 747 l 558 551 l 754 747 l 1101 747 l 726 385 l 1114 0 l 764 0 l 544 214 l 329 0 z "},"y":{"ha":1088,"x_min":-15,"x_max":1103,"o":"m 165 -261 l 165 -39 l 340 -39 q 376 -15 376 -39 q 342 64 376 -3 l -15 747 l 318 747 l 558 242 l 792 747 l 1103 747 l 711 -50 q 594 -211 656 -161 q 436 -261 533 -261 l 165 -261 z "},"z":{"ha":1006,"x_min":33,"x_max":972,"o":"m 972 0 l 33 0 l 33 181 l 540 546 l 33 546 l 33 747 l 969 747 l 969 574 l 439 207 l 972 207 l 972 0 z "},"{":{"ha":507,"x_min":38,"x_max":488,"o":"m 488 -182 l 314 -182 q 130 -144 190 -182 q 69 -24 69 -106 q 128 170 69 39 q 188 332 188 301 q 125 396 188 396 l 38 396 l 38 551 l 125 551 q 188 604 188 551 q 128 765 188 638 q 69 954 69 893 q 314 1122 69 1122 l 488 1122 l 488 969 l 381 969 q 319 915 319 969 q 365 773 319 885 q 410 618 410 661 q 380 525 410 558 q 278 475 350 492 q 380 430 350 460 q 410 350 410 400 q 365 185 410 303 q 319 38 319 67 q 392 -28 319 -28 l 488 -28 l 488 -182 z "},"|":{"ha":529,"x_min":153,"x_max":376,"o":"m 376 1122 l 376 -182 l 153 -182 l 153 1122 l 376 1122 z "},"}":{"ha":507,"x_min":19,"x_max":469,"o":"m 19 -182 l 19 -28 l 115 -28 q 188 38 188 -28 q 143 185 188 67 q 99 350 99 303 q 128 430 99 400 q 229 475 157 460 q 128 525 158 492 q 99 618 99 558 q 143 773 99 661 q 188 915 188 885 q 126 969 188 969 l 19 969 l 19 1122 l 193 1122 q 438 954 438 1122 q 378 765 438 893 q 319 604 319 638 q 382 551 319 551 l 469 551 l 469 396 l 382 396 q 319 332 319 396 q 378 170 319 301 q 438 -24 438 39 q 377 -144 438 -106 q 193 -182 317 -182 l 19 -182 z "},"~":{"ha":933,"x_min":38,"x_max":896,"o":"m 700 358 q 577 376 628 358 q 429 447 526 394 q 321 494 342 493 q 307 496 314 496 q 269 450 269 496 l 269 331 l 38 331 l 38 511 q 84 667 38 603 q 239 732 131 732 q 335 719 288 732 q 408 694 383 706 q 503 644 432 682 q 629 590 607 590 q 664 635 664 590 l 664 763 l 896 763 l 896 550 q 849 415 896 471 q 700 358 803 358 z "}," ":{"ha":428,"x_min":0,"x_max":0,"o":""},"¡":{"ha":444,"x_min":25,"x_max":403,"o":"m 403 -286 l 25 -286 l 121 433 l 307 433 l 403 -286 m 46 504 l 46 747 l 382 747 l 382 504 l 46 504 z "},"¢":{"ha":1190,"x_min":31,"x_max":1164,"o":"m 663 -107 l 524 -107 l 524 -21 q 277 20 379 -17 q 124 116 175 57 q 52 235 74 175 q 31 364 31 296 l 31 392 q 42 492 31 444 q 88 591 54 540 q 175 679 122 642 q 317 742 228 717 q 524 768 407 767 l 524 854 l 663 854 l 663 768 q 853 749 769 767 q 990 703 938 732 q 1079 641 1043 674 q 1133 569 1115 608 q 1157 501 1150 531 q 1164 442 1164 471 l 1164 438 l 847 438 q 835 468 842 456 q 810 505 829 481 q 754 545 792 529 q 663 568 717 561 l 663 182 q 847 315 819 200 l 1164 315 l 1164 313 q 1160 263 1164 288 q 1144 203 1157 238 q 1110 140 1131 169 q 1051 81 1089 111 q 961 30 1013 51 q 833 -6 910 8 q 663 -21 757 -19 l 663 -107 m 347 388 l 347 378 q 389 251 347 304 q 524 182 431 197 l 524 568 q 389 506 431 556 q 347 388 347 457 z "},"£":{"ha":1261,"x_min":25,"x_max":1218,"o":"m 1218 358 l 1218 0 l 25 0 l 25 218 l 96 218 q 203 241 167 218 q 240 319 240 264 l 240 324 q 213 442 240 364 l 25 442 l 25 590 l 158 590 q 136 721 136 667 l 136 731 q 158 842 136 790 q 232 942 181 894 q 385 1018 283 990 q 631 1046 488 1046 l 688 1046 q 868 1032 788 1046 q 1001 997 949 1018 q 1091 944 1053 976 q 1149 882 1129 911 q 1180 813 1168 853 q 1194 747 1192 774 q 1196 686 1196 721 l 1196 675 l 875 675 q 667 828 863 828 q 451 667 451 828 q 463 590 451 642 l 946 590 l 946 442 l 494 442 q 501 375 501 397 q 406 218 501 275 l 889 218 l 889 358 l 1218 358 z "},"¥":{"ha":1318,"x_min":-31,"x_max":1349,"o":"m 503 0 l 503 214 l 132 214 l 132 336 l 503 336 l 503 413 l 132 413 l 132 535 l 411 535 l -31 1033 l 368 1033 l 674 674 l 985 1033 l 1349 1033 l 921 535 l 1200 535 l 1200 413 l 829 413 l 829 336 l 1200 336 l 1200 214 l 829 214 l 829 0 l 503 0 z "},"¦":{"ha":529,"x_min":153,"x_max":376,"o":"m 376 1122 l 376 536 l 153 536 l 153 1122 l 376 1122 m 376 453 l 376 -182 l 153 -182 l 153 453 l 376 453 z "},"§":{"ha":1267,"x_min":22,"x_max":1239,"o":"m 871 261 q 924 349 924 292 q 894 415 924 389 q 789 453 864 442 q 389 522 446 504 q 338 435 338 494 q 367 368 338 394 q 475 329 397 342 q 871 261 843 269 m 667 -290 l 608 -290 q 67 24 67 -290 l 67 28 l 385 28 q 394 -13 388 4 q 424 -53 401 -31 q 501 -90 447 -76 q 636 -103 556 -103 l 646 -103 q 839 -28 839 -103 l 839 -25 q 831 11 839 -3 q 787 41 824 25 q 679 68 750 57 l 408 110 q 109 213 196 142 q 22 388 22 283 l 22 400 q 76 524 22 476 q 214 590 131 572 q 103 786 103 651 l 103 800 q 145 935 103 882 q 303 1022 188 989 q 611 1054 418 1054 l 668 1054 q 895 1035 799 1054 q 1044 990 992 1017 q 1126 921 1096 963 q 1165 844 1157 879 q 1174 764 1174 808 l 1174 760 l 857 760 q 638 871 843 871 l 626 871 q 489 861 538 871 q 428 838 440 851 q 417 801 417 824 l 417 799 q 447 747 417 767 q 581 713 476 728 l 857 674 q 1156 578 1074 642 q 1239 407 1239 515 l 1239 393 q 1050 193 1239 247 q 1157 3 1157 132 l 1157 -11 q 667 -290 1157 -290 z "},"¨":{"ha":981,"x_min":156,"x_max":824,"o":"m 824 1033 l 824 819 l 524 819 l 524 1033 l 824 1033 m 454 1033 l 454 819 l 156 819 l 156 1033 l 454 1033 z "},"©":{"ha":1618,"x_min":38,"x_max":1581,"o":"m 831 -15 l 788 -15 q 38 499 38 -15 l 38 538 q 58 692 38 621 q 130 830 78 763 q 265 944 182 897 q 481 1020 347 992 q 789 1049 615 1049 l 829 1049 q 1137 1020 1003 1049 q 1353 944 1271 992 q 1488 830 1436 897 q 1560 692 1540 763 q 1581 538 1581 621 l 1581 499 q 831 -15 1581 -15 m 210 525 l 210 508 q 238 359 210 426 q 330 234 267 292 q 510 144 393 176 q 792 111 628 111 l 826 111 q 1108 144 990 111 q 1288 234 1225 176 q 1380 359 1351 292 q 1408 508 1408 426 l 1408 525 q 1381 683 1408 615 q 1289 808 1353 751 q 1108 893 1225 864 q 826 922 992 922 l 792 922 q 510 893 626 922 q 329 808 393 864 q 238 683 265 751 q 210 525 210 615 m 832 204 l 796 204 q 599 226 683 204 q 467 278 514 247 q 390 353 419 310 q 353 434 361 397 q 344 510 344 471 l 344 533 q 351 597 344 567 q 373 663 357 626 q 422 727 389 699 q 501 781 454 756 q 624 819 549 806 q 796 833 700 833 l 832 833 q 1036 814 949 833 q 1169 767 1124 794 q 1241 701 1214 739 q 1274 635 1268 663 q 1281 579 1281 608 l 1281 572 l 1015 572 q 813 669 989 669 q 648 632 693 669 q 603 529 603 594 l 603 518 q 650 412 603 456 q 814 368 697 368 q 1015 475 990 368 l 1282 475 l 1282 467 q 1275 407 1282 436 q 1240 339 1268 378 q 1167 272 1213 300 q 1035 224 1122 244 q 832 204 949 204 z "},"ª":{"ha":790,"x_min":25,"x_max":765,"o":"m 326 647 q 448 681 403 647 q 493 761 493 714 l 493 769 l 314 742 q 260 724 275 735 q 244 694 244 714 q 326 647 244 647 m 513 611 q 276 526 436 526 l 264 526 q 82 572 139 526 q 25 689 25 618 l 25 696 q 82 800 25 764 q 256 847 139 836 l 467 867 q 493 889 493 868 q 376 925 493 925 l 365 925 q 250 875 250 925 l 38 875 l 38 878 q 45 933 38 910 q 80 984 53 956 q 174 1028 107 1013 q 343 1043 240 1043 l 397 1043 q 567 1029 500 1043 q 664 990 635 1015 q 703 942 693 965 q 713 886 713 918 l 713 703 q 738 678 713 678 l 765 678 l 765 536 l 592 536 q 513 611 521 536 z "},"«":{"ha":750,"x_min":19,"x_max":728,"o":"m 250 399 l 415 163 l 192 163 l 19 399 l 193 632 l 419 632 l 250 399 m 561 399 l 719 163 l 496 163 l 331 399 l 501 632 l 728 632 l 561 399 z "},"®":{"ha":903,"x_min":25,"x_max":878,"o":"m 431 1047 l 478 1047 q 647 1030 574 1047 q 762 985 719 1013 q 831 919 804 957 q 868 844 858 881 q 878 768 878 808 l 878 749 q 856 651 878 697 q 790 563 835 604 q 663 496 744 521 q 475 471 582 471 l 431 471 q 263 488 336 471 q 147 531 190 504 q 74 596 103 558 q 35 670 46 633 q 25 749 25 707 l 25 769 q 35 844 25 808 q 72 919 44 881 q 144 985 100 957 q 261 1030 188 1013 q 431 1047 335 1047 m 453 550 l 456 550 q 598 564 538 550 q 692 598 658 578 q 744 649 725 618 q 769 706 764 679 q 775 765 775 732 q 769 822 775 797 q 744 876 764 847 q 692 924 725 906 q 598 956 658 943 q 456 968 538 968 l 453 968 q 279 951 347 968 q 180 902 211 935 q 138 838 149 869 q 128 760 128 806 q 139 685 128 717 q 181 619 150 653 q 280 568 211 586 q 453 550 349 550 m 379 785 l 501 785 q 539 811 539 785 q 501 836 539 836 l 379 836 l 379 785 m 379 708 l 379 613 l 249 613 l 249 908 l 535 908 q 667 835 667 908 l 667 832 q 647 788 667 804 q 601 767 626 771 q 671 700 671 753 l 671 646 q 679 617 671 628 l 679 613 l 549 613 q 539 636 539 622 l 539 665 q 529 699 539 689 q 496 708 519 708 l 379 708 z "},"¯":{"ha":981,"x_min":197,"x_max":783,"o":"m 197 835 l 197 1004 l 783 1004 l 783 835 l 197 835 z "},"°":{"ha":569,"x_min":13,"x_max":557,"o":"m 479 604 q 440 568 479 604 q 285 532 401 532 q 90 604 168 532 q 13 790 13 676 q 90 976 13 904 q 285 1049 168 1049 q 479 976 401 1049 q 557 790 557 904 q 479 604 557 676 m 285 678 q 368 710 336 678 q 400 792 400 742 q 368 874 400 842 q 285 906 336 906 q 202 874 235 906 q 169 792 169 842 q 202 710 169 742 q 285 678 235 678 z "},"´":{"ha":981,"x_min":268,"x_max":713,"o":"m 268 819 l 393 1033 l 713 1033 l 564 819 l 268 819 z "},"¶":{"ha":1081,"x_min":19,"x_max":1063,"o":"m 432 0 l 432 456 l 356 456 q 100 530 181 456 q 19 732 19 604 l 19 758 q 93 962 19 890 q 358 1033 167 1033 l 1063 1033 l 1063 882 l 954 882 l 954 0 l 763 0 l 763 882 l 624 882 l 624 0 l 432 0 z "},"·":{"ha":432,"x_min":49,"x_max":383,"o":"m 383 535 l 383 292 l 49 292 l 49 535 l 383 535 z "},"¸":{"ha":981,"x_min":251,"x_max":729,"o":"m 251 -358 l 251 -233 l 399 -233 q 454 -203 454 -233 q 399 -171 454 -171 l 300 -171 l 300 0 l 476 0 l 476 -69 q 676 -104 622 -69 q 729 -210 729 -139 l 729 -214 q 674 -319 729 -281 q 475 -358 619 -358 l 251 -358 z "},"º":{"ha":835,"x_min":22,"x_max":813,"o":"m 450 522 l 386 522 q 206 545 281 522 q 92 608 131 568 q 38 689 54 647 q 22 778 22 731 l 22 793 q 38 881 22 840 q 92 960 54 922 q 206 1021 131 999 q 386 1043 281 1043 l 450 1043 q 813 793 813 1043 l 813 778 q 450 522 813 522 m 417 664 q 542 698 504 664 q 579 783 579 732 l 579 788 q 541 872 579 839 q 418 904 503 904 l 417 904 q 256 788 256 904 l 256 783 q 293 698 256 732 q 417 664 331 664 z "},"»":{"ha":750,"x_min":22,"x_max":731,"o":"m 189 399 l 22 632 l 249 632 l 419 399 l 254 163 l 31 163 l 189 399 m 558 163 l 335 163 l 500 399 l 331 632 l 557 632 l 731 399 l 558 163 z "},"¼":{"ha":1293,"x_min":-79,"x_max":1272,"o":"m 999 1033 l 1238 1033 l 153 0 l -79 0 l 999 1033 m 153 815 l 21 815 l 21 929 q 190 1033 149 936 l 357 1033 l 357 522 l 153 522 l 153 815 m 588 94 l 588 210 q 642 257 624 240 l 758 360 q 928 511 893 479 l 1163 511 l 1163 232 l 1272 232 l 1272 94 l 1163 94 l 1163 -1 l 956 -1 l 956 94 l 588 94 m 778 232 l 956 232 l 956 388 l 778 232 z "},"½":{"ha":1385,"x_min":-79,"x_max":1357,"o":"m 999 1033 l 1238 1033 l 153 0 l -79 0 l 999 1033 m 153 815 l 21 815 l 21 929 q 190 1033 149 936 l 357 1033 l 357 522 l 153 522 l 153 815 m 1357 0 l 690 0 l 690 60 q 701 132 690 101 q 743 198 711 163 q 844 262 775 233 q 1019 310 914 290 q 1142 360 1142 332 q 1033 392 1142 392 q 908 326 908 392 l 699 326 l 699 332 q 1014 519 699 519 l 1040 519 q 1203 507 1138 519 q 1300 470 1268 494 q 1344 419 1332 446 q 1357 356 1357 393 l 1357 350 q 1291 246 1357 276 q 1063 190 1225 215 q 889 156 913 167 q 875 144 879 150 l 1357 144 l 1357 0 z "},"¾":{"ha":1567,"x_min":13,"x_max":1546,"o":"m 1272 1033 l 1511 1033 l 426 0 l 194 0 l 1272 1033 m 381 517 l 335 517 q 188 532 250 517 q 92 569 125 547 q 40 619 60 590 q 17 669 21 649 q 13 711 13 690 l 13 718 l 229 718 q 361 654 229 654 q 496 697 496 654 l 496 700 q 433 731 496 731 l 264 731 l 264 853 l 425 853 q 486 879 486 853 l 486 882 q 354 914 486 914 q 226 865 226 914 l 19 865 l 19 872 q 22 901 19 888 q 35 937 25 915 q 66 976 44 958 q 119 1009 88 993 q 206 1034 151 1025 q 329 1043 260 1043 l 372 1043 q 549 1031 478 1043 q 650 997 619 1019 q 691 956 681 975 q 701 910 701 936 l 701 906 q 675 850 701 874 q 604 819 649 826 q 688 780 656 811 q 719 699 719 749 l 719 693 q 381 517 719 517 m 861 94 l 861 210 q 915 257 897 240 l 1032 360 q 1201 511 1167 479 l 1436 511 l 1436 232 l 1546 232 l 1546 94 l 1436 94 l 1436 -1 l 1229 -1 l 1229 94 l 861 94 m 1051 232 l 1229 232 l 1229 388 l 1051 232 z "},"¿":{"ha":1164,"x_min":10,"x_max":1136,"o":"m 483 413 l 800 413 l 800 308 q 756 186 800 229 q 576 108 713 143 l 460 79 q 356 39 382 60 q 331 -8 331 18 q 340 -44 331 -31 q 405 -69 350 -57 q 564 -81 460 -81 q 686 -70 635 -81 q 762 -48 738 -60 q 800 -13 786 -36 q 815 19 814 10 q 819 49 817 28 l 1136 49 l 1136 32 q 1134 -27 1136 -3 q 1121 -89 1132 -51 q 1090 -153 1110 -126 q 1030 -208 1069 -179 q 935 -256 990 -237 q 795 -287 881 -275 q 603 -299 710 -299 l 525 -299 q 303 -281 399 -299 q 153 -237 208 -264 q 65 -170 99 -210 q 21 -93 32 -131 q 10 -11 10 -56 l 10 -1 q 72 170 10 101 q 276 275 135 239 l 392 306 q 468 340 453 321 q 483 403 483 360 l 483 413 m 469 504 l 469 747 l 804 747 l 804 504 l 469 504 z "},"À":{"ha":1450,"x_min":-22,"x_max":1472,"o":"m 907 422 l 707 810 l 515 422 l 907 422 m 1124 0 l 1026 189 l 400 189 l 307 0 l -22 0 l 500 1033 l 919 1033 l 1472 0 l 1124 0 m 738 1314 l 863 1106 l 550 1106 l 404 1314 l 738 1314 z "},"Á":{"ha":1450,"x_min":-22,"x_max":1472,"o":"m 907 422 l 707 810 l 515 422 l 907 422 m 1124 0 l 1026 189 l 400 189 l 307 0 l -22 0 l 500 1033 l 919 1033 l 1472 0 l 1124 0 m 558 1106 l 683 1314 l 1017 1314 l 871 1106 l 558 1106 z "},"Â":{"ha":1450,"x_min":-22,"x_max":1472,"o":"m 907 422 l 707 810 l 515 422 l 907 422 m 1124 0 l 1026 189 l 400 189 l 307 0 l -22 0 l 500 1033 l 919 1033 l 1472 0 l 1124 0 m 883 1314 l 1106 1106 l 800 1106 l 708 1186 l 618 1106 l 317 1106 l 535 1314 l 883 1314 z "},"Ã":{"ha":1450,"x_min":-22,"x_max":1472,"o":"m 907 422 l 707 810 l 515 422 l 907 422 m 1124 0 l 1026 189 l 400 189 l 307 0 l -22 0 l 500 1033 l 919 1033 l 1472 0 l 1124 0 m 889 1114 l 881 1114 q 703 1154 825 1114 q 618 1175 644 1175 q 593 1146 593 1175 l 593 1103 l 390 1103 l 390 1215 q 421 1311 390 1271 q 529 1351 451 1351 l 538 1351 q 715 1311 596 1351 q 800 1290 778 1290 q 825 1319 825 1290 l 825 1361 l 1028 1361 l 1028 1250 q 997 1154 1028 1194 q 889 1114 967 1114 z "},"Ä":{"ha":1450,"x_min":-22,"x_max":1472,"o":"m 907 422 l 707 810 l 515 422 l 907 422 m 1124 0 l 1026 189 l 400 189 l 307 0 l -22 0 l 500 1033 l 919 1033 l 1472 0 l 1124 0 m 1054 1314 l 1054 1106 l 746 1106 l 746 1314 l 1054 1314 m 674 1314 l 674 1106 l 365 1106 l 365 1314 l 674 1314 z "},"Å":{"ha":1450,"x_min":-22,"x_max":1472,"o":"m 907 422 l 707 810 l 515 422 l 907 422 m 1124 0 l 1026 189 l 400 189 l 307 0 l -22 0 l 500 1033 l 919 1033 l 1472 0 l 1124 0 m 444 1253 q 713 1414 444 1414 q 975 1253 975 1414 q 713 1089 975 1089 q 444 1253 444 1089 m 604 1253 q 713 1188 604 1188 q 817 1253 817 1188 q 713 1315 817 1315 q 604 1253 604 1315 z "},"Æ":{"ha":2046,"x_min":-43,"x_max":1990,"o":"m 901 414 l 901 800 l 606 414 l 901 414 m 901 0 l 901 181 l 428 181 l 289 0 l -43 0 l 744 1033 l 1976 1033 l 1976 799 l 1221 799 l 1221 646 l 1958 646 l 1958 410 l 1221 410 l 1221 240 l 1990 240 l 1990 0 l 901 0 z "},"Ç":{"ha":1513,"x_min":38,"x_max":1479,"o":"m 786 -18 l 729 -18 q 503 1 606 -18 q 330 52 400 21 q 206 128 260 83 q 121 219 151 174 q 70 318 90 265 q 44 414 50 371 q 38 500 38 457 l 38 540 q 50 667 38 607 q 106 800 63 726 q 221 926 150 874 q 423 1015 292 979 q 729 1051 554 1051 l 786 1051 q 1088 1020 957 1051 q 1290 944 1218 989 q 1406 840 1361 899 q 1465 734 1451 781 q 1478 644 1478 688 l 1478 629 l 1135 629 q 1124 659 1131 646 q 1092 701 1118 672 q 1030 750 1067 731 q 922 785 993 769 q 757 801 850 801 q 567 778 646 801 q 449 715 489 756 q 393 631 410 675 q 376 533 376 586 l 376 517 q 395 420 376 467 q 454 330 414 374 q 574 260 494 286 q 760 233 653 233 q 1135 413 1078 233 q 1136 417 1136 415 l 1479 417 l 1479 401 q 1465 307 1479 356 q 1404 198 1450 258 q 1286 92 1358 138 q 1084 14 1214 46 q 786 -18 954 -18 m 519 -358 l 519 -233 l 667 -233 q 722 -203 722 -233 q 667 -171 722 -171 l 568 -171 l 568 0 l 744 0 l 744 -69 q 944 -104 890 -69 q 997 -210 997 -139 l 997 -214 q 942 -319 997 -281 q 743 -358 888 -358 l 519 -358 z "},"È":{"ha":1238,"x_min":79,"x_max":1182,"o":"m 79 1033 l 1168 1033 l 1168 799 l 399 799 l 399 646 l 1150 646 l 1150 410 l 399 410 l 399 240 l 1182 240 l 1182 0 l 79 0 l 79 1033 m 704 1314 l 829 1106 l 517 1106 l 371 1314 l 704 1314 z "},"É":{"ha":1238,"x_min":79,"x_max":1182,"o":"m 79 1033 l 1168 1033 l 1168 799 l 399 799 l 399 646 l 1150 646 l 1150 410 l 399 410 l 399 240 l 1182 240 l 1182 0 l 79 0 l 79 1033 m 464 1106 l 589 1314 l 922 1314 l 776 1106 l 464 1106 z "},"Ê":{"ha":1238,"x_min":79,"x_max":1182,"o":"m 79 1033 l 1168 1033 l 1168 799 l 399 799 l 399 646 l 1150 646 l 1150 410 l 399 410 l 399 240 l 1182 240 l 1182 0 l 79 0 l 79 1033 m 810 1314 l 1032 1106 l 726 1106 l 635 1186 l 544 1106 l 243 1106 l 461 1314 l 810 1314 z "},"Ë":{"ha":1238,"x_min":79,"x_max":1182,"o":"m 79 1033 l 1168 1033 l 1168 799 l 399 799 l 399 646 l 1150 646 l 1150 410 l 399 410 l 399 240 l 1182 240 l 1182 0 l 79 0 l 79 1033 m 982 1314 l 982 1106 l 674 1106 l 674 1314 l 982 1314 m 601 1314 l 601 1106 l 293 1106 l 293 1314 l 601 1314 z "},"Ì":{"ha":482,"x_min":-61,"x_max":403,"o":"m 403 1033 l 403 0 l 79 0 l 79 1033 l 403 1033 m 272 1314 l 397 1106 l 85 1106 l -61 1314 l 272 1314 z "},"Í":{"ha":482,"x_min":79,"x_max":547,"o":"m 403 1033 l 403 0 l 79 0 l 79 1033 l 403 1033 m 89 1106 l 214 1314 l 547 1314 l 401 1106 l 89 1106 z "},"Î":{"ha":482,"x_min":-154,"x_max":635,"o":"m 403 1033 l 403 0 l 79 0 l 79 1033 l 403 1033 m 413 1314 l 635 1106 l 329 1106 l 238 1186 l 147 1106 l -154 1106 l 64 1314 l 413 1314 z "},"Ï":{"ha":482,"x_min":-104,"x_max":585,"o":"m 403 1033 l 403 0 l 79 0 l 79 1033 l 403 1033 m 585 1314 l 585 1106 l 276 1106 l 276 1314 l 585 1314 m 204 1314 l 204 1106 l -104 1106 l -104 1314 l 204 1314 z "},"Ð":{"ha":1533,"x_min":1,"x_max":1501,"o":"m 88 0 l 88 417 l 1 417 l 1 624 l 88 624 l 88 1033 l 772 1033 q 1033 1014 917 1033 q 1228 958 1150 994 q 1361 876 1306 921 q 1446 774 1417 831 q 1488 662 1475 717 q 1501 544 1501 607 l 1501 503 q 1485 365 1501 429 q 1419 231 1468 300 q 1292 113 1369 161 q 1081 32 1214 64 q 774 0 947 0 l 88 0 m 411 789 l 411 624 l 871 624 l 871 417 l 411 417 l 411 249 l 747 249 q 1163 515 1163 249 l 1163 524 q 747 789 1163 789 l 411 789 z "},"Ñ":{"ha":1499,"x_min":79,"x_max":1419,"o":"m 79 1033 l 440 1033 l 1100 383 l 1100 1033 l 1419 1033 l 1419 0 l 1100 0 l 399 685 l 399 0 l 79 0 l 79 1033 m 940 1114 l 932 1114 q 754 1154 876 1114 q 669 1175 696 1175 q 644 1146 644 1175 l 644 1103 l 442 1103 l 442 1215 q 472 1311 442 1271 q 581 1351 503 1351 l 589 1351 q 767 1311 647 1351 q 851 1290 829 1290 q 876 1319 876 1290 l 876 1361 l 1079 1361 l 1079 1250 q 1049 1154 1079 1194 q 940 1114 1018 1114 z "},"Ò":{"ha":1589,"x_min":38,"x_max":1551,"o":"m 765 1051 l 825 1051 q 1069 1033 960 1051 q 1253 983 1179 1014 q 1383 908 1328 953 q 1470 819 1439 864 q 1521 722 1501 775 q 1546 628 1540 669 q 1551 540 1551 586 l 1551 499 q 1546 413 1551 454 q 1521 317 1540 371 q 1471 219 1501 264 q 1384 128 1440 174 q 1254 52 1328 83 q 1070 1 1181 21 q 825 -18 960 -18 l 765 -18 q 519 1 631 -18 q 335 52 408 21 q 205 128 261 83 q 117 219 149 174 q 67 317 86 264 q 43 413 49 371 q 38 499 38 454 l 38 540 q 43 627 38 586 q 67 722 49 668 q 117 819 86 775 q 204 908 149 864 q 334 983 260 953 q 519 1033 408 1014 q 765 1051 631 1051 m 1213 511 l 1213 531 q 1203 604 1213 569 q 1165 676 1193 639 q 1093 740 1138 714 q 972 784 1049 767 q 794 801 896 801 q 376 531 376 801 l 376 514 q 394 419 376 464 q 453 331 411 375 q 582 260 494 286 q 794 233 669 233 q 1005 259 918 233 q 1135 328 1092 285 q 1195 417 1178 372 q 1213 511 1213 461 m 828 1314 l 953 1106 l 640 1106 l 494 1314 l 828 1314 z "},"Ó":{"ha":1589,"x_min":38,"x_max":1551,"o":"m 765 1051 l 825 1051 q 1069 1033 960 1051 q 1253 983 1179 1014 q 1383 908 1328 953 q 1470 819 1439 864 q 1521 722 1501 775 q 1546 628 1540 669 q 1551 540 1551 586 l 1551 499 q 1546 413 1551 454 q 1521 317 1540 371 q 1471 219 1501 264 q 1384 128 1440 174 q 1254 52 1328 83 q 1070 1 1181 21 q 825 -18 960 -18 l 765 -18 q 519 1 631 -18 q 335 52 408 21 q 205 128 261 83 q 117 219 149 174 q 67 317 86 264 q 43 413 49 371 q 38 499 38 454 l 38 540 q 43 627 38 586 q 67 722 49 668 q 117 819 86 775 q 204 908 149 864 q 334 983 260 953 q 519 1033 408 1014 q 765 1051 631 1051 m 1213 511 l 1213 531 q 1203 604 1213 569 q 1165 676 1193 639 q 1093 740 1138 714 q 972 784 1049 767 q 794 801 896 801 q 376 531 376 801 l 376 514 q 394 419 376 464 q 453 331 411 375 q 582 260 494 286 q 794 233 669 233 q 1005 259 918 233 q 1135 328 1092 285 q 1195 417 1178 372 q 1213 511 1213 461 m 643 1106 l 768 1314 l 1101 1314 l 956 1106 l 643 1106 z "},"Ô":{"ha":1589,"x_min":38,"x_max":1551,"o":"m 765 1051 l 825 1051 q 1069 1033 960 1051 q 1253 983 1179 1014 q 1383 908 1328 953 q 1470 819 1439 864 q 1521 722 1501 775 q 1546 628 1540 669 q 1551 540 1551 586 l 1551 499 q 1546 413 1551 454 q 1521 317 1540 371 q 1471 219 1501 264 q 1384 128 1440 174 q 1254 52 1328 83 q 1070 1 1181 21 q 825 -18 960 -18 l 765 -18 q 519 1 631 -18 q 335 52 408 21 q 205 128 261 83 q 117 219 149 174 q 67 317 86 264 q 43 413 49 371 q 38 499 38 454 l 38 540 q 43 627 38 586 q 67 722 49 668 q 117 819 86 775 q 204 908 149 864 q 334 983 260 953 q 519 1033 408 1014 q 765 1051 631 1051 m 1213 511 l 1213 531 q 1203 604 1213 569 q 1165 676 1193 639 q 1093 740 1138 714 q 972 784 1049 767 q 794 801 896 801 q 376 531 376 801 l 376 514 q 394 419 376 464 q 453 331 411 375 q 582 260 494 286 q 794 233 669 233 q 1005 259 918 233 q 1135 328 1092 285 q 1195 417 1178 372 q 1213 511 1213 461 m 967 1314 l 1189 1106 l 883 1106 l 792 1186 l 701 1106 l 400 1106 l 618 1314 l 967 1314 z "},"Õ":{"ha":1589,"x_min":38,"x_max":1551,"o":"m 765 1051 l 825 1051 q 1069 1033 960 1051 q 1253 983 1179 1014 q 1383 908 1328 953 q 1470 819 1439 864 q 1521 722 1501 775 q 1546 628 1540 669 q 1551 540 1551 586 l 1551 499 q 1546 413 1551 454 q 1521 317 1540 371 q 1471 219 1501 264 q 1384 128 1440 174 q 1254 52 1328 83 q 1070 1 1181 21 q 825 -18 960 -18 l 765 -18 q 519 1 631 -18 q 335 52 408 21 q 205 128 261 83 q 117 219 149 174 q 67 317 86 264 q 43 413 49 371 q 38 499 38 454 l 38 540 q 43 627 38 586 q 67 722 49 668 q 117 819 86 775 q 204 908 149 864 q 334 983 260 953 q 519 1033 408 1014 q 765 1051 631 1051 m 1213 511 l 1213 531 q 1203 604 1213 569 q 1165 676 1193 639 q 1093 740 1138 714 q 972 784 1049 767 q 794 801 896 801 q 376 531 376 801 l 376 514 q 394 419 376 464 q 453 331 411 375 q 582 260 494 286 q 794 233 669 233 q 1005 259 918 233 q 1135 328 1092 285 q 1195 417 1178 372 q 1213 511 1213 461 m 974 1114 l 965 1114 q 788 1154 910 1114 q 703 1175 729 1175 q 678 1146 678 1175 l 678 1103 l 475 1103 l 475 1215 q 506 1311 475 1271 q 614 1351 536 1351 l 622 1351 q 800 1311 681 1351 q 885 1290 863 1290 q 910 1319 910 1290 l 910 1361 l 1113 1361 l 1113 1250 q 1082 1154 1113 1194 q 974 1114 1051 1114 z "},"Ö":{"ha":1589,"x_min":38,"x_max":1551,"o":"m 765 1051 l 825 1051 q 1069 1033 960 1051 q 1253 983 1179 1014 q 1383 908 1328 953 q 1470 819 1439 864 q 1521 722 1501 775 q 1546 628 1540 669 q 1551 540 1551 586 l 1551 499 q 1546 413 1551 454 q 1521 317 1540 371 q 1471 219 1501 264 q 1384 128 1440 174 q 1254 52 1328 83 q 1070 1 1181 21 q 825 -18 960 -18 l 765 -18 q 519 1 631 -18 q 335 52 408 21 q 205 128 261 83 q 117 219 149 174 q 67 317 86 264 q 43 413 49 371 q 38 499 38 454 l 38 540 q 43 627 38 586 q 67 722 49 668 q 117 819 86 775 q 204 908 149 864 q 334 983 260 953 q 519 1033 408 1014 q 765 1051 631 1051 m 1213 511 l 1213 531 q 1203 604 1213 569 q 1165 676 1193 639 q 1093 740 1138 714 q 972 784 1049 767 q 794 801 896 801 q 376 531 376 801 l 376 514 q 394 419 376 464 q 453 331 411 375 q 582 260 494 286 q 794 233 669 233 q 1005 259 918 233 q 1135 328 1092 285 q 1195 417 1178 372 q 1213 511 1213 461 m 1139 1314 l 1139 1106 l 831 1106 l 831 1314 l 1139 1314 m 758 1314 l 758 1106 l 450 1106 l 450 1314 l 758 1314 z "},"×":{"ha":746,"x_min":24,"x_max":722,"o":"m 581 103 l 372 289 l 164 103 l 24 253 l 218 426 l 24 600 l 165 750 l 374 565 l 581 750 l 721 600 l 526 426 l 722 253 l 581 103 z "},"Ø":{"ha":1589,"x_min":-8,"x_max":1596,"o":"m 826 -18 l 765 -18 q 353 51 521 -18 l 288 0 l -8 0 l 44 42 q 80 70 54 50 q 132 111 106 90 q 185 153 158 132 q 38 499 38 285 l 38 540 q 43 628 38 586 q 67 723 49 669 q 117 821 86 776 q 204 909 149 865 q 334 983 260 953 q 519 1033 408 1014 q 765 1051 629 1051 l 826 1051 q 1233 983 1074 1051 l 1299 1033 l 1596 1033 l 1403 882 q 1551 540 1551 749 l 1551 499 q 1546 411 1551 453 q 1521 316 1540 369 q 1470 217 1501 263 q 1383 128 1439 172 q 1254 52 1328 83 q 1071 1 1181 21 q 826 -18 961 -18 m 376 531 l 376 514 q 431 349 376 414 l 983 786 q 794 800 910 800 q 376 531 376 800 m 794 235 q 1005 260 918 235 q 1135 328 1092 285 q 1195 415 1178 371 q 1213 511 1213 460 l 1213 531 q 1161 690 1213 632 l 604 250 q 794 235 685 235 z "},"Ù":{"ha":1463,"x_min":67,"x_max":1396,"o":"m 761 -15 l 711 -15 q 501 5 596 -15 q 340 58 406 25 q 225 139 275 92 q 146 235 175 186 q 98 339 117 283 q 73 440 79 394 q 67 532 67 486 l 67 1033 l 392 1033 l 392 551 q 406 448 392 496 q 456 353 421 400 q 562 280 490 307 q 733 253 633 253 q 902 280 832 253 q 1008 353 972 307 q 1058 448 1043 400 q 1072 551 1072 496 l 1072 1033 l 1396 1033 l 1396 532 q 1381 400 1396 467 q 1324 256 1367 333 q 1214 121 1281 179 q 1030 24 1147 63 q 761 -15 913 -15 m 785 1311 l 910 1103 l 597 1103 l 451 1311 l 785 1311 z "},"Ú":{"ha":1463,"x_min":67,"x_max":1396,"o":"m 761 -15 l 711 -15 q 501 5 596 -15 q 340 58 406 25 q 225 139 275 92 q 146 235 175 186 q 98 339 117 283 q 73 440 79 394 q 67 532 67 486 l 67 1033 l 392 1033 l 392 551 q 406 448 392 496 q 456 353 421 400 q 562 280 490 307 q 733 253 633 253 q 902 280 832 253 q 1008 353 972 307 q 1058 448 1043 400 q 1072 551 1072 496 l 1072 1033 l 1396 1033 l 1396 532 q 1381 400 1396 467 q 1324 256 1367 333 q 1214 121 1281 179 q 1030 24 1147 63 q 761 -15 913 -15 m 554 1106 l 679 1314 l 1013 1314 l 867 1106 l 554 1106 z "},"Û":{"ha":1463,"x_min":67,"x_max":1396,"o":"m 761 -15 l 711 -15 q 501 5 596 -15 q 340 58 406 25 q 225 139 275 92 q 146 235 175 186 q 98 339 117 283 q 73 440 79 394 q 67 532 67 486 l 67 1033 l 392 1033 l 392 551 q 406 448 392 496 q 456 353 421 400 q 562 280 490 307 q 733 253 633 253 q 902 280 832 253 q 1008 353 972 307 q 1058 448 1043 400 q 1072 551 1072 496 l 1072 1033 l 1396 1033 l 1396 532 q 1381 400 1396 467 q 1324 256 1367 333 q 1214 121 1281 179 q 1030 24 1147 63 q 761 -15 913 -15 m 903 1314 l 1125 1106 l 819 1106 l 728 1186 l 638 1106 l 336 1106 l 554 1314 l 903 1314 z "},"Ü":{"ha":1463,"x_min":67,"x_max":1396,"o":"m 761 -15 l 711 -15 q 501 5 596 -15 q 340 58 406 25 q 225 139 275 92 q 146 235 175 186 q 98 339 117 283 q 73 440 79 394 q 67 532 67 486 l 67 1033 l 392 1033 l 392 551 q 406 448 392 496 q 456 353 421 400 q 562 280 490 307 q 733 253 633 253 q 902 280 832 253 q 1008 353 972 307 q 1058 448 1043 400 q 1072 551 1072 496 l 1072 1033 l 1396 1033 l 1396 532 q 1381 400 1396 467 q 1324 256 1367 333 q 1214 121 1281 179 q 1030 24 1147 63 q 761 -15 913 -15 m 1075 1314 l 1075 1106 l 767 1106 l 767 1314 l 1075 1314 m 694 1314 l 694 1106 l 386 1106 l 386 1314 l 694 1314 z "},"Ý":{"ha":1353,"x_min":-31,"x_max":1383,"o":"m 522 0 l 522 400 l -31 1033 l 371 1033 l 692 653 l 1018 1033 l 1383 1033 l 846 400 l 846 0 l 522 0 m 528 1106 l 653 1314 l 986 1314 l 840 1106 l 528 1106 z "},"Þ":{"ha":1367,"x_min":79,"x_max":1340,"o":"m 857 179 l 403 179 l 403 0 l 79 0 l 79 1033 l 403 1033 l 403 865 l 857 865 q 1340 529 1340 865 l 1340 515 q 1227 271 1340 363 q 857 179 1114 179 m 403 633 l 403 411 l 851 411 q 962 439 922 411 q 1001 519 1001 467 l 1001 524 q 851 633 1001 633 l 403 633 z "},"ß":{"ha":1210,"x_min":65,"x_max":1182,"o":"m 931 599 q 1182 332 1182 544 l 1182 315 q 722 0 1182 0 l 468 0 l 468 219 l 663 219 q 811 247 771 219 q 851 326 851 274 l 851 328 q 811 406 851 379 q 663 433 771 433 l 468 433 l 468 653 l 643 653 q 760 676 729 653 q 792 738 792 699 l 792 739 q 786 772 792 758 q 762 799 781 785 q 700 821 743 814 q 589 828 657 828 l 571 828 q 418 797 461 828 q 375 700 375 767 l 375 0 l 65 0 l 65 725 q 73 806 65 769 q 109 888 81 843 q 185 962 138 932 q 319 1013 232 992 q 525 1033 407 1033 l 608 1033 q 832 1017 738 1033 q 977 979 926 1001 q 1057 922 1028 957 q 1093 857 1086 886 q 1100 790 1100 828 l 1100 782 q 1051 661 1100 711 q 931 599 1003 611 z "},"à":{"ha":1111,"x_min":22,"x_max":1103,"o":"m 725 332 l 725 356 l 429 310 q 342 285 367 300 q 317 240 317 271 l 317 239 q 349 179 317 204 q 453 154 381 154 q 649 208 572 154 q 725 332 725 263 m 733 103 q 615 23 699 60 q 388 -14 532 -14 l 369 -14 q 108 56 193 -14 q 22 231 22 125 l 22 240 q 95 396 22 343 q 336 464 168 449 l 678 496 q 725 535 725 501 q 716 564 725 553 q 661 585 707 575 q 531 596 615 596 l 524 596 q 433 589 471 596 q 376 574 394 582 q 345 552 357 567 q 331 531 333 538 q 328 513 329 525 l 40 513 l 40 515 q 46 580 40 551 q 78 646 51 608 q 149 708 104 683 q 280 751 193 733 q 486 768 367 768 l 563 768 q 776 753 688 768 q 913 715 865 738 q 986 658 960 693 q 1018 594 1013 622 q 1024 526 1024 567 l 1024 240 q 1063 203 1024 203 l 1103 203 l 1103 0 l 851 0 q 733 103 750 0 m 679 819 l 381 819 l 232 1033 l 554 1033 l 679 819 z "},"á":{"ha":1111,"x_min":22,"x_max":1103,"o":"m 725 332 l 725 356 l 429 310 q 342 285 367 300 q 317 240 317 271 l 317 239 q 349 179 317 204 q 453 154 381 154 q 649 208 572 154 q 725 332 725 263 m 733 103 q 615 23 699 60 q 388 -14 532 -14 l 369 -14 q 108 56 193 -14 q 22 231 22 125 l 22 240 q 95 396 22 343 q 336 464 168 449 l 678 496 q 725 535 725 501 q 716 564 725 553 q 661 585 707 575 q 531 596 615 596 l 524 596 q 433 589 471 596 q 376 574 394 582 q 345 552 357 567 q 331 531 333 538 q 328 513 329 525 l 40 513 l 40 515 q 46 580 40 551 q 78 646 51 608 q 149 708 104 683 q 280 751 193 733 q 486 768 367 768 l 563 768 q 776 753 688 768 q 913 715 865 738 q 986 658 960 693 q 1018 594 1013 622 q 1024 526 1024 567 l 1024 240 q 1063 203 1024 203 l 1103 203 l 1103 0 l 851 0 q 733 103 750 0 m 378 819 l 503 1033 l 822 1033 l 674 819 l 378 819 z "},"â":{"ha":1111,"x_min":22,"x_max":1103,"o":"m 725 332 l 725 356 l 429 310 q 342 285 367 300 q 317 240 317 271 l 317 239 q 349 179 317 204 q 453 154 381 154 q 649 208 572 154 q 725 332 725 263 m 733 103 q 615 23 699 60 q 388 -14 532 -14 l 369 -14 q 108 56 193 -14 q 22 231 22 125 l 22 240 q 95 396 22 343 q 336 464 168 449 l 678 496 q 725 535 725 501 q 716 564 725 553 q 661 585 707 575 q 531 596 615 596 l 524 596 q 433 589 471 596 q 376 574 394 582 q 345 552 357 567 q 331 531 333 538 q 328 513 329 525 l 40 513 l 40 515 q 46 580 40 551 q 78 646 51 608 q 149 708 104 683 q 280 751 193 733 q 486 768 367 768 l 563 768 q 776 753 688 768 q 913 715 865 738 q 986 658 960 693 q 1018 594 1013 622 q 1024 526 1024 567 l 1024 240 q 1063 203 1024 203 l 1103 203 l 1103 0 l 851 0 q 733 103 750 0 m 696 1035 l 907 819 l 608 819 l 524 908 l 439 819 l 144 819 l 353 1035 l 696 1035 z "},"ã":{"ha":1111,"x_min":22,"x_max":1103,"o":"m 725 332 l 725 356 l 429 310 q 342 285 367 300 q 317 240 317 271 l 317 239 q 349 179 317 204 q 453 154 381 154 q 649 208 572 154 q 725 332 725 263 m 733 103 q 615 23 699 60 q 388 -14 532 -14 l 369 -14 q 108 56 193 -14 q 22 231 22 125 l 22 240 q 95 396 22 343 q 336 464 168 449 l 678 496 q 725 535 725 501 q 716 564 725 553 q 661 585 707 575 q 531 596 615 596 l 524 596 q 433 589 471 596 q 376 574 394 582 q 345 552 357 567 q 331 531 333 538 q 328 513 329 525 l 40 513 l 40 515 q 46 580 40 551 q 78 646 51 608 q 149 708 104 683 q 280 751 193 733 q 486 768 367 768 l 563 768 q 776 753 688 768 q 913 715 865 738 q 986 658 960 693 q 1018 594 1013 622 q 1024 526 1024 567 l 1024 240 q 1063 203 1024 203 l 1103 203 l 1103 0 l 851 0 q 733 103 750 0 m 697 825 l 689 825 q 517 864 635 825 q 438 885 454 885 q 415 856 415 885 l 415 815 l 215 815 l 215 921 q 245 1015 215 975 q 350 1056 275 1056 l 357 1056 q 410 1051 385 1056 q 454 1040 436 1046 q 529 1017 472 1035 q 608 996 592 996 q 631 1026 631 996 l 631 1067 l 831 1067 l 831 961 q 697 825 831 825 z "},"ä":{"ha":1111,"x_min":22,"x_max":1103,"o":"m 725 332 l 725 356 l 429 310 q 342 285 367 300 q 317 240 317 271 l 317 239 q 349 179 317 204 q 453 154 381 154 q 649 208 572 154 q 725 332 725 263 m 733 103 q 615 23 699 60 q 388 -14 532 -14 l 369 -14 q 108 56 193 -14 q 22 231 22 125 l 22 240 q 95 396 22 343 q 336 464 168 449 l 678 496 q 725 535 725 501 q 716 564 725 553 q 661 585 707 575 q 531 596 615 596 l 524 596 q 433 589 471 596 q 376 574 394 582 q 345 552 357 567 q 331 531 333 538 q 328 513 329 525 l 40 513 l 40 515 q 46 580 40 551 q 78 646 51 608 q 149 708 104 683 q 280 751 193 733 q 486 768 367 768 l 563 768 q 776 753 688 768 q 913 715 865 738 q 986 658 960 693 q 1018 594 1013 622 q 1024 526 1024 567 l 1024 240 q 1063 203 1024 203 l 1103 203 l 1103 0 l 851 0 q 733 103 750 0 m 860 1033 l 860 819 l 560 819 l 560 1033 l 860 1033 m 490 1033 l 490 819 l 192 819 l 192 1033 l 490 1033 z "},"å":{"ha":1111,"x_min":22,"x_max":1103,"o":"m 725 332 l 725 356 l 429 310 q 342 285 367 300 q 317 240 317 271 l 317 239 q 349 179 317 204 q 453 154 381 154 q 649 208 572 154 q 725 332 725 263 m 733 103 q 615 23 699 60 q 388 -14 532 -14 l 369 -14 q 108 56 193 -14 q 22 231 22 125 l 22 240 q 95 396 22 343 q 336 464 168 449 l 678 496 q 725 535 725 501 q 716 564 725 553 q 661 585 707 575 q 531 596 615 596 l 524 596 q 433 589 471 596 q 376 574 394 582 q 345 552 357 567 q 331 531 333 538 q 328 513 329 525 l 40 513 l 40 515 q 46 580 40 551 q 78 646 51 608 q 149 708 104 683 q 280 751 193 733 q 486 768 367 768 l 563 768 q 776 753 688 768 q 913 715 865 738 q 986 658 960 693 q 1018 594 1013 622 q 1024 526 1024 567 l 1024 240 q 1063 203 1024 203 l 1103 203 l 1103 0 l 851 0 q 733 103 750 0 m 261 971 q 526 1132 261 1132 q 786 971 786 1132 q 526 807 786 807 q 261 971 261 807 m 421 971 q 526 906 421 906 q 628 971 628 906 q 526 1033 628 1033 q 421 971 421 1033 z "},"æ":{"ha":1857,"x_min":22,"x_max":1828,"o":"m 1272 594 l 1269 594 q 1022 468 1060 594 l 1519 468 q 1272 594 1490 594 m 451 153 q 642 207 567 153 q 717 332 717 261 l 717 356 l 424 311 q 340 288 364 303 q 315 243 315 272 l 315 242 q 348 179 315 206 q 451 153 381 153 m 1825 264 l 1825 263 q 1816 194 1825 226 q 1775 120 1807 161 q 1691 49 1743 79 q 1542 -1 1639 19 q 1318 -21 1446 -21 l 1236 -21 q 782 147 910 -21 q 743 104 767 126 q 675 53 719 82 q 561 5 631 24 q 410 -14 492 -14 l 392 -14 q 110 55 199 -14 q 22 231 22 124 l 22 240 q 97 397 22 343 q 333 467 171 451 l 685 499 q 717 538 717 503 q 707 565 717 554 q 653 585 697 576 q 525 594 608 594 l 515 594 q 426 588 464 594 q 371 574 389 581 q 342 552 353 567 q 331 532 332 538 q 326 513 329 526 l 40 513 l 40 515 q 45 581 40 553 q 75 647 50 608 q 144 709 100 685 q 275 751 189 733 q 481 768 361 768 l 557 768 q 907 697 818 768 q 1228 768 1011 768 l 1317 768 q 1828 365 1828 768 l 1828 314 l 1017 314 q 1279 168 1044 168 l 1281 168 q 1384 176 1339 168 q 1454 197 1429 185 q 1496 222 1479 208 q 1517 247 1513 236 q 1522 264 1522 257 l 1825 264 z "},"ç":{"ha":1181,"x_min":31,"x_max":1154,"o":"m 628 -21 l 551 -21 q 334 3 429 -21 q 183 66 239 28 q 92 157 128 104 q 43 260 56 210 q 31 364 31 310 l 31 392 q 43 495 31 446 q 91 596 56 544 q 183 684 126 647 q 333 744 239 721 q 550 768 428 768 l 629 768 q 863 743 763 768 q 1016 683 963 718 q 1103 599 1069 647 q 1145 515 1136 551 q 1154 442 1154 478 l 1154 438 l 836 438 q 589 572 804 572 l 585 572 q 403 520 460 572 q 347 388 347 468 l 347 378 q 404 235 347 293 q 585 178 461 178 l 589 178 q 836 315 803 178 l 1154 315 l 1154 313 q 1146 237 1154 274 q 1106 151 1138 200 q 1020 66 1074 101 q 865 5 967 31 q 628 -21 764 -21 m 351 -358 l 351 -233 l 499 -233 q 554 -203 554 -233 q 499 -171 554 -171 l 400 -171 l 400 0 l 576 0 l 576 -69 q 776 -104 722 -69 q 829 -210 829 -139 l 829 -214 q 774 -319 829 -281 q 575 -358 719 -358 l 351 -358 z "},"è":{"ha":1182,"x_min":31,"x_max":1153,"o":"m 590 594 l 589 594 q 340 468 378 594 l 840 468 q 590 594 807 594 m 1149 264 l 1149 263 q 1139 194 1149 228 q 1096 119 1129 160 q 1010 49 1063 79 q 860 -1 957 19 q 636 -21 764 -21 l 557 -21 q 307 10 413 -21 q 143 97 201 42 q 58 218 85 153 q 31 361 31 283 l 31 392 q 56 532 31 468 q 137 651 81 596 q 298 737 193 706 q 549 768 403 768 l 633 768 q 1153 365 1153 768 l 1153 314 l 335 314 q 599 168 365 168 l 600 168 q 703 176 658 168 q 774 197 749 185 q 815 223 799 208 q 836 247 831 238 q 843 264 842 256 l 1149 264 m 736 819 l 438 819 l 289 1033 l 611 1033 l 736 819 z "},"é":{"ha":1182,"x_min":31,"x_max":1153,"o":"m 590 594 l 589 594 q 340 468 378 594 l 840 468 q 590 594 807 594 m 1149 264 l 1149 263 q 1139 194 1149 228 q 1096 119 1129 160 q 1010 49 1063 79 q 860 -1 957 19 q 636 -21 764 -21 l 557 -21 q 307 10 413 -21 q 143 97 201 42 q 58 218 85 153 q 31 361 31 283 l 31 392 q 56 532 31 468 q 137 651 81 596 q 298 737 193 706 q 549 768 403 768 l 633 768 q 1153 365 1153 768 l 1153 314 l 335 314 q 599 168 365 168 l 600 168 q 703 176 658 168 q 774 197 749 185 q 815 223 799 208 q 836 247 831 238 q 843 264 842 256 l 1149 264 m 444 819 l 569 1033 l 889 1033 l 740 819 l 444 819 z "},"ê":{"ha":1182,"x_min":31,"x_max":1153,"o":"m 590 594 l 589 594 q 340 468 378 594 l 840 468 q 590 594 807 594 m 1149 264 l 1149 263 q 1139 194 1149 228 q 1096 119 1129 160 q 1010 49 1063 79 q 860 -1 957 19 q 636 -21 764 -21 l 557 -21 q 307 10 413 -21 q 143 97 201 42 q 58 218 85 153 q 31 361 31 283 l 31 392 q 56 532 31 468 q 137 651 81 596 q 298 737 193 706 q 549 768 403 768 l 633 768 q 1153 365 1153 768 l 1153 314 l 335 314 q 599 168 365 168 l 600 168 q 703 176 658 168 q 774 197 749 185 q 815 223 799 208 q 836 247 831 238 q 843 264 842 256 l 1149 264 m 763 1035 l 974 819 l 675 819 l 590 908 l 506 819 l 211 819 l 419 1035 l 763 1035 z "},"ë":{"ha":1182,"x_min":31,"x_max":1153,"o":"m 590 594 l 589 594 q 340 468 378 594 l 840 468 q 590 594 807 594 m 1149 264 l 1149 263 q 1139 194 1149 228 q 1096 119 1129 160 q 1010 49 1063 79 q 860 -1 957 19 q 636 -21 764 -21 l 557 -21 q 307 10 413 -21 q 143 97 201 42 q 58 218 85 153 q 31 361 31 283 l 31 392 q 56 532 31 468 q 137 651 81 596 q 298 737 193 706 q 549 768 403 768 l 633 768 q 1153 365 1153 768 l 1153 314 l 335 314 q 599 168 365 168 l 600 168 q 703 176 658 168 q 774 197 749 185 q 815 223 799 208 q 836 247 831 238 q 843 264 842 256 l 1149 264 m 926 1033 l 926 819 l 626 819 l 626 1033 l 926 1033 m 557 1033 l 557 819 l 258 819 l 258 1033 l 557 1033 z "},"ì":{"ha":440,"x_min":-79,"x_max":375,"o":"m 375 747 l 375 0 l 65 0 l 65 747 l 375 747 m 368 819 l 69 819 l -79 1033 l 243 1033 l 368 819 z "},"í":{"ha":440,"x_min":65,"x_max":519,"o":"m 375 747 l 375 0 l 65 0 l 65 747 l 375 747 m 75 819 l 200 1033 l 519 1033 l 371 819 l 75 819 z "},"î":{"ha":440,"x_min":-86,"x_max":526,"o":"m 376 1033 l 526 819 l 281 819 l 218 908 l 156 819 l -86 819 l 61 1033 l 376 1033 m 375 747 l 375 0 l 65 0 l 65 747 l 375 747 z "},"ï":{"ha":440,"x_min":-51,"x_max":492,"o":"m 492 1033 l 492 819 l 249 819 l 249 1033 l 492 1033 m 190 1033 l 190 819 l -51 819 l -51 1033 l 190 1033 m 375 747 l 375 0 l 65 0 l 65 747 l 375 747 z "},"ð":{"ha":1231,"x_min":31,"x_max":1200,"o":"m 649 -21 l 574 -21 q 309 13 421 -21 q 140 102 197 46 q 56 219 82 158 q 31 351 31 281 l 31 385 q 135 647 31 546 q 468 749 239 749 l 492 749 q 801 669 661 749 l 601 817 l 224 774 l 224 899 l 451 924 l 301 1033 l 688 1033 l 788 963 l 1076 994 l 1076 869 l 939 854 q 1139 650 1078 754 q 1200 419 1200 546 l 1200 392 q 1197 317 1200 350 q 1181 238 1193 283 q 1146 159 1168 193 q 1082 90 1124 125 q 984 31 1040 54 q 842 -6 928 8 q 649 -21 756 -21 m 614 181 q 822 235 760 181 q 885 369 885 289 l 885 376 q 822 510 885 457 q 615 564 760 564 l 614 564 q 406 511 468 564 q 344 376 344 458 l 344 369 q 407 235 344 289 q 614 181 469 181 z "},"ñ":{"ha":1179,"x_min":56,"x_max":1107,"o":"m 56 0 l 56 747 l 363 747 l 363 619 q 733 764 507 764 l 743 764 q 1016 678 925 764 q 1107 472 1107 593 l 1107 0 l 794 0 l 794 369 q 744 507 794 458 q 594 556 694 556 q 428 500 490 556 q 365 353 365 444 l 365 0 l 56 0 m 754 825 l 746 825 q 574 864 692 825 q 494 885 511 885 q 472 856 472 885 l 472 815 l 272 815 l 272 921 q 302 1015 272 975 q 407 1056 332 1056 l 414 1056 q 467 1051 442 1056 q 511 1040 493 1046 q 586 1017 529 1035 q 665 996 649 996 q 688 1026 688 996 l 688 1067 l 888 1067 l 888 961 q 754 825 888 825 z "},"ò":{"ha":1231,"x_min":31,"x_max":1200,"o":"m 665 -21 l 568 -21 q 347 3 443 -21 q 192 65 250 28 q 96 156 133 103 q 44 259 58 208 q 31 365 31 310 l 31 390 q 44 496 31 446 q 95 597 58 546 q 190 685 132 649 q 345 745 249 722 q 567 768 442 768 l 665 768 q 1200 390 1200 768 l 1200 365 q 665 -21 1200 -21 m 410 238 q 441 209 410 238 q 617 181 472 181 q 824 238 761 181 q 886 374 886 294 l 886 381 q 824 515 886 461 q 618 569 761 569 l 617 569 q 409 516 471 569 q 347 381 347 463 l 347 374 q 410 238 347 294 m 765 819 l 467 819 l 318 1033 l 640 1033 l 765 819 z "},"ó":{"ha":1231,"x_min":31,"x_max":1200,"o":"m 665 -21 l 568 -21 q 347 3 443 -21 q 192 65 250 28 q 96 156 133 103 q 44 259 58 208 q 31 365 31 310 l 31 390 q 44 496 31 446 q 95 597 58 546 q 190 685 132 649 q 345 745 249 722 q 567 768 442 768 l 665 768 q 1200 390 1200 768 l 1200 365 q 665 -21 1200 -21 m 410 238 q 441 209 410 238 q 617 181 472 181 q 824 238 761 181 q 886 374 886 294 l 886 381 q 824 515 886 461 q 618 569 761 569 l 617 569 q 409 516 471 569 q 347 381 347 463 l 347 374 q 410 238 347 294 m 468 819 l 593 1033 l 913 1033 l 764 819 l 468 819 z "},"ô":{"ha":1231,"x_min":31,"x_max":1200,"o":"m 665 -21 l 568 -21 q 347 3 443 -21 q 192 65 250 28 q 96 156 133 103 q 44 259 58 208 q 31 365 31 310 l 31 390 q 44 496 31 446 q 95 597 58 546 q 190 685 132 649 q 345 745 249 722 q 567 768 442 768 l 665 768 q 1200 390 1200 768 l 1200 365 q 665 -21 1200 -21 m 410 238 q 441 209 410 238 q 617 181 472 181 q 824 238 761 181 q 886 374 886 294 l 886 381 q 824 515 886 461 q 618 569 761 569 l 617 569 q 409 516 471 569 q 347 381 347 463 l 347 374 q 410 238 347 294 m 786 1035 l 997 819 l 699 819 l 614 908 l 529 819 l 235 819 l 443 1035 l 786 1035 z "},"õ":{"ha":1231,"x_min":31,"x_max":1200,"o":"m 665 -21 l 568 -21 q 347 3 443 -21 q 192 65 250 28 q 96 156 133 103 q 44 259 58 208 q 31 365 31 310 l 31 390 q 44 496 31 446 q 95 597 58 546 q 190 685 132 649 q 345 745 249 722 q 567 768 442 768 l 665 768 q 1200 390 1200 768 l 1200 365 q 665 -21 1200 -21 m 410 238 q 441 209 410 238 q 617 181 472 181 q 824 238 761 181 q 886 374 886 294 l 886 381 q 824 515 886 461 q 618 569 761 569 l 617 569 q 409 516 471 569 q 347 381 347 463 l 347 374 q 410 238 347 294 m 789 825 l 781 825 q 608 864 726 825 q 529 885 546 885 q 507 856 507 885 l 507 815 l 307 815 l 307 921 q 337 1015 307 975 q 442 1056 367 1056 l 449 1056 q 502 1051 476 1056 q 546 1040 528 1046 q 621 1017 564 1035 q 700 996 683 996 q 722 1026 722 996 l 722 1067 l 922 1067 l 922 961 q 789 825 922 825 z "},"ö":{"ha":1231,"x_min":31,"x_max":1200,"o":"m 665 -21 l 568 -21 q 347 3 443 -21 q 192 65 250 28 q 96 156 133 103 q 44 259 58 208 q 31 365 31 310 l 31 390 q 44 496 31 446 q 95 597 58 546 q 190 685 132 649 q 345 745 249 722 q 567 768 442 768 l 665 768 q 1200 390 1200 768 l 1200 365 q 665 -21 1200 -21 m 410 238 q 441 209 410 238 q 617 181 472 181 q 824 238 761 181 q 886 374 886 294 l 886 381 q 824 515 886 461 q 618 569 761 569 l 617 569 q 409 516 471 569 q 347 381 347 463 l 347 374 q 410 238 347 294 m 950 1033 l 950 819 l 650 819 l 650 1033 l 950 1033 m 581 1033 l 581 819 l 282 819 l 282 1033 l 581 1033 z "},"÷":{"ha":867,"x_min":53,"x_max":814,"o":"m 567 813 l 567 601 l 300 601 l 300 813 l 567 813 m 53 524 l 814 524 l 814 332 l 53 332 l 53 524 m 567 253 l 567 42 l 300 42 l 300 253 l 567 253 z "},"ø":{"ha":1231,"x_min":-25,"x_max":1257,"o":"m 665 -21 l 568 -21 q 265 38 385 -21 l 213 0 l -25 0 l 140 119 q 31 365 31 219 l 31 390 q 44 496 31 446 q 95 597 58 546 q 190 685 132 649 q 345 745 249 722 q 567 768 442 768 l 664 768 q 967 713 838 768 l 1017 747 l 1257 747 l 1093 631 q 1200 390 1200 536 l 1200 365 q 665 -21 1200 -21 m 342 381 l 342 374 q 367 279 342 319 l 751 553 q 618 569 697 569 l 617 569 q 405 516 468 569 q 342 381 342 463 m 617 181 q 827 238 764 181 q 890 374 890 294 l 890 381 q 869 468 890 432 l 490 196 q 617 181 547 181 z "},"ù":{"ha":1164,"x_min":63,"x_max":1099,"o":"m 1099 747 l 1099 0 l 792 0 l 792 129 q 760 99 768 107 q 712 64 751 92 q 638 23 672 36 q 547 -3 604 10 q 429 -17 490 -17 l 418 -17 q 151 73 240 -17 q 63 282 63 163 l 63 747 l 375 747 l 375 378 q 423 242 375 292 q 567 192 471 192 q 728 247 668 192 q 789 394 789 303 l 789 747 l 1099 747 m 733 819 l 435 819 l 286 1033 l 608 1033 l 733 819 z "},"ú":{"ha":1164,"x_min":63,"x_max":1099,"o":"m 1099 747 l 1099 0 l 792 0 l 792 129 q 760 99 768 107 q 712 64 751 92 q 638 23 672 36 q 547 -3 604 10 q 429 -17 490 -17 l 418 -17 q 151 73 240 -17 q 63 282 63 163 l 63 747 l 375 747 l 375 378 q 423 242 375 292 q 567 192 471 192 q 728 247 668 192 q 789 394 789 303 l 789 747 l 1099 747 m 426 819 l 551 1033 l 871 1033 l 722 819 l 426 819 z "},"û":{"ha":1164,"x_min":63,"x_max":1099,"o":"m 1099 747 l 1099 0 l 792 0 l 792 129 q 760 99 768 107 q 712 64 751 92 q 638 23 672 36 q 547 -3 604 10 q 429 -17 490 -17 l 418 -17 q 151 73 240 -17 q 63 282 63 163 l 63 747 l 375 747 l 375 378 q 423 242 375 292 q 567 192 471 192 q 728 247 668 192 q 789 394 789 303 l 789 747 l 1099 747 m 751 1035 l 963 819 l 664 819 l 579 908 l 494 819 l 200 819 l 408 1035 l 751 1035 z "},"ü":{"ha":1164,"x_min":63,"x_max":1099,"o":"m 1099 747 l 1099 0 l 792 0 l 792 129 q 760 99 768 107 q 712 64 751 92 q 638 23 672 36 q 547 -3 604 10 q 429 -17 490 -17 l 418 -17 q 151 73 240 -17 q 63 282 63 163 l 63 747 l 375 747 l 375 378 q 423 242 375 292 q 567 192 471 192 q 728 247 668 192 q 789 394 789 303 l 789 747 l 1099 747 m 915 1033 l 915 819 l 615 819 l 615 1033 l 915 1033 m 546 1033 l 546 819 l 247 819 l 247 1033 l 546 1033 z "},"ý":{"ha":1088,"x_min":-15,"x_max":1103,"o":"m 165 -261 l 165 -39 l 340 -39 q 376 -15 376 -39 q 342 64 376 -3 l -15 747 l 318 747 l 558 242 l 792 747 l 1103 747 l 711 -50 q 594 -211 656 -161 q 436 -261 533 -261 l 165 -261 m 393 819 l 518 1033 l 838 1033 l 689 819 l 393 819 z "},"þ":{"ha":1261,"x_min":65,"x_max":1231,"o":"m 375 379 l 375 374 q 447 238 375 296 q 651 179 519 179 l 658 179 q 854 236 794 179 q 914 374 914 293 l 914 379 q 855 517 914 463 q 658 572 796 572 l 651 572 q 445 515 515 572 q 375 379 375 458 m 65 1033 l 375 1033 l 375 640 q 754 765 518 765 l 779 765 q 992 736 903 765 q 1133 654 1082 707 q 1207 536 1183 601 q 1231 390 1231 471 l 1231 364 q 1206 220 1231 286 q 1131 99 1182 154 q 988 13 1079 44 q 774 -18 896 -18 l 751 -18 q 508 24 606 -18 q 375 106 410 67 l 375 -261 l 65 -261 l 65 1033 z "},"ÿ":{"ha":1088,"x_min":-15,"x_max":1103,"o":"m 165 -261 l 165 -39 l 340 -39 q 376 -15 376 -39 q 342 64 376 -3 l -15 747 l 318 747 l 558 242 l 792 747 l 1103 747 l 711 -50 q 594 -211 656 -161 q 436 -261 533 -261 l 165 -261 m 892 1033 l 892 819 l 592 819 l 592 1033 l 892 1033 m 522 1033 l 522 819 l 224 819 l 224 1033 l 522 1033 z "},"Ā":{"ha":1450,"x_min":-22,"x_max":1472,"o":"m 907 422 l 707 810 l 515 422 l 907 422 m 1124 0 l 1026 189 l 400 189 l 307 0 l -22 0 l 500 1033 l 919 1033 l 1472 0 l 1124 0 m 404 1117 l 404 1292 l 1017 1292 l 1017 1117 l 404 1117 z "},"ā":{"ha":1111,"x_min":22,"x_max":1103,"o":"m 725 332 l 725 356 l 429 310 q 342 285 367 300 q 317 240 317 271 l 317 239 q 349 179 317 204 q 453 154 381 154 q 649 208 572 154 q 725 332 725 263 m 733 103 q 615 23 699 60 q 388 -14 532 -14 l 369 -14 q 108 56 193 -14 q 22 231 22 125 l 22 240 q 95 396 22 343 q 336 464 168 449 l 678 496 q 725 535 725 501 q 716 564 725 553 q 661 585 707 575 q 531 596 615 596 l 524 596 q 433 589 471 596 q 376 574 394 582 q 345 552 357 567 q 331 531 333 538 q 328 513 329 525 l 40 513 l 40 515 q 46 580 40 551 q 78 646 51 608 q 149 708 104 683 q 280 751 193 733 q 486 768 367 768 l 563 768 q 776 753 688 768 q 913 715 865 738 q 986 658 960 693 q 1018 594 1013 622 q 1024 526 1024 567 l 1024 240 q 1063 203 1024 203 l 1103 203 l 1103 0 l 851 0 q 733 103 750 0 m 232 835 l 232 1004 l 818 1004 l 818 835 l 232 835 z "},"Ă":{"ha":1450,"x_min":-22,"x_max":1472,"o":"m 907 422 l 707 810 l 515 422 l 907 422 m 1124 0 l 1026 189 l 400 189 l 307 0 l -22 0 l 500 1033 l 919 1033 l 1472 0 l 1124 0 m 736 1093 l 689 1093 q 561 1110 617 1093 q 474 1151 506 1126 q 422 1209 442 1176 q 394 1268 401 1242 q 388 1318 388 1294 l 388 1321 l 626 1321 q 632 1295 626 1308 q 658 1268 638 1282 q 714 1254 679 1254 q 781 1276 761 1254 q 800 1321 800 1299 l 1033 1321 l 1033 1318 q 1019 1253 1033 1289 q 972 1181 1004 1218 q 878 1118 940 1143 q 736 1093 817 1093 z "},"ă":{"ha":1111,"x_min":22,"x_max":1103,"o":"m 553 808 l 508 808 q 356 832 419 808 q 263 894 293 856 q 222 965 233 932 q 210 1031 210 999 l 210 1033 l 446 1033 q 465 989 446 1013 q 532 965 485 965 q 597 989 578 965 q 617 1033 617 1013 l 847 1033 l 847 1031 q 833 965 847 1000 q 787 894 818 931 q 694 833 756 857 q 553 808 633 808 m 725 332 l 725 356 l 429 310 q 342 285 367 300 q 317 240 317 271 l 317 239 q 349 179 317 204 q 453 154 381 154 q 649 208 572 154 q 725 332 725 263 m 733 103 q 615 23 699 60 q 388 -14 532 -14 l 369 -14 q 108 56 193 -14 q 22 231 22 125 l 22 240 q 95 396 22 343 q 336 464 168 449 l 678 496 q 725 535 725 501 q 716 564 725 553 q 661 585 707 575 q 531 596 615 596 l 524 596 q 433 589 471 596 q 376 574 394 582 q 345 552 357 567 q 331 531 333 538 q 328 513 329 525 l 40 513 l 40 515 q 46 580 40 551 q 78 646 51 608 q 149 708 104 683 q 280 751 193 733 q 486 768 367 768 l 563 768 q 776 753 688 768 q 913 715 865 738 q 986 658 960 693 q 1018 594 1013 622 q 1024 526 1024 567 l 1024 240 q 1063 203 1024 203 l 1103 203 l 1103 0 l 851 0 q 733 103 750 0 z "},"Ą":{"ha":1450,"x_min":-22,"x_max":1472,"o":"m 907 422 l 707 810 l 515 422 l 907 422 m 1124 0 l 1026 189 l 400 189 l 307 0 l -22 0 l 500 1033 l 919 1033 l 1472 0 l 1124 0 m 1472 -261 l 1285 -261 q 1104 -162 1104 -261 l 1104 -160 q 1162 -71 1104 -107 q 1339 0 1219 -35 l 1472 0 q 1390 -87 1390 -56 q 1443 -119 1390 -119 l 1472 -119 l 1472 -261 z "},"ą":{"ha":1111,"x_min":22,"x_max":1103,"o":"m 725 332 l 725 356 l 429 310 q 342 285 367 300 q 317 240 317 271 l 317 239 q 349 179 317 204 q 453 154 381 154 q 649 208 572 154 q 725 332 725 263 m 733 103 q 615 23 699 60 q 388 -14 532 -14 l 369 -14 q 108 56 193 -14 q 22 231 22 125 l 22 240 q 95 396 22 343 q 336 464 168 449 l 678 496 q 725 535 725 501 q 716 564 725 553 q 661 585 707 575 q 531 596 615 596 l 524 596 q 433 589 471 596 q 376 574 394 582 q 345 552 357 567 q 331 531 333 538 q 328 513 329 525 l 40 513 l 40 515 q 46 580 40 551 q 78 646 51 608 q 149 708 104 683 q 280 751 193 733 q 486 768 367 768 l 563 768 q 776 753 688 768 q 913 715 865 738 q 986 658 960 693 q 1018 594 1013 622 q 1024 526 1024 567 l 1024 240 q 1063 203 1024 203 l 1103 203 l 1103 0 l 851 0 q 733 103 750 0 m 1103 -261 l 915 -261 q 735 -162 735 -261 l 735 -160 q 792 -71 735 -107 q 969 0 850 -35 l 1103 0 q 1021 -87 1021 -56 q 1074 -119 1021 -119 l 1103 -119 l 1103 -261 z "},"Ć":{"ha":1513,"x_min":38,"x_max":1479,"o":"m 607 1106 l 732 1314 l 1065 1314 l 919 1106 l 607 1106 m 786 -18 l 729 -18 q 503 1 606 -18 q 330 52 400 21 q 206 128 260 83 q 121 219 151 174 q 70 318 90 265 q 44 414 50 371 q 38 500 38 457 l 38 540 q 50 667 38 607 q 106 800 63 726 q 221 926 150 874 q 423 1015 292 979 q 729 1051 554 1051 l 786 1051 q 1088 1020 957 1051 q 1290 944 1218 989 q 1406 840 1361 899 q 1465 734 1451 781 q 1478 644 1478 688 l 1478 629 l 1135 629 q 1124 659 1131 646 q 1092 701 1118 672 q 1030 750 1067 731 q 922 785 993 769 q 757 801 850 801 q 567 778 646 801 q 449 715 489 756 q 393 631 410 675 q 376 533 376 586 l 376 517 q 395 420 376 467 q 454 330 414 374 q 574 260 494 286 q 760 233 653 233 q 1135 413 1078 233 q 1136 417 1136 415 l 1479 417 l 1479 401 q 1465 307 1479 356 q 1404 198 1450 258 q 1286 92 1358 138 q 1084 14 1214 46 q 786 -18 954 -18 z "},"ć":{"ha":1181,"x_min":31,"x_max":1154,"o":"m 444 819 l 569 1033 l 889 1033 l 740 819 l 444 819 m 628 -21 l 551 -21 q 334 3 429 -21 q 183 66 239 28 q 92 157 128 104 q 43 260 56 210 q 31 364 31 310 l 31 392 q 43 495 31 446 q 91 596 56 544 q 183 684 126 647 q 333 744 239 721 q 550 768 428 768 l 629 768 q 863 743 763 768 q 1016 683 963 718 q 1103 599 1069 647 q 1145 515 1136 551 q 1154 442 1154 478 l 1154 438 l 836 438 q 589 572 804 572 l 585 572 q 403 520 460 572 q 347 388 347 468 l 347 378 q 404 235 347 293 q 585 178 461 178 l 589 178 q 836 315 803 178 l 1154 315 l 1154 313 q 1146 237 1154 274 q 1106 151 1138 200 q 1020 66 1074 101 q 865 5 967 31 q 628 -21 764 -21 z "},"Ĉ":{"ha":1513,"x_min":38,"x_max":1479,"o":"m 931 1314 l 1153 1106 l 847 1106 l 756 1186 l 665 1106 l 364 1106 l 582 1314 l 931 1314 m 786 -18 l 729 -18 q 503 1 606 -18 q 330 52 400 21 q 206 128 260 83 q 121 219 151 174 q 70 318 90 265 q 44 414 50 371 q 38 500 38 457 l 38 540 q 50 667 38 607 q 106 800 63 726 q 221 926 150 874 q 423 1015 292 979 q 729 1051 554 1051 l 786 1051 q 1088 1020 957 1051 q 1290 944 1218 989 q 1406 840 1361 899 q 1465 734 1451 781 q 1478 644 1478 688 l 1478 629 l 1135 629 q 1124 659 1131 646 q 1092 701 1118 672 q 1030 750 1067 731 q 922 785 993 769 q 757 801 850 801 q 567 778 646 801 q 449 715 489 756 q 393 631 410 675 q 376 533 376 586 l 376 517 q 395 420 376 467 q 454 330 414 374 q 574 260 494 286 q 760 233 653 233 q 1135 413 1078 233 q 1136 417 1136 415 l 1479 417 l 1479 401 q 1465 307 1479 356 q 1404 198 1450 258 q 1286 92 1358 138 q 1084 14 1214 46 q 786 -18 954 -18 z "},"ĉ":{"ha":1181,"x_min":31,"x_max":1154,"o":"m 763 1033 l 974 818 l 675 818 l 590 907 l 506 818 l 211 818 l 419 1033 l 763 1033 m 628 -21 l 551 -21 q 334 3 429 -21 q 183 66 239 28 q 92 157 128 104 q 43 260 56 210 q 31 364 31 310 l 31 392 q 43 495 31 446 q 91 596 56 544 q 183 684 126 647 q 333 744 239 721 q 550 768 428 768 l 629 768 q 863 743 763 768 q 1016 683 963 718 q 1103 599 1069 647 q 1145 515 1136 551 q 1154 442 1154 478 l 1154 438 l 836 438 q 589 572 804 572 l 585 572 q 403 520 460 572 q 347 388 347 468 l 347 378 q 404 235 347 293 q 585 178 461 178 l 589 178 q 836 315 803 178 l 1154 315 l 1154 313 q 1146 237 1154 274 q 1106 151 1138 200 q 1020 66 1074 101 q 865 5 967 31 q 628 -21 764 -21 z "},"Ċ":{"ha":1513,"x_min":38,"x_max":1479,"o":"m 914 1319 l 914 1106 l 604 1106 l 604 1319 l 914 1319 m 786 -18 l 729 -18 q 503 1 606 -18 q 330 52 400 21 q 206 128 260 83 q 121 219 151 174 q 70 318 90 265 q 44 414 50 371 q 38 500 38 457 l 38 540 q 50 667 38 607 q 106 800 63 726 q 221 926 150 874 q 423 1015 292 979 q 729 1051 554 1051 l 786 1051 q 1088 1020 957 1051 q 1290 944 1218 989 q 1406 840 1361 899 q 1465 734 1451 781 q 1478 644 1478 688 l 1478 629 l 1135 629 q 1124 659 1131 646 q 1092 701 1118 672 q 1030 750 1067 731 q 922 785 993 769 q 757 801 850 801 q 567 778 646 801 q 449 715 489 756 q 393 631 410 675 q 376 533 376 586 l 376 517 q 395 420 376 467 q 454 330 414 374 q 574 260 494 286 q 760 233 653 233 q 1135 413 1078 233 q 1136 417 1136 415 l 1479 417 l 1479 401 q 1465 307 1479 356 q 1404 198 1450 258 q 1286 92 1358 138 q 1084 14 1214 46 q 786 -18 954 -18 z "},"ċ":{"ha":1181,"x_min":31,"x_max":1154,"o":"m 747 1033 l 747 819 l 438 819 l 438 1033 l 747 1033 m 628 -21 l 551 -21 q 334 3 429 -21 q 183 66 239 28 q 92 157 128 104 q 43 260 56 210 q 31 364 31 310 l 31 392 q 43 495 31 446 q 91 596 56 544 q 183 684 126 647 q 333 744 239 721 q 550 768 428 768 l 629 768 q 863 743 763 768 q 1016 683 963 718 q 1103 599 1069 647 q 1145 515 1136 551 q 1154 442 1154 478 l 1154 438 l 836 438 q 589 572 804 572 l 585 572 q 403 520 460 572 q 347 388 347 468 l 347 378 q 404 235 347 293 q 585 178 461 178 l 589 178 q 836 315 803 178 l 1154 315 l 1154 313 q 1146 237 1154 274 q 1106 151 1138 200 q 1020 66 1074 101 q 865 5 967 31 q 628 -21 764 -21 z "},"Č":{"ha":1513,"x_min":38,"x_max":1479,"o":"m 586 1106 l 364 1314 l 669 1314 l 761 1233 l 851 1314 l 1153 1314 l 935 1106 l 586 1106 m 786 -18 l 729 -18 q 503 1 606 -18 q 330 52 400 21 q 206 128 260 83 q 121 219 151 174 q 70 318 90 265 q 44 414 50 371 q 38 500 38 457 l 38 540 q 50 667 38 607 q 106 800 63 726 q 221 926 150 874 q 423 1015 292 979 q 729 1051 554 1051 l 786 1051 q 1088 1020 957 1051 q 1290 944 1218 989 q 1406 840 1361 899 q 1465 734 1451 781 q 1478 644 1478 688 l 1478 629 l 1135 629 q 1124 659 1131 646 q 1092 701 1118 672 q 1030 750 1067 731 q 922 785 993 769 q 757 801 850 801 q 567 778 646 801 q 449 715 489 756 q 393 631 410 675 q 376 533 376 586 l 376 517 q 395 420 376 467 q 454 330 414 374 q 574 260 494 286 q 760 233 653 233 q 1135 413 1078 233 q 1136 417 1136 415 l 1479 417 l 1479 401 q 1465 307 1479 356 q 1404 198 1450 258 q 1286 92 1358 138 q 1084 14 1214 46 q 786 -18 954 -18 z "},"č":{"ha":1181,"x_min":31,"x_max":1154,"o":"m 422 819 l 211 1033 l 510 1033 l 594 946 l 679 1033 l 974 1033 l 765 819 l 422 819 m 628 -21 l 551 -21 q 334 3 429 -21 q 183 66 239 28 q 92 157 128 104 q 43 260 56 210 q 31 364 31 310 l 31 392 q 43 495 31 446 q 91 596 56 544 q 183 684 126 647 q 333 744 239 721 q 550 768 428 768 l 629 768 q 863 743 763 768 q 1016 683 963 718 q 1103 599 1069 647 q 1145 515 1136 551 q 1154 442 1154 478 l 1154 438 l 836 438 q 589 572 804 572 l 585 572 q 403 520 460 572 q 347 388 347 468 l 347 378 q 404 235 347 293 q 585 178 461 178 l 589 178 q 836 315 803 178 l 1154 315 l 1154 313 q 1146 237 1154 274 q 1106 151 1138 200 q 1020 66 1074 101 q 865 5 967 31 q 628 -21 764 -21 z "},"Ď":{"ha":1525,"x_min":79,"x_max":1493,"o":"m 79 0 l 79 1033 l 764 1033 q 1025 1014 908 1033 q 1219 958 1142 994 q 1353 876 1297 921 q 1438 774 1408 831 q 1480 662 1467 717 q 1493 544 1493 607 l 1493 503 q 1476 365 1493 429 q 1410 231 1460 300 q 1283 113 1361 161 q 1072 32 1206 64 q 765 0 939 0 l 79 0 m 403 789 l 403 249 l 739 249 q 1154 515 1154 249 l 1154 524 q 739 789 1154 789 l 403 789 m 476 1106 l 254 1314 l 560 1314 l 651 1233 l 742 1314 l 1043 1314 l 825 1106 l 476 1106 z "},"ď":{"ha":1263,"x_min":31,"x_max":1510,"o":"m 886 372 l 886 378 q 810 513 886 456 q 603 569 733 569 l 596 569 q 404 515 461 569 q 347 378 347 461 l 347 372 q 410 237 347 294 q 599 179 472 179 l 606 179 q 811 237 736 179 q 886 372 886 294 m 886 1033 l 1197 1033 l 1197 0 l 889 0 l 889 114 q 854 80 878 99 q 788 38 831 61 q 674 -2 744 14 q 519 -18 603 -18 l 501 -18 q 148 90 265 -18 q 31 367 31 197 l 31 393 q 142 661 31 557 q 489 765 253 765 l 511 765 q 886 647 751 765 l 886 1033 m 1240 803 l 1261 1033 l 1510 1033 l 1468 803 l 1240 803 z "},"Đ":{"ha":1533,"x_min":1,"x_max":1501,"o":"m 88 0 l 88 417 l 1 417 l 1 624 l 88 624 l 88 1033 l 772 1033 q 1033 1014 917 1033 q 1228 958 1150 994 q 1361 876 1306 921 q 1446 774 1417 831 q 1488 662 1475 717 q 1501 544 1501 607 l 1501 503 q 1485 365 1501 429 q 1419 231 1468 300 q 1292 113 1369 161 q 1081 32 1214 64 q 774 0 947 0 l 88 0 m 411 789 l 411 624 l 871 624 l 871 417 l 411 417 l 411 249 l 747 249 q 1163 515 1163 249 l 1163 524 q 747 789 1163 789 l 411 789 z "},"đ":{"ha":1263,"x_min":31,"x_max":1304,"o":"m 489 821 l 489 964 l 1304 964 l 1304 821 l 489 821 m 886 372 l 886 378 q 810 513 886 456 q 603 569 733 569 l 596 569 q 404 515 461 569 q 347 378 347 461 l 347 372 q 410 237 347 294 q 599 179 472 179 l 606 179 q 811 237 736 179 q 886 372 886 294 m 886 1033 l 1197 1033 l 1197 0 l 889 0 l 889 114 q 854 80 878 99 q 788 38 831 61 q 674 -2 744 14 q 519 -18 603 -18 l 501 -18 q 148 90 265 -18 q 31 367 31 197 l 31 393 q 142 661 31 557 q 489 765 253 765 l 511 765 q 886 647 751 765 l 886 1033 z "},"Ē":{"ha":1238,"x_min":79,"x_max":1182,"o":"m 79 1033 l 1168 1033 l 1168 799 l 399 799 l 399 646 l 1150 646 l 1150 410 l 399 410 l 399 240 l 1182 240 l 1182 0 l 79 0 l 79 1033 m 331 1117 l 331 1292 l 943 1292 l 943 1117 l 331 1117 z "},"ē":{"ha":1182,"x_min":31,"x_max":1153,"o":"m 590 594 l 589 594 q 340 468 378 594 l 840 468 q 590 594 807 594 m 1149 264 l 1149 263 q 1139 194 1149 228 q 1096 119 1129 160 q 1010 49 1063 79 q 860 -1 957 19 q 636 -21 764 -21 l 557 -21 q 307 10 413 -21 q 143 97 201 42 q 58 218 85 153 q 31 361 31 283 l 31 392 q 56 532 31 468 q 137 651 81 596 q 298 737 193 706 q 549 768 403 768 l 633 768 q 1153 365 1153 768 l 1153 314 l 335 314 q 599 168 365 168 l 600 168 q 703 176 658 168 q 774 197 749 185 q 815 223 799 208 q 836 247 831 238 q 843 264 842 256 l 1149 264 m 299 835 l 299 1004 l 885 1004 l 885 835 l 299 835 z "},"Ĕ":{"ha":1238,"x_min":79,"x_max":1182,"o":"m 79 1033 l 1168 1033 l 1168 799 l 399 799 l 399 646 l 1150 646 l 1150 410 l 399 410 l 399 240 l 1182 240 l 1182 0 l 79 0 l 79 1033 m 664 1093 l 617 1093 q 489 1110 544 1093 q 401 1151 433 1126 q 349 1209 369 1176 q 322 1268 329 1242 q 315 1318 315 1294 l 315 1321 l 554 1321 q 560 1295 554 1308 q 586 1268 565 1282 q 642 1254 607 1254 q 708 1276 689 1254 q 728 1321 728 1299 l 961 1321 l 961 1318 q 947 1253 961 1289 q 900 1181 932 1218 q 806 1118 868 1143 q 664 1093 744 1093 z "},"ĕ":{"ha":1182,"x_min":31,"x_max":1153,"o":"m 617 808 l 572 808 q 420 832 483 808 q 327 894 357 856 q 285 965 297 932 q 274 1031 274 999 l 274 1033 l 510 1033 q 529 989 510 1013 q 596 965 549 965 q 661 989 642 965 q 681 1033 681 1013 l 911 1033 l 911 1031 q 897 965 911 1000 q 851 894 882 931 q 758 833 819 857 q 617 808 697 808 m 590 594 l 589 594 q 340 468 378 594 l 840 468 q 590 594 807 594 m 1149 264 l 1149 263 q 1139 194 1149 228 q 1096 119 1129 160 q 1010 49 1063 79 q 860 -1 957 19 q 636 -21 764 -21 l 557 -21 q 307 10 413 -21 q 143 97 201 42 q 58 218 85 153 q 31 361 31 283 l 31 392 q 56 532 31 468 q 137 651 81 596 q 298 737 193 706 q 549 768 403 768 l 633 768 q 1153 365 1153 768 l 1153 314 l 335 314 q 599 168 365 168 l 600 168 q 703 176 658 168 q 774 197 749 185 q 815 223 799 208 q 836 247 831 238 q 843 264 842 256 l 1149 264 z "},"Ė":{"ha":1238,"x_min":79,"x_max":1182,"o":"m 79 1033 l 1168 1033 l 1168 799 l 399 799 l 399 646 l 1150 646 l 1150 410 l 399 410 l 399 240 l 1182 240 l 1182 0 l 79 0 l 79 1033 m 792 1319 l 792 1106 l 482 1106 l 482 1319 l 792 1319 z "},"ė":{"ha":1182,"x_min":31,"x_max":1153,"o":"m 747 1033 l 747 819 l 438 819 l 438 1033 l 747 1033 m 590 594 l 589 594 q 340 468 378 594 l 840 468 q 590 594 807 594 m 1149 264 l 1149 263 q 1139 194 1149 228 q 1096 119 1129 160 q 1010 49 1063 79 q 860 -1 957 19 q 636 -21 764 -21 l 557 -21 q 307 10 413 -21 q 143 97 201 42 q 58 218 85 153 q 31 361 31 283 l 31 392 q 56 532 31 468 q 137 651 81 596 q 298 737 193 706 q 549 768 403 768 l 633 768 q 1153 365 1153 768 l 1153 314 l 335 314 q 599 168 365 168 l 600 168 q 703 176 658 168 q 774 197 749 185 q 815 223 799 208 q 836 247 831 238 q 843 264 842 256 l 1149 264 z "},"Ę":{"ha":1238,"x_min":79,"x_max":1182,"o":"m 1029 -261 l 836 -261 q 656 -162 656 -261 l 656 -160 q 713 -71 656 -107 q 890 0 771 -35 l 1024 0 q 942 -87 942 -56 q 994 -119 942 -119 l 1029 -119 l 1029 -261 m 79 1033 l 1168 1033 l 1168 799 l 399 799 l 399 646 l 1150 646 l 1150 410 l 399 410 l 399 240 l 1182 240 l 1182 0 l 79 0 l 79 1033 z "},"ę":{"ha":1182,"x_min":31,"x_max":1153,"o":"m 590 594 l 589 594 q 340 468 378 594 l 840 468 q 590 594 807 594 m 967 -119 l 967 -261 l 774 -261 q 593 -162 593 -261 l 593 -160 q 643 -78 593 -110 q 804 -10 693 -46 q 636 -21 726 -21 l 557 -21 q 307 10 413 -21 q 143 97 201 42 q 58 218 85 153 q 31 361 31 283 l 31 392 q 56 532 31 468 q 137 651 81 596 q 298 737 193 706 q 549 768 403 768 l 633 768 q 1153 365 1153 768 l 1153 314 l 335 314 q 599 168 365 168 l 600 168 q 703 176 658 168 q 774 197 749 185 q 815 223 799 208 q 836 247 831 238 q 843 264 842 256 l 1149 264 l 1149 263 q 1101 124 1149 186 q 961 0 1054 63 q 879 -87 879 -56 q 932 -119 879 -119 l 967 -119 z "},"Ě":{"ha":1238,"x_min":79,"x_max":1182,"o":"m 79 1033 l 1168 1033 l 1168 799 l 399 799 l 399 646 l 1150 646 l 1150 410 l 399 410 l 399 240 l 1182 240 l 1182 0 l 79 0 l 79 1033 m 465 1106 l 243 1314 l 549 1314 l 640 1233 l 731 1314 l 1032 1314 l 814 1106 l 465 1106 z "},"ě":{"ha":1182,"x_min":31,"x_max":1153,"o":"m 422 819 l 211 1033 l 510 1033 l 594 946 l 679 1033 l 974 1033 l 765 819 l 422 819 m 590 594 l 589 594 q 340 468 378 594 l 840 468 q 590 594 807 594 m 1149 264 l 1149 263 q 1139 194 1149 228 q 1096 119 1129 160 q 1010 49 1063 79 q 860 -1 957 19 q 636 -21 764 -21 l 557 -21 q 307 10 413 -21 q 143 97 201 42 q 58 218 85 153 q 31 361 31 283 l 31 392 q 56 532 31 468 q 137 651 81 596 q 298 737 193 706 q 549 768 403 768 l 633 768 q 1153 365 1153 768 l 1153 314 l 335 314 q 599 168 365 168 l 600 168 q 703 176 658 168 q 774 197 749 185 q 815 223 799 208 q 836 247 831 238 q 843 264 842 256 l 1149 264 z "},"Ĝ":{"ha":1557,"x_min":38,"x_max":1489,"o":"m 939 1314 l 1161 1106 l 856 1106 l 764 1186 l 674 1106 l 372 1106 l 590 1314 l 939 1314 m 756 -18 l 726 -18 q 440 17 565 -18 q 241 105 315 51 q 119 230 167 158 q 55 367 72 301 q 38 501 38 433 l 38 540 q 52 672 38 608 q 113 806 67 735 q 233 930 160 878 q 437 1017 307 982 q 738 1051 567 1051 l 797 1051 q 1089 1024 963 1051 q 1287 955 1215 996 q 1404 858 1358 914 q 1465 755 1450 801 q 1482 660 1481 708 l 1482 658 l 1138 658 q 769 806 1086 806 q 376 526 376 806 l 376 511 q 473 315 376 397 q 767 233 569 233 q 925 246 853 233 q 1040 276 997 258 q 1113 316 1083 294 q 1155 354 1143 338 q 1167 381 1167 371 l 1167 383 l 761 383 l 761 579 l 1489 579 l 1489 0 l 1294 0 q 1253 161 1285 83 q 756 -18 1097 -18 z "},"ĝ":{"ha":1274,"x_min":31,"x_max":1208,"o":"m 610 571 l 601 571 q 405 524 464 571 q 346 404 346 476 l 346 397 q 408 274 346 325 q 601 224 469 224 l 610 224 q 819 274 747 224 q 892 396 892 325 l 892 401 q 819 522 892 474 q 610 571 747 571 m 683 -271 l 585 -271 q 352 -248 451 -271 q 202 -194 253 -225 q 121 -123 151 -164 q 83 -56 90 -82 q 76 -4 76 -29 l 76 0 l 389 0 q 628 -69 406 -69 l 632 -69 q 899 146 899 -69 q 535 33 772 33 l 518 33 q 151 133 271 33 q 31 390 31 233 l 31 418 q 139 667 31 568 q 479 765 247 765 l 508 765 q 897 647 771 765 l 897 747 l 1208 747 l 1208 136 q 1199 42 1208 89 q 1155 -65 1189 -6 q 1067 -167 1121 -124 q 913 -241 1013 -211 q 683 -271 814 -271 m 767 1035 l 978 819 l 679 819 l 594 908 l 510 819 l 215 819 l 424 1035 l 767 1035 z "},"Ğ":{"ha":1557,"x_min":38,"x_max":1489,"o":"m 756 -18 l 726 -18 q 440 17 565 -18 q 241 105 315 51 q 119 230 167 158 q 55 367 72 301 q 38 501 38 433 l 38 540 q 52 672 38 608 q 113 806 67 735 q 233 930 160 878 q 437 1017 307 982 q 738 1051 567 1051 l 797 1051 q 1089 1024 963 1051 q 1287 955 1215 996 q 1404 858 1358 914 q 1465 755 1450 801 q 1482 660 1481 708 l 1482 658 l 1138 658 q 769 806 1086 806 q 376 526 376 806 l 376 511 q 473 315 376 397 q 767 233 569 233 q 925 246 853 233 q 1040 276 997 258 q 1113 316 1083 294 q 1155 354 1143 338 q 1167 381 1167 371 l 1167 383 l 761 383 l 761 579 l 1489 579 l 1489 0 l 1294 0 q 1253 161 1285 83 q 756 -18 1097 -18 m 793 1093 l 746 1093 q 618 1110 674 1093 q 531 1151 563 1126 q 478 1209 499 1176 q 451 1268 458 1242 q 444 1318 444 1294 l 444 1321 l 683 1321 q 689 1295 683 1308 q 715 1268 694 1282 q 771 1254 736 1254 q 838 1276 818 1254 q 857 1321 857 1299 l 1090 1321 l 1090 1318 q 1076 1253 1090 1289 q 1029 1181 1061 1218 q 935 1118 997 1143 q 793 1093 874 1093 z "},"ğ":{"ha":1274,"x_min":31,"x_max":1208,"o":"m 610 571 l 601 571 q 405 524 464 571 q 346 404 346 476 l 346 397 q 408 274 346 325 q 601 224 469 224 l 610 224 q 819 274 747 224 q 892 396 892 325 l 892 401 q 819 522 892 474 q 610 571 747 571 m 683 -271 l 585 -271 q 352 -248 451 -271 q 202 -194 253 -225 q 121 -123 151 -164 q 83 -56 90 -82 q 76 -4 76 -29 l 76 0 l 389 0 q 628 -69 406 -69 l 632 -69 q 899 146 899 -69 q 535 33 772 33 l 518 33 q 151 133 271 33 q 31 390 31 233 l 31 418 q 139 667 31 568 q 479 765 247 765 l 508 765 q 897 647 771 765 l 897 747 l 1208 747 l 1208 136 q 1199 42 1208 89 q 1155 -65 1189 -6 q 1067 -167 1121 -124 q 913 -241 1013 -211 q 683 -271 814 -271 m 622 808 l 578 808 q 426 832 489 808 q 333 894 363 856 q 291 965 303 932 q 279 1031 279 999 l 279 1033 l 515 1033 q 535 989 515 1013 q 601 965 554 965 q 667 989 647 965 q 686 1033 686 1013 l 917 1033 l 917 1031 q 902 965 917 1000 q 856 894 888 931 q 764 833 825 857 q 622 808 703 808 z "},"Ġ":{"ha":1557,"x_min":38,"x_max":1489,"o":"m 922 1319 l 922 1106 l 613 1106 l 613 1319 l 922 1319 m 756 -18 l 726 -18 q 440 17 565 -18 q 241 105 315 51 q 119 230 167 158 q 55 367 72 301 q 38 501 38 433 l 38 540 q 52 672 38 608 q 113 806 67 735 q 233 930 160 878 q 437 1017 307 982 q 738 1051 567 1051 l 797 1051 q 1089 1024 963 1051 q 1287 955 1215 996 q 1404 858 1358 914 q 1465 755 1450 801 q 1482 660 1481 708 l 1482 658 l 1138 658 q 769 806 1086 806 q 376 526 376 806 l 376 511 q 473 315 376 397 q 767 233 569 233 q 925 246 853 233 q 1040 276 997 258 q 1113 316 1083 294 q 1155 354 1143 338 q 1167 381 1167 371 l 1167 383 l 761 383 l 761 579 l 1489 579 l 1489 0 l 1294 0 q 1253 161 1285 83 q 756 -18 1097 -18 z "},"ġ":{"ha":1274,"x_min":32,"x_max":1210,"o":"m 611 571 l 603 571 q 406 524 465 571 q 347 404 347 476 l 347 397 q 409 274 347 325 q 603 224 471 224 l 611 224 q 821 274 749 224 q 893 396 893 325 l 893 401 q 821 522 893 474 q 611 571 749 571 m 685 -271 l 586 -271 q 353 -248 453 -271 q 203 -194 254 -225 q 122 -123 153 -164 q 85 -56 92 -82 q 78 -4 78 -29 l 78 0 l 390 0 q 629 -69 407 -69 l 633 -69 q 900 146 900 -69 q 536 33 774 33 l 519 33 q 152 133 272 33 q 32 390 32 233 l 32 418 q 140 667 32 568 q 481 765 249 765 l 510 765 q 899 647 772 765 l 899 747 l 1210 747 l 1210 136 q 1200 42 1210 89 q 1156 -65 1190 -6 q 1068 -167 1122 -124 q 915 -241 1014 -211 q 685 -271 815 -271 m 747 1033 l 747 819 l 438 819 l 438 1033 l 747 1033 z "},"Ģ":{"ha":1557,"x_min":38,"x_max":1489,"o":"m 756 -18 l 726 -18 q 440 17 565 -18 q 241 105 315 51 q 119 230 167 158 q 55 367 72 301 q 38 501 38 433 l 38 540 q 52 672 38 608 q 113 806 67 735 q 233 930 160 878 q 437 1017 307 982 q 738 1051 567 1051 l 797 1051 q 1089 1024 963 1051 q 1287 955 1215 996 q 1404 858 1358 914 q 1465 755 1450 801 q 1482 660 1481 708 l 1482 658 l 1138 658 q 769 806 1086 806 q 376 526 376 806 l 376 511 q 473 315 376 397 q 767 233 569 233 q 925 246 853 233 q 1040 276 997 258 q 1113 316 1083 294 q 1155 354 1143 338 q 1167 381 1167 371 l 1167 383 l 761 383 l 761 579 l 1489 579 l 1489 0 l 1294 0 q 1253 161 1285 83 q 756 -18 1097 -18 m 836 -393 l 679 -393 q 719 -281 706 -333 l 581 -281 l 581 -72 l 890 -72 l 890 -239 q 836 -393 890 -301 z "},"ģ":{"ha":1274,"x_min":31,"x_max":1208,"o":"m 610 571 l 601 571 q 405 524 464 571 q 346 404 346 476 l 346 397 q 408 274 346 325 q 601 224 469 224 l 610 224 q 819 274 747 224 q 892 396 892 325 l 892 401 q 819 522 892 474 q 610 571 747 571 m 683 -271 l 585 -271 q 352 -248 451 -271 q 202 -194 253 -225 q 121 -123 151 -164 q 83 -56 90 -82 q 76 -4 76 -29 l 76 0 l 389 0 q 628 -69 406 -69 l 632 -69 q 899 146 899 -69 q 535 33 772 33 l 518 33 q 151 133 271 33 q 31 390 31 233 l 31 418 q 139 667 31 568 q 479 765 247 765 l 508 765 q 897 647 771 765 l 897 747 l 1208 747 l 1208 136 q 1199 42 1208 89 q 1155 -65 1189 -6 q 1067 -167 1121 -124 q 913 -241 1013 -211 q 683 -271 814 -271 m 492 1140 l 649 1140 q 608 1028 622 1081 l 747 1028 l 747 819 l 438 819 l 438 986 q 492 1140 438 1049 z "},"Ĥ":{"ha":1500,"x_min":79,"x_max":1421,"o":"m 79 0 l 79 1033 l 403 1033 l 403 657 l 1097 657 l 1097 1033 l 1421 1033 l 1421 0 l 1097 0 l 1097 407 l 403 407 l 403 0 l 79 0 m 922 1314 l 1144 1106 l 839 1106 l 747 1186 l 657 1106 l 356 1106 l 574 1314 l 922 1314 z "},"ĥ":{"ha":1179,"x_min":65,"x_max":1117,"o":"m 65 0 l 65 1033 l 375 1033 l 375 622 q 743 764 517 764 l 753 764 q 1025 678 933 764 q 1117 472 1117 593 l 1117 0 l 804 0 l 804 369 q 754 507 804 458 q 604 556 704 556 q 438 500 500 556 q 375 353 375 444 l 375 0 l 65 0 m 735 1314 l 957 1106 l 651 1106 l 560 1186 l 469 1106 l 168 1106 l 386 1314 l 735 1314 z "},"Ħ":{"ha":1533,"x_min":-7,"x_max":1540,"o":"m -7 767 l -7 936 l 1540 936 l 1540 767 l -7 767 m 96 0 l 96 1033 l 419 1033 l 419 657 l 1114 657 l 1114 1033 l 1438 1033 l 1438 0 l 1114 0 l 1114 407 l 419 407 l 419 0 l 96 0 z "},"ħ":{"ha":1179,"x_min":-42,"x_max":1117,"o":"m -42 964 l 732 964 l 732 821 l -42 821 l -42 964 m 65 0 l 65 1033 l 375 1033 l 375 622 q 743 764 517 764 l 753 764 q 1025 678 933 764 q 1117 472 1117 593 l 1117 0 l 804 0 l 804 369 q 754 507 804 458 q 604 556 704 556 q 438 500 500 556 q 375 353 375 444 l 375 0 l 65 0 z "},"Ĩ":{"ha":482,"x_min":-79,"x_max":558,"o":"m 403 1033 l 403 0 l 79 0 l 79 1033 l 403 1033 m 419 1114 l 411 1114 q 233 1154 356 1114 q 149 1175 175 1175 q 124 1146 124 1175 l 124 1103 l -79 1103 l -79 1215 q -49 1311 -79 1271 q 60 1351 -18 1351 l 68 1351 q 246 1311 126 1351 q 331 1290 308 1290 q 356 1319 356 1290 l 356 1361 l 558 1361 l 558 1250 q 528 1154 558 1194 q 419 1114 497 1114 z "},"ĩ":{"ha":440,"x_min":-35,"x_max":474,"o":"m 363 825 l 356 825 q 215 865 317 825 q 153 885 165 885 q 135 856 135 885 l 135 815 l -35 815 l -35 915 q -9 1010 -35 969 q 78 1050 17 1050 l 83 1050 q 225 1010 128 1050 q 286 990 271 990 q 304 1021 304 990 l 304 1061 l 474 1061 l 474 961 q 363 825 474 825 m 375 747 l 375 0 l 65 0 l 65 747 l 375 747 z "},"Ī":{"ha":482,"x_min":-29,"x_max":511,"o":"m -29 1117 l -29 1292 l 511 1292 l 511 1117 l -29 1117 m 403 1033 l 403 0 l 79 0 l 79 1033 l 403 1033 z "},"ī":{"ha":440,"x_min":-22,"x_max":463,"o":"m -22 835 l -22 1004 l 463 1004 l 463 835 l -22 835 m 375 747 l 375 0 l 65 0 l 65 747 l 375 747 z "},"Ĭ":{"ha":482,"x_min":-82,"x_max":564,"o":"m 403 1033 l 403 0 l 79 0 l 79 1033 l 403 1033 m 267 1093 l 219 1093 q 92 1110 147 1093 q 4 1151 36 1126 q -48 1209 -28 1176 q -75 1268 -68 1242 q -82 1318 -82 1294 l -82 1321 l 157 1321 q 163 1295 157 1308 q 189 1268 168 1282 q 244 1254 210 1254 q 311 1276 292 1254 q 331 1321 331 1299 l 564 1321 l 564 1318 q 549 1253 564 1289 q 503 1181 535 1218 q 409 1118 471 1143 q 267 1093 347 1093 z "},"ĭ":{"ha":440,"x_min":-44,"x_max":485,"o":"m 231 810 l 211 810 q 84 832 138 810 q 4 890 31 854 q -33 960 -22 925 q -44 1031 -44 994 l -44 1033 l 156 1033 q 221 974 160 974 q 270 992 256 974 q 285 1033 285 1011 l 485 1033 l 485 1031 q 473 960 485 994 q 435 890 461 925 q 356 832 410 854 q 231 810 303 810 m 375 747 l 375 0 l 65 0 l 65 747 l 375 747 z "},"Į":{"ha":482,"x_min":35,"x_max":403,"o":"m 403 1033 l 403 0 l 79 0 l 79 1033 l 403 1033 m 403 -261 l 215 -261 q 35 -162 35 -261 l 35 -160 q 92 -71 35 -107 q 269 0 150 -35 l 403 0 q 321 -87 321 -56 q 374 -119 321 -119 l 403 -119 l 403 -261 z "},"į":{"ha":440,"x_min":7,"x_max":375,"o":"m 375 1033 l 375 819 l 65 819 l 65 1033 l 375 1033 m 375 747 l 375 0 l 65 0 l 65 747 l 375 747 m 375 -261 l 188 -261 q 7 -162 7 -261 l 7 -160 q 65 -71 7 -107 q 242 0 122 -35 l 375 0 q 293 -87 293 -56 q 346 -119 293 -119 l 375 -119 l 375 -261 z "},"İ":{"ha":482,"x_min":79,"x_max":403,"o":"m 403 1033 l 403 0 l 79 0 l 79 1033 l 403 1033 m 396 1319 l 396 1106 l 86 1106 l 86 1319 l 396 1319 z "},"ı":{"ha":440,"x_min":65,"x_max":375,"o":"m 375 747 l 375 0 l 65 0 l 65 747 l 375 747 z "},"Ĳ":{"ha":1718,"x_min":79,"x_max":1651,"o":"m 403 1033 l 403 0 l 79 0 l 79 1033 l 403 1033 m 1110 -15 l 1032 -15 q 810 13 908 -15 q 652 85 713 40 q 553 190 592 131 q 499 310 514 250 q 483 432 483 369 l 483 440 l 811 440 q 817 401 813 419 q 837 351 821 383 q 877 297 853 319 q 949 258 901 275 q 1061 242 997 242 l 1078 242 q 1265 309 1203 242 q 1326 497 1326 376 l 1326 1033 l 1651 1033 l 1651 489 q 1638 354 1651 419 q 1588 219 1625 289 q 1492 100 1550 150 q 1335 17 1433 50 q 1110 -15 1236 -15 z "},"ĳ":{"ha":872,"x_min":65,"x_max":807,"o":"m 375 1033 l 375 819 l 65 819 l 65 1033 l 375 1033 m 375 747 l 375 0 l 65 0 l 65 747 l 375 747 m 807 1033 l 807 819 l 497 819 l 497 1033 l 807 1033 m 396 -43 l 453 -43 q 488 -33 478 -43 q 497 10 497 -22 l 497 747 l 807 747 l 807 -68 q 768 -214 807 -167 q 665 -261 729 -261 l 396 -261 l 396 -43 z "},"Ĵ":{"ha":1244,"x_min":10,"x_max":1408,"o":"m 636 -15 l 558 -15 q 337 13 435 -15 q 178 85 239 40 q 79 190 118 131 q 25 310 40 250 q 10 432 10 369 l 10 440 l 338 440 q 343 401 339 419 q 363 351 347 383 q 403 297 379 319 q 476 258 428 275 q 588 242 524 242 l 604 242 q 791 309 729 242 q 853 497 853 376 l 853 1033 l 1178 1033 l 1178 489 q 1165 354 1178 419 q 1114 219 1151 289 q 1018 100 1076 150 q 861 17 960 50 q 636 -15 763 -15 m 1186 1314 l 1408 1106 l 1103 1106 l 1011 1186 l 921 1106 l 619 1106 l 838 1314 l 1186 1314 z "},"ĵ":{"ha":440,"x_min":-86,"x_max":526,"o":"m 376 1033 l 526 819 l 281 819 l 218 908 l 156 819 l -86 819 l 61 1033 l 376 1033 m -36 -43 l 21 -43 q 56 -33 46 -43 q 65 10 65 -22 l 65 747 l 375 747 l 375 -68 q 336 -214 375 -167 q 233 -261 297 -261 l -36 -261 l -36 -43 z "},"Ķ":{"ha":1344,"x_min":79,"x_max":1371,"o":"m 403 0 l 79 0 l 79 1033 l 403 1033 l 403 603 l 932 1033 l 1343 1033 l 749 561 l 1371 0 l 949 0 l 403 488 l 403 0 m 753 -393 l 596 -393 q 636 -281 622 -333 l 497 -281 l 497 -72 l 807 -72 l 807 -239 q 753 -393 807 -301 z "},"ķ":{"ha":1043,"x_min":65,"x_max":1064,"o":"m 375 0 l 65 0 l 65 1033 l 375 1033 l 375 449 l 678 747 l 1021 747 l 668 410 l 1064 0 l 700 0 l 375 343 l 375 0 m 636 -393 l 479 -393 q 519 -281 506 -333 l 381 -281 l 381 -72 l 690 -72 l 690 -239 q 636 -393 690 -301 z "},"Ĺ":{"ha":1161,"x_min":79,"x_max":1121,"o":"m 79 1033 l 403 1033 l 403 257 l 1121 257 l 1121 0 l 79 0 l 79 1033 m 93 1106 l 218 1314 l 551 1314 l 406 1106 l 93 1106 z "},"ĺ":{"ha":440,"x_min":65,"x_max":515,"o":"m 78 1106 l 196 1307 l 515 1307 l 374 1106 l 78 1106 m 375 1033 l 375 0 l 65 0 l 65 1033 l 375 1033 z "},"Ļ":{"ha":1161,"x_min":79,"x_max":1121,"o":"m 79 1033 l 403 1033 l 403 257 l 1121 257 l 1121 0 l 79 0 l 79 1033 m 707 -393 l 550 -393 q 590 -281 576 -333 l 451 -281 l 451 -72 l 761 -72 l 761 -239 q 707 -393 761 -301 z "},"ļ":{"ha":440,"x_min":65,"x_max":375,"o":"m 375 1033 l 375 0 l 65 0 l 65 1033 l 375 1033 m 321 -393 l 164 -393 q 204 -281 190 -333 l 65 -281 l 65 -72 l 375 -72 l 375 -239 q 321 -393 375 -301 z "},"Ľ":{"ha":1161,"x_min":79,"x_max":1121,"o":"m 79 1033 l 403 1033 l 403 257 l 1121 257 l 1121 0 l 79 0 l 79 1033 m 446 803 l 467 1033 l 715 1033 l 674 803 l 446 803 z "},"ľ":{"ha":440,"x_min":65,"x_max":688,"o":"m 375 1033 l 375 0 l 65 0 l 65 1033 l 375 1033 m 418 803 l 439 1033 l 688 1033 l 646 803 l 418 803 z "},"Ŀ":{"ha":1154,"x_min":79,"x_max":1121,"o":"m 79 1033 l 403 1033 l 403 257 l 1121 257 l 1121 0 l 79 0 l 79 1033 m 1008 699 l 1008 456 l 674 456 l 674 699 l 1008 699 z "},"ŀ":{"ha":769,"x_min":65,"x_max":760,"o":"m 760 656 l 760 413 l 444 413 l 444 656 l 760 656 m 375 1033 l 375 0 l 65 0 l 65 1033 l 375 1033 z "},"Ł":{"ha":1179,"x_min":-3,"x_max":1139,"o":"m 97 1033 l 421 1033 l 421 597 l 853 756 l 853 550 l 421 397 l 421 257 l 1139 257 l 1139 0 l 97 0 l 97 283 l -3 249 l -3 443 l 97 479 l 97 1033 z "},"ł":{"ha":463,"x_min":0,"x_max":463,"o":"m 386 521 l 386 0 l 76 0 l 76 372 l 0 336 l 0 522 l 76 560 l 76 1033 l 386 1033 l 386 714 l 463 751 l 463 558 l 386 521 z "},"Ń":{"ha":1499,"x_min":79,"x_max":1419,"o":"m 79 1033 l 440 1033 l 1100 383 l 1100 1033 l 1419 1033 l 1419 0 l 1100 0 l 399 685 l 399 0 l 79 0 l 79 1033 m 597 1106 l 722 1314 l 1056 1314 l 910 1106 l 597 1106 z "},"ń":{"ha":1179,"x_min":65,"x_max":1117,"o":"m 65 0 l 65 747 l 372 747 l 372 619 q 743 764 517 764 l 753 764 q 1026 678 935 764 q 1117 472 1117 593 l 1117 0 l 804 0 l 804 369 q 754 507 804 458 q 604 556 704 556 q 438 500 500 556 q 375 353 375 444 l 375 0 l 65 0 m 442 819 l 567 1033 l 886 1033 l 738 819 l 442 819 z "},"Ņ":{"ha":1499,"x_min":79,"x_max":1419,"o":"m 79 1033 l 440 1033 l 1100 383 l 1100 1033 l 1419 1033 l 1419 0 l 1100 0 l 399 685 l 399 0 l 79 0 l 79 1033 m 847 -393 l 690 -393 q 731 -281 717 -333 l 592 -281 l 592 -72 l 901 -72 l 901 -239 q 847 -393 901 -301 z "},"ņ":{"ha":1179,"x_min":65,"x_max":1117,"o":"m 65 0 l 65 747 l 372 747 l 372 619 q 743 764 517 764 l 753 764 q 1026 678 935 764 q 1117 472 1117 593 l 1117 0 l 804 0 l 804 369 q 754 507 804 458 q 604 556 704 556 q 438 500 500 556 q 375 353 375 444 l 375 0 l 65 0 m 690 -393 l 533 -393 q 574 -281 560 -333 l 435 -281 l 435 -72 l 744 -72 l 744 -239 q 690 -393 744 -301 z "},"Ň":{"ha":1499,"x_min":79,"x_max":1419,"o":"m 79 1033 l 440 1033 l 1100 383 l 1100 1033 l 1419 1033 l 1419 0 l 1100 0 l 399 685 l 399 0 l 79 0 l 79 1033 m 576 1106 l 354 1314 l 660 1314 l 751 1233 l 842 1314 l 1143 1314 l 925 1106 l 576 1106 z "},"ň":{"ha":1179,"x_min":65,"x_max":1117,"o":"m 65 0 l 65 747 l 372 747 l 372 619 q 743 764 517 764 l 753 764 q 1026 678 935 764 q 1117 472 1117 593 l 1117 0 l 804 0 l 804 369 q 754 507 804 458 q 604 556 704 556 q 438 500 500 556 q 375 353 375 444 l 375 0 l 65 0 m 417 819 l 206 1033 l 504 1033 l 589 946 l 674 1033 l 968 1033 l 760 819 l 417 819 z "},"ŉ":{"ha":1479,"x_min":4,"x_max":1417,"o":"m 365 0 l 365 747 l 672 747 l 672 619 q 1043 764 817 764 l 1053 764 q 1326 678 1235 764 q 1417 472 1417 593 l 1417 0 l 1104 0 l 1104 369 q 1054 507 1104 458 q 904 556 1004 556 q 738 500 800 556 q 675 353 675 444 l 675 0 l 365 0 m 263 692 l 93 692 q 143 822 135 768 l 4 822 l 4 1033 l 326 1033 l 326 860 q 263 692 326 778 z "},"Ŋ":{"ha":1499,"x_min":79,"x_max":1419,"o":"m 1419 1033 l 1419 35 q 1353 -187 1419 -114 q 1176 -261 1288 -261 l 954 -261 l 954 -29 l 1065 -29 q 1096 -10 1096 -29 q 1095 -4 1096 -7 q 1094 1 1094 -1 q 1090 6 1093 3 q 1085 13 1088 10 q 1079 20 1083 15 q 1072 28 1075 25 q 1061 38 1068 31 q 1050 49 1054 44 l 399 685 l 399 0 l 79 0 l 79 1033 l 440 1033 l 1100 383 l 1100 1033 l 1419 1033 z "},"ŋ":{"ha":1179,"x_min":65,"x_max":1117,"o":"m 1117 472 l 1117 -68 q 1078 -214 1117 -167 q 975 -261 1039 -261 l 665 -261 l 665 -36 l 756 -36 q 793 -24 782 -36 q 804 21 804 -11 l 804 369 q 754 507 804 458 q 604 556 704 556 q 438 500 500 556 q 375 353 375 444 l 375 0 l 65 0 l 65 747 l 372 747 l 372 619 q 743 764 517 764 l 753 764 q 1026 678 935 764 q 1117 472 1117 593 z "},"Ō":{"ha":1589,"x_min":38,"x_max":1551,"o":"m 765 1051 l 825 1051 q 1069 1033 960 1051 q 1253 983 1179 1014 q 1383 908 1328 953 q 1470 819 1439 864 q 1521 722 1501 775 q 1546 628 1540 669 q 1551 540 1551 586 l 1551 499 q 1546 413 1551 454 q 1521 317 1540 371 q 1471 219 1501 264 q 1384 128 1440 174 q 1254 52 1328 83 q 1070 1 1181 21 q 825 -18 960 -18 l 765 -18 q 519 1 631 -18 q 335 52 408 21 q 205 128 261 83 q 117 219 149 174 q 67 317 86 264 q 43 413 49 371 q 38 499 38 454 l 38 540 q 43 627 38 586 q 67 722 49 668 q 117 819 86 775 q 204 908 149 864 q 334 983 260 953 q 519 1033 408 1014 q 765 1051 631 1051 m 1213 511 l 1213 531 q 1203 604 1213 569 q 1165 676 1193 639 q 1093 740 1138 714 q 972 784 1049 767 q 794 801 896 801 q 376 531 376 801 l 376 514 q 394 419 376 464 q 453 331 411 375 q 582 260 494 286 q 794 233 669 233 q 1005 259 918 233 q 1135 328 1092 285 q 1195 417 1178 372 q 1213 511 1213 461 m 489 1117 l 489 1292 l 1101 1292 l 1101 1117 l 489 1117 z "},"ō":{"ha":1231,"x_min":31,"x_max":1200,"o":"m 665 -21 l 568 -21 q 347 3 443 -21 q 192 65 250 28 q 96 156 133 103 q 44 259 58 208 q 31 365 31 310 l 31 390 q 44 496 31 446 q 95 597 58 546 q 190 685 132 649 q 345 745 249 722 q 567 768 442 768 l 665 768 q 1200 390 1200 768 l 1200 365 q 665 -21 1200 -21 m 410 238 q 441 209 410 238 q 617 181 472 181 q 824 238 761 181 q 886 374 886 294 l 886 381 q 824 515 886 461 q 618 569 761 569 l 617 569 q 409 516 471 569 q 347 381 347 463 l 347 374 q 410 238 347 294 m 322 835 l 322 1004 l 908 1004 l 908 835 l 322 835 z "},"Ŏ":{"ha":1589,"x_min":38,"x_max":1551,"o":"m 765 1051 l 825 1051 q 1069 1033 960 1051 q 1253 983 1179 1014 q 1383 908 1328 953 q 1470 819 1439 864 q 1521 722 1501 775 q 1546 628 1540 669 q 1551 540 1551 586 l 1551 499 q 1546 413 1551 454 q 1521 317 1540 371 q 1471 219 1501 264 q 1384 128 1440 174 q 1254 52 1328 83 q 1070 1 1181 21 q 825 -18 960 -18 l 765 -18 q 519 1 631 -18 q 335 52 408 21 q 205 128 261 83 q 117 219 149 174 q 67 317 86 264 q 43 413 49 371 q 38 499 38 454 l 38 540 q 43 627 38 586 q 67 722 49 668 q 117 819 86 775 q 204 908 149 864 q 334 983 260 953 q 519 1033 408 1014 q 765 1051 631 1051 m 1213 511 l 1213 531 q 1203 604 1213 569 q 1165 676 1193 639 q 1093 740 1138 714 q 972 784 1049 767 q 794 801 896 801 q 376 531 376 801 l 376 514 q 394 419 376 464 q 453 331 411 375 q 582 260 494 286 q 794 233 669 233 q 1005 259 918 233 q 1135 328 1092 285 q 1195 417 1178 372 q 1213 511 1213 461 m 821 1093 l 774 1093 q 646 1110 701 1093 q 558 1151 590 1126 q 506 1209 526 1176 q 479 1268 486 1242 q 472 1318 472 1294 l 472 1321 l 711 1321 q 717 1295 711 1308 q 743 1268 722 1282 q 799 1254 764 1254 q 865 1276 846 1254 q 885 1321 885 1299 l 1118 1321 l 1118 1318 q 1103 1253 1118 1289 q 1057 1181 1089 1218 q 963 1118 1025 1143 q 821 1093 901 1093 z "},"ŏ":{"ha":1231,"x_min":31,"x_max":1200,"o":"m 640 808 l 596 808 q 444 832 507 808 q 351 894 381 856 q 309 965 321 932 q 297 1031 297 999 l 297 1033 l 533 1033 q 553 989 533 1013 q 619 965 572 965 q 685 989 665 965 q 704 1033 704 1013 l 935 1033 l 935 1031 q 920 965 935 1000 q 874 894 906 931 q 782 833 843 857 q 640 808 721 808 m 665 -21 l 568 -21 q 347 3 443 -21 q 192 65 250 28 q 96 156 133 103 q 44 259 58 208 q 31 365 31 310 l 31 390 q 44 496 31 446 q 95 597 58 546 q 190 685 132 649 q 345 745 249 722 q 567 768 442 768 l 665 768 q 1200 390 1200 768 l 1200 365 q 665 -21 1200 -21 m 410 238 q 441 209 410 238 q 617 181 472 181 q 824 238 761 181 q 886 374 886 294 l 886 381 q 824 515 886 461 q 618 569 761 569 l 617 569 q 409 516 471 569 q 347 381 347 463 l 347 374 q 410 238 347 294 z "},"Ő":{"ha":1589,"x_min":38,"x_max":1551,"o":"m 836 1106 l 919 1314 l 1224 1314 l 1131 1106 l 836 1106 m 478 1106 l 551 1314 l 856 1314 l 772 1106 l 478 1106 m 765 1051 l 825 1051 q 1069 1033 960 1051 q 1253 983 1179 1014 q 1383 908 1328 953 q 1470 819 1439 864 q 1521 722 1501 775 q 1546 628 1540 669 q 1551 540 1551 586 l 1551 499 q 1546 413 1551 454 q 1521 317 1540 371 q 1471 219 1501 264 q 1384 128 1440 174 q 1254 52 1328 83 q 1070 1 1181 21 q 825 -18 960 -18 l 765 -18 q 519 1 631 -18 q 335 52 408 21 q 205 128 261 83 q 117 219 149 174 q 67 317 86 264 q 43 413 49 371 q 38 499 38 454 l 38 540 q 43 627 38 586 q 67 722 49 668 q 117 819 86 775 q 204 908 149 864 q 334 983 260 953 q 519 1033 408 1014 q 765 1051 631 1051 m 1213 511 l 1213 531 q 1203 604 1213 569 q 1165 676 1193 639 q 1093 740 1138 714 q 972 784 1049 767 q 794 801 896 801 q 376 531 376 801 l 376 514 q 394 419 376 464 q 453 331 411 375 q 582 260 494 286 q 794 233 669 233 q 1005 259 918 233 q 1135 328 1092 285 q 1195 417 1178 372 q 1213 511 1213 461 z "},"ő":{"ha":1231,"x_min":31,"x_max":1200,"o":"m 660 819 l 743 1033 l 1038 1033 l 944 819 l 660 819 m 311 819 l 385 1033 l 679 1033 l 596 819 l 311 819 m 665 -21 l 568 -21 q 347 3 443 -21 q 192 65 250 28 q 96 156 133 103 q 44 259 58 208 q 31 365 31 310 l 31 390 q 44 496 31 446 q 95 597 58 546 q 190 685 132 649 q 345 745 249 722 q 567 768 442 768 l 665 768 q 1200 390 1200 768 l 1200 365 q 665 -21 1200 -21 m 410 238 q 441 209 410 238 q 617 181 472 181 q 824 238 761 181 q 886 374 886 294 l 886 381 q 824 515 886 461 q 618 569 761 569 l 617 569 q 409 516 471 569 q 347 381 347 463 l 347 374 q 410 238 347 294 z "},"Œ":{"ha":2346,"x_min":38,"x_max":2290,"o":"m 789 800 q 376 531 376 800 l 376 514 q 386 438 376 474 q 423 363 396 401 q 494 297 450 325 q 615 252 539 269 q 789 235 690 235 q 996 260 910 235 q 1124 328 1082 285 q 1184 415 1167 371 q 1201 511 1201 460 l 1201 531 q 1192 606 1201 571 q 1155 678 1182 640 q 1083 741 1128 715 q 963 783 1039 767 q 789 800 888 800 m 1231 0 l 1231 103 q 1060 19 1178 57 q 782 -18 943 -18 l 728 -18 q 424 19 554 -18 q 222 110 293 56 q 106 238 150 164 q 50 373 63 313 q 38 499 38 433 l 38 540 q 50 667 38 607 q 106 800 63 726 q 220 926 149 874 q 422 1015 292 979 q 728 1051 553 1051 l 782 1051 q 1231 947 1069 1051 l 1231 1033 l 2276 1033 l 2276 799 l 1521 799 l 1521 646 l 2258 646 l 2258 410 l 1521 410 l 1521 240 l 2290 240 l 2290 0 l 1231 0 z "},"œ":{"ha":2036,"x_min":31,"x_max":2007,"o":"m 1453 594 l 1451 594 q 1204 468 1242 594 l 1700 468 q 1453 594 1667 594 m 613 181 q 818 238 757 181 q 879 374 879 294 l 879 381 q 819 515 879 461 q 615 569 758 569 l 613 569 q 408 516 468 569 q 347 381 347 463 l 347 374 q 409 238 347 294 q 613 181 471 181 m 1050 103 q 631 -21 933 -21 l 563 -21 q 342 3 439 -21 q 188 65 246 28 q 94 156 131 103 q 44 259 57 208 q 31 365 31 310 l 31 390 q 44 496 31 446 q 94 597 57 546 q 188 685 131 649 q 342 745 246 722 q 561 768 438 768 l 631 768 q 1046 647 925 768 q 1440 768 1164 768 l 1499 768 q 2007 365 2007 768 l 2007 314 l 1199 314 q 1460 168 1229 168 l 1461 168 q 1565 176 1519 168 q 1634 197 1610 185 q 1674 223 1658 208 q 1696 247 1690 238 q 1703 264 1701 256 l 2004 264 l 2004 263 q 1995 194 2004 226 q 1955 120 1986 161 q 1872 49 1924 79 q 1724 -1 1819 19 q 1500 -21 1628 -21 l 1449 -21 q 1050 103 1171 -21 z "},"Ŕ":{"ha":1414,"x_min":79,"x_max":1385,"o":"m 403 799 l 403 596 l 893 596 q 992 624 960 596 q 1024 697 1024 651 l 1024 699 q 992 771 1024 743 q 893 799 960 799 l 403 799 m 403 367 l 403 0 l 79 0 l 79 1033 l 913 1033 q 1361 765 1361 1033 l 1361 749 q 1169 522 1361 585 q 1311 438 1257 497 q 1365 285 1365 379 l 1365 133 q 1385 7 1365 40 l 1385 0 l 1056 0 q 1040 65 1040 19 l 1040 185 q 992 324 1040 281 q 825 367 943 367 l 403 367 m 536 1106 l 661 1314 l 994 1314 l 849 1106 l 536 1106 z "},"ŕ":{"ha":1021,"x_min":65,"x_max":994,"o":"m 375 386 l 375 0 l 65 0 l 65 747 l 372 747 l 372 615 q 421 674 392 644 q 520 733 450 703 q 675 764 590 764 l 690 764 q 920 674 846 764 q 994 431 994 583 l 994 388 l 696 388 q 658 517 696 467 q 538 567 619 567 l 536 567 q 418 515 461 567 q 375 386 375 463 m 351 819 l 476 1033 l 796 1033 l 647 819 l 351 819 z "},"Ŗ":{"ha":1414,"x_min":79,"x_max":1385,"o":"m 403 799 l 403 596 l 893 596 q 992 624 960 596 q 1024 697 1024 651 l 1024 699 q 992 771 1024 743 q 893 799 960 799 l 403 799 m 403 367 l 403 0 l 79 0 l 79 1033 l 913 1033 q 1361 765 1361 1033 l 1361 749 q 1169 522 1361 585 q 1311 438 1257 497 q 1365 285 1365 379 l 1365 133 q 1385 7 1365 40 l 1385 0 l 1056 0 q 1040 65 1040 19 l 1040 185 q 992 324 1040 281 q 825 367 943 367 l 403 367 m 825 -393 l 668 -393 q 708 -281 694 -333 l 569 -281 l 569 -72 l 879 -72 l 879 -239 q 825 -393 879 -301 z "},"ŗ":{"ha":1021,"x_min":65,"x_max":994,"o":"m 375 386 l 375 0 l 65 0 l 65 747 l 372 747 l 372 615 q 421 674 392 644 q 520 733 450 703 q 675 764 590 764 l 690 764 q 920 674 846 764 q 994 431 994 583 l 994 388 l 696 388 q 658 517 696 467 q 538 567 619 567 l 536 567 q 418 515 461 567 q 375 386 375 463 m 321 -393 l 164 -393 q 204 -281 190 -333 l 65 -281 l 65 -72 l 375 -72 l 375 -239 q 321 -393 375 -301 z "},"Ř":{"ha":1414,"x_min":79,"x_max":1385,"o":"m 403 799 l 403 596 l 893 596 q 992 624 960 596 q 1024 697 1024 651 l 1024 699 q 992 771 1024 743 q 893 799 960 799 l 403 799 m 403 367 l 403 0 l 79 0 l 79 1033 l 913 1033 q 1361 765 1361 1033 l 1361 749 q 1169 522 1361 585 q 1311 438 1257 497 q 1365 285 1365 379 l 1365 133 q 1385 7 1365 40 l 1385 0 l 1056 0 q 1040 65 1040 19 l 1040 185 q 992 324 1040 281 q 825 367 943 367 l 403 367 m 517 1106 l 294 1314 l 600 1314 l 692 1233 l 782 1314 l 1083 1314 l 865 1106 l 517 1106 z "},"ř":{"ha":1021,"x_min":65,"x_max":994,"o":"m 375 386 l 375 0 l 65 0 l 65 747 l 372 747 l 372 615 q 421 674 392 644 q 520 733 450 703 q 675 764 590 764 l 690 764 q 920 674 846 764 q 994 431 994 583 l 994 388 l 696 388 q 658 517 696 467 q 538 567 619 567 l 536 567 q 418 515 461 567 q 375 386 375 463 m 321 819 l 110 1033 l 408 1033 l 493 946 l 578 1033 l 872 1033 l 664 819 l 321 819 z "},"Ś":{"ha":1363,"x_min":26,"x_max":1332,"o":"m 513 1106 l 638 1314 l 971 1314 l 825 1106 l 513 1106 m 726 -18 l 631 -18 q 361 8 476 -18 q 183 72 246 35 q 84 163 121 110 q 37 260 47 217 q 26 351 26 303 l 26 367 l 364 367 q 671 203 375 203 l 690 203 q 851 212 788 203 q 944 238 915 221 q 983 272 974 254 q 993 313 993 289 q 976 365 993 346 q 899 399 960 385 q 722 417 838 414 l 544 421 q 40 724 40 435 l 40 736 q 53 828 40 786 q 103 913 65 871 q 201 985 140 956 q 364 1033 261 1014 q 603 1051 467 1051 l 699 1051 q 949 1032 840 1051 q 1122 982 1057 1013 q 1227 907 1186 951 q 1283 819 1268 863 q 1299 725 1299 775 l 1299 711 l 963 711 q 955 740 960 728 q 932 771 950 751 q 885 803 914 790 q 798 825 856 815 q 664 835 740 835 l 642 835 q 463 820 525 835 q 387 790 400 806 q 374 746 374 774 q 388 703 374 719 q 458 672 403 686 q 613 657 513 658 l 786 654 q 1203 576 1075 649 q 1332 347 1332 503 l 1332 328 q 1319 226 1332 271 q 1268 133 1307 181 q 1165 54 1229 86 q 988 2 1100 22 q 726 -18 876 -18 z "},"ś":{"ha":1082,"x_min":24,"x_max":1054,"o":"m 392 819 l 517 1033 l 836 1033 l 688 819 l 392 819 m 561 -21 l 504 -21 q 24 244 24 -21 l 24 253 l 343 253 q 535 151 343 151 l 538 151 q 663 163 618 151 q 719 188 708 174 q 731 222 731 201 l 731 225 q 699 272 731 257 q 567 290 668 288 l 433 293 q 234 317 317 296 q 109 372 151 338 q 49 444 67 407 q 31 526 31 482 l 31 535 q 40 604 31 574 q 78 667 49 635 q 158 719 108 699 q 296 754 208 740 q 503 768 383 768 l 558 768 q 1026 533 1026 768 l 1026 524 l 711 524 q 703 548 708 538 q 681 572 697 558 q 624 592 664 585 q 526 600 585 600 l 525 600 q 383 588 419 600 q 347 544 347 575 l 347 542 q 381 499 347 514 q 504 482 414 485 l 638 479 q 899 447 806 476 q 1023 372 992 418 q 1054 244 1054 325 l 1054 236 q 1034 137 1054 179 q 963 57 1014 94 q 811 -1 913 19 q 561 -21 710 -21 z "},"Ŝ":{"ha":1363,"x_min":26,"x_max":1332,"o":"m 847 1314 l 1069 1106 l 764 1106 l 672 1186 l 582 1106 l 281 1106 l 499 1314 l 847 1314 m 726 -18 l 631 -18 q 361 8 476 -18 q 183 72 246 35 q 84 163 121 110 q 37 260 47 217 q 26 351 26 303 l 26 367 l 364 367 q 671 203 375 203 l 690 203 q 851 212 788 203 q 944 238 915 221 q 983 272 974 254 q 993 313 993 289 q 976 365 993 346 q 899 399 960 385 q 722 417 838 414 l 544 421 q 40 724 40 435 l 40 736 q 53 828 40 786 q 103 913 65 871 q 201 985 140 956 q 364 1033 261 1014 q 603 1051 467 1051 l 699 1051 q 949 1032 840 1051 q 1122 982 1057 1013 q 1227 907 1186 951 q 1283 819 1268 863 q 1299 725 1299 775 l 1299 711 l 963 711 q 955 740 960 728 q 932 771 950 751 q 885 803 914 790 q 798 825 856 815 q 664 835 740 835 l 642 835 q 463 820 525 835 q 387 790 400 806 q 374 746 374 774 q 388 703 374 719 q 458 672 403 686 q 613 657 513 658 l 786 654 q 1203 576 1075 649 q 1332 347 1332 503 l 1332 328 q 1319 226 1332 271 q 1268 133 1307 181 q 1165 54 1229 86 q 988 2 1100 22 q 726 -18 876 -18 z "},"ŝ":{"ha":1082,"x_min":24,"x_max":1054,"o":"m 706 1033 l 917 818 l 618 818 l 533 907 l 449 818 l 154 818 l 363 1033 l 706 1033 m 561 -21 l 504 -21 q 24 244 24 -21 l 24 253 l 343 253 q 535 151 343 151 l 538 151 q 663 163 618 151 q 719 188 708 174 q 731 222 731 201 l 731 225 q 699 272 731 257 q 567 290 668 288 l 433 293 q 234 317 317 296 q 109 372 151 338 q 49 444 67 407 q 31 526 31 482 l 31 535 q 40 604 31 574 q 78 667 49 635 q 158 719 108 699 q 296 754 208 740 q 503 768 383 768 l 558 768 q 1026 533 1026 768 l 1026 524 l 711 524 q 703 548 708 538 q 681 572 697 558 q 624 592 664 585 q 526 600 585 600 l 525 600 q 383 588 419 600 q 347 544 347 575 l 347 542 q 381 499 347 514 q 504 482 414 485 l 638 479 q 899 447 806 476 q 1023 372 992 418 q 1054 244 1054 325 l 1054 236 q 1034 137 1054 179 q 963 57 1014 94 q 811 -1 913 19 q 561 -21 710 -21 z "},"Ş":{"ha":1363,"x_min":26,"x_max":1332,"o":"m 726 -18 l 631 -18 q 361 8 476 -18 q 183 72 246 35 q 84 163 121 110 q 37 260 47 217 q 26 351 26 303 l 26 367 l 364 367 q 671 203 375 203 l 690 203 q 851 212 788 203 q 944 238 915 221 q 983 272 974 254 q 993 313 993 289 q 976 365 993 346 q 899 399 960 385 q 722 417 838 414 l 544 421 q 40 724 40 435 l 40 736 q 53 828 40 786 q 103 913 65 871 q 201 985 140 956 q 364 1033 261 1014 q 603 1051 467 1051 l 699 1051 q 949 1032 840 1051 q 1122 982 1057 1013 q 1227 907 1186 951 q 1283 819 1268 863 q 1299 725 1299 775 l 1299 711 l 963 711 q 955 740 960 728 q 932 771 950 751 q 885 803 914 790 q 798 825 856 815 q 664 835 740 835 l 642 835 q 463 820 525 835 q 387 790 400 806 q 374 746 374 774 q 388 703 374 719 q 458 672 403 686 q 613 657 513 658 l 786 654 q 1203 576 1075 649 q 1332 347 1332 503 l 1332 328 q 1319 226 1332 271 q 1268 133 1307 181 q 1165 54 1229 86 q 988 2 1100 22 q 726 -18 876 -18 m 479 -358 l 479 -233 l 626 -233 q 682 -203 682 -233 q 626 -171 682 -171 l 528 -171 l 528 0 l 704 0 l 704 -69 q 903 -104 850 -69 q 957 -210 957 -139 l 957 -214 q 902 -319 957 -281 q 703 -358 847 -358 l 479 -358 z "},"ş":{"ha":1082,"x_min":24,"x_max":1054,"o":"m 561 -21 l 504 -21 q 24 244 24 -21 l 24 253 l 343 253 q 535 151 343 151 l 538 151 q 663 163 618 151 q 719 188 708 174 q 731 222 731 201 l 731 225 q 699 272 731 257 q 567 290 668 288 l 433 293 q 234 317 317 296 q 109 372 151 338 q 49 444 67 407 q 31 526 31 482 l 31 535 q 40 604 31 574 q 78 667 49 635 q 158 719 108 699 q 296 754 208 740 q 503 768 383 768 l 558 768 q 1026 533 1026 768 l 1026 524 l 711 524 q 703 548 708 538 q 681 572 697 558 q 624 592 664 585 q 526 600 585 600 l 525 600 q 383 588 419 600 q 347 544 347 575 l 347 542 q 381 499 347 514 q 504 482 414 485 l 638 479 q 899 447 806 476 q 1023 372 992 418 q 1054 244 1054 325 l 1054 236 q 1034 137 1054 179 q 963 57 1014 94 q 811 -1 913 19 q 561 -21 710 -21 m 299 -358 l 299 -233 l 446 -233 q 501 -203 501 -233 q 446 -171 501 -171 l 347 -171 l 347 0 l 524 0 l 524 -69 q 723 -104 669 -69 q 776 -210 776 -139 l 776 -214 q 722 -319 776 -281 q 522 -358 667 -358 l 299 -358 z "},"Š":{"ha":1363,"x_min":26,"x_max":1332,"o":"m 726 -18 l 631 -18 q 361 8 476 -18 q 183 72 246 35 q 84 163 121 110 q 37 260 47 217 q 26 351 26 303 l 26 367 l 364 367 q 671 203 375 203 l 690 203 q 851 212 788 203 q 944 238 915 221 q 983 272 974 254 q 993 313 993 289 q 976 365 993 346 q 899 399 960 385 q 722 417 838 414 l 544 421 q 40 724 40 435 l 40 736 q 53 828 40 786 q 103 913 65 871 q 201 985 140 956 q 364 1033 261 1014 q 603 1051 467 1051 l 699 1051 q 949 1032 840 1051 q 1122 982 1057 1013 q 1227 907 1186 951 q 1283 819 1268 863 q 1299 725 1299 775 l 1299 711 l 963 711 q 955 740 960 728 q 932 771 950 751 q 885 803 914 790 q 798 825 856 815 q 664 835 740 835 l 642 835 q 463 820 525 835 q 387 790 400 806 q 374 746 374 774 q 388 703 374 719 q 458 672 403 686 q 613 657 513 658 l 786 654 q 1203 576 1075 649 q 1332 347 1332 503 l 1332 328 q 1319 226 1332 271 q 1268 133 1307 181 q 1165 54 1229 86 q 988 2 1100 22 q 726 -18 876 -18 m 488 1106 l 265 1314 l 571 1314 l 663 1233 l 753 1314 l 1054 1314 l 836 1106 l 488 1106 z "},"š":{"ha":1082,"x_min":24,"x_max":1054,"o":"m 561 -21 l 504 -21 q 24 244 24 -21 l 24 253 l 343 253 q 535 151 343 151 l 538 151 q 663 163 618 151 q 719 188 708 174 q 731 222 731 201 l 731 225 q 699 272 731 257 q 567 290 668 288 l 433 293 q 234 317 317 296 q 109 372 151 338 q 49 444 67 407 q 31 526 31 482 l 31 535 q 40 604 31 574 q 78 667 49 635 q 158 719 108 699 q 296 754 208 740 q 503 768 383 768 l 558 768 q 1026 533 1026 768 l 1026 524 l 711 524 q 703 548 708 538 q 681 572 697 558 q 624 592 664 585 q 526 600 585 600 l 525 600 q 383 588 419 600 q 347 544 347 575 l 347 542 q 381 499 347 514 q 504 482 414 485 l 638 479 q 899 447 806 476 q 1023 372 992 418 q 1054 244 1054 325 l 1054 236 q 1034 137 1054 179 q 963 57 1014 94 q 811 -1 913 19 q 561 -21 710 -21 m 357 819 l 146 1033 l 444 1033 l 529 946 l 614 1033 l 908 1033 l 700 819 l 357 819 z "},"Ţ":{"ha":1294,"x_min":39,"x_max":1256,"o":"m 483 0 l 483 789 l 39 789 l 39 1033 l 1256 1033 l 1256 789 l 810 789 l 810 0 l 483 0 m 749 -393 l 592 -393 q 632 -281 618 -333 l 493 -281 l 493 -72 l 803 -72 l 803 -239 q 749 -393 803 -301 z "},"ţ":{"ha":658,"x_min":19,"x_max":618,"o":"m 618 0 l 350 0 q 165 213 165 0 l 165 542 l 19 542 l 19 747 l 165 747 l 165 965 l 471 965 l 471 747 l 618 747 l 618 542 l 471 542 l 471 271 q 483 222 471 238 q 533 206 496 206 l 618 206 l 618 0 m 522 -393 l 365 -393 q 406 -281 392 -333 l 267 -281 l 267 -72 l 576 -72 l 576 -239 q 522 -393 576 -301 z "},"Ť":{"ha":1294,"x_min":39,"x_max":1256,"o":"m 483 0 l 483 789 l 39 789 l 39 1033 l 1256 1033 l 1256 789 l 810 789 l 810 0 l 483 0 m 475 1106 l 253 1314 l 558 1314 l 650 1233 l 740 1314 l 1042 1314 l 824 1106 l 475 1106 z "},"ť":{"ha":658,"x_min":19,"x_max":783,"o":"m 618 0 l 350 0 q 165 213 165 0 l 165 542 l 19 542 l 19 747 l 165 747 l 165 965 l 471 965 l 471 747 l 618 747 l 618 542 l 471 542 l 471 271 q 483 222 471 238 q 533 206 496 206 l 618 206 l 618 0 m 514 803 l 535 1033 l 783 1033 l 742 803 l 514 803 z "},"Ŧ":{"ha":1294,"x_min":39,"x_max":1256,"o":"m 1147 421 l 146 421 l 146 607 l 1147 607 l 1147 421 m 483 0 l 483 789 l 39 789 l 39 1033 l 1256 1033 l 1256 789 l 810 789 l 810 0 l 483 0 z "},"ŧ":{"ha":658,"x_min":19,"x_max":618,"o":"m 618 206 l 618 0 l 350 0 q 165 213 165 0 l 165 307 l 19 307 l 19 479 l 165 479 l 165 550 l 19 550 l 19 747 l 165 747 l 165 965 l 471 965 l 471 747 l 618 747 l 618 550 l 471 550 l 471 479 l 618 479 l 618 307 l 471 307 l 471 271 q 483 222 471 238 q 533 206 496 206 l 618 206 z "},"Ũ":{"ha":1463,"x_min":67,"x_max":1396,"o":"m 761 -15 l 711 -15 q 501 5 596 -15 q 340 58 406 25 q 225 139 275 92 q 146 235 175 186 q 98 339 117 283 q 73 440 79 394 q 67 532 67 486 l 67 1033 l 392 1033 l 392 551 q 406 448 392 496 q 456 353 421 400 q 562 280 490 307 q 733 253 633 253 q 902 280 832 253 q 1008 353 972 307 q 1058 448 1043 400 q 1072 551 1072 496 l 1072 1033 l 1396 1033 l 1396 532 q 1381 400 1396 467 q 1324 256 1367 333 q 1214 121 1281 179 q 1030 24 1147 63 q 761 -15 913 -15 m 910 1114 l 901 1114 q 724 1154 846 1114 q 639 1175 665 1175 q 614 1146 614 1175 l 614 1103 l 411 1103 l 411 1215 q 442 1311 411 1271 q 550 1351 472 1351 l 558 1351 q 736 1311 617 1351 q 821 1290 799 1290 q 846 1319 846 1290 l 846 1361 l 1049 1361 l 1049 1250 q 1018 1154 1049 1194 q 910 1114 988 1114 z "},"ũ":{"ha":1164,"x_min":63,"x_max":1099,"o":"m 1099 747 l 1099 0 l 792 0 l 792 129 q 760 99 768 107 q 712 64 751 92 q 638 23 672 36 q 547 -3 604 10 q 429 -17 490 -17 l 418 -17 q 151 73 240 -17 q 63 282 63 163 l 63 747 l 375 747 l 375 378 q 423 242 375 292 q 567 192 471 192 q 728 247 668 192 q 789 394 789 303 l 789 747 l 1099 747 m 754 825 l 746 825 q 574 864 692 825 q 494 885 511 885 q 472 856 472 885 l 472 815 l 272 815 l 272 921 q 302 1015 272 975 q 407 1056 332 1056 l 414 1056 q 467 1051 442 1056 q 511 1040 493 1046 q 586 1017 529 1035 q 665 996 649 996 q 688 1026 688 996 l 688 1067 l 888 1067 l 888 961 q 754 825 888 825 z "},"Ū":{"ha":1463,"x_min":67,"x_max":1396,"o":"m 761 -15 l 711 -15 q 501 5 596 -15 q 340 58 406 25 q 225 139 275 92 q 146 235 175 186 q 98 339 117 283 q 73 440 79 394 q 67 532 67 486 l 67 1033 l 392 1033 l 392 551 q 406 448 392 496 q 456 353 421 400 q 562 280 490 307 q 733 253 633 253 q 902 280 832 253 q 1008 353 972 307 q 1058 448 1043 400 q 1072 551 1072 496 l 1072 1033 l 1396 1033 l 1396 532 q 1381 400 1396 467 q 1324 256 1367 333 q 1214 121 1281 179 q 1030 24 1147 63 q 761 -15 913 -15 m 425 1117 l 425 1292 l 1038 1292 l 1038 1117 l 425 1117 z "},"ū":{"ha":1164,"x_min":63,"x_max":1099,"o":"m 1099 747 l 1099 0 l 792 0 l 792 129 q 760 99 768 107 q 712 64 751 92 q 638 23 672 36 q 547 -3 604 10 q 429 -17 490 -17 l 418 -17 q 151 73 240 -17 q 63 282 63 163 l 63 747 l 375 747 l 375 378 q 423 242 375 292 q 567 192 471 192 q 728 247 668 192 q 789 394 789 303 l 789 747 l 1099 747 m 288 835 l 288 1004 l 874 1004 l 874 835 l 288 835 z "},"Ŭ":{"ha":1463,"x_min":67,"x_max":1396,"o":"m 761 -15 l 711 -15 q 501 5 596 -15 q 340 58 406 25 q 225 139 275 92 q 146 235 175 186 q 98 339 117 283 q 73 440 79 394 q 67 532 67 486 l 67 1033 l 392 1033 l 392 551 q 406 448 392 496 q 456 353 421 400 q 562 280 490 307 q 733 253 633 253 q 902 280 832 253 q 1008 353 972 307 q 1058 448 1043 400 q 1072 551 1072 496 l 1072 1033 l 1396 1033 l 1396 532 q 1381 400 1396 467 q 1324 256 1367 333 q 1214 121 1281 179 q 1030 24 1147 63 q 761 -15 913 -15 m 757 1093 l 710 1093 q 582 1110 638 1093 q 494 1151 526 1126 q 442 1209 463 1176 q 415 1268 422 1242 q 408 1318 408 1294 l 408 1321 l 647 1321 q 653 1295 647 1308 q 679 1268 658 1282 q 735 1254 700 1254 q 801 1276 782 1254 q 821 1321 821 1299 l 1054 1321 l 1054 1318 q 1040 1253 1054 1289 q 993 1181 1025 1218 q 899 1118 961 1143 q 757 1093 838 1093 z "},"ŭ":{"ha":1164,"x_min":63,"x_max":1099,"o":"m 1099 747 l 1099 0 l 792 0 l 792 129 q 760 99 768 107 q 712 64 751 92 q 638 23 672 36 q 547 -3 604 10 q 429 -17 490 -17 l 418 -17 q 151 73 240 -17 q 63 282 63 163 l 63 747 l 375 747 l 375 378 q 423 242 375 292 q 567 192 471 192 q 728 247 668 192 q 789 394 789 303 l 789 747 l 1099 747 m 606 808 l 561 808 q 409 832 472 808 q 316 894 346 856 q 274 965 286 932 q 263 1031 263 999 l 263 1033 l 499 1033 q 518 989 499 1013 q 585 965 538 965 q 650 989 631 965 q 669 1033 669 1013 l 900 1033 l 900 1031 q 885 965 900 1000 q 840 894 871 931 q 747 833 808 857 q 606 808 686 808 z "},"Ů":{"ha":1463,"x_min":67,"x_max":1396,"o":"m 761 -15 l 711 -15 q 501 5 596 -15 q 340 58 406 25 q 225 139 275 92 q 146 235 175 186 q 98 339 117 283 q 73 440 79 394 q 67 532 67 486 l 67 1033 l 392 1033 l 392 551 q 406 448 392 496 q 456 353 421 400 q 562 280 490 307 q 733 253 633 253 q 902 280 832 253 q 1008 353 972 307 q 1058 448 1043 400 q 1072 551 1072 496 l 1072 1033 l 1396 1033 l 1396 532 q 1381 400 1396 467 q 1324 256 1367 333 q 1214 121 1281 179 q 1030 24 1147 63 q 761 -15 913 -15 m 465 1239 q 733 1400 465 1400 q 996 1239 996 1400 q 733 1075 996 1075 q 465 1239 465 1075 m 625 1239 q 733 1174 625 1174 q 838 1239 838 1174 q 733 1301 838 1301 q 625 1239 625 1301 z "},"ů":{"ha":1164,"x_min":63,"x_max":1099,"o":"m 1099 747 l 1099 0 l 792 0 l 792 129 q 760 99 768 107 q 712 64 751 92 q 638 23 672 36 q 547 -3 604 10 q 429 -17 490 -17 l 418 -17 q 151 73 240 -17 q 63 282 63 163 l 63 747 l 375 747 l 375 378 q 423 242 375 292 q 567 192 471 192 q 728 247 668 192 q 789 394 789 303 l 789 747 l 1099 747 m 318 971 q 583 1132 318 1132 q 843 971 843 1132 q 583 807 843 807 q 318 971 318 807 m 478 971 q 583 906 478 906 q 685 971 685 906 q 583 1033 685 1033 q 478 971 478 1033 z "},"Ű":{"ha":1463,"x_min":67,"x_max":1396,"o":"m 761 -15 l 711 -15 q 501 5 596 -15 q 340 58 406 25 q 225 139 275 92 q 146 235 175 186 q 98 339 117 283 q 73 440 79 394 q 67 532 67 486 l 67 1033 l 392 1033 l 392 551 q 406 448 392 496 q 456 353 421 400 q 562 280 490 307 q 733 253 633 253 q 902 280 832 253 q 1008 353 972 307 q 1058 448 1043 400 q 1072 551 1072 496 l 1072 1033 l 1396 1033 l 1396 532 q 1381 400 1396 467 q 1324 256 1367 333 q 1214 121 1281 179 q 1030 24 1147 63 q 761 -15 913 -15 m 760 1106 l 843 1314 l 1147 1314 l 1054 1106 l 760 1106 m 401 1106 l 475 1314 l 779 1314 l 696 1106 l 401 1106 z "},"ű":{"ha":1164,"x_min":63,"x_max":1099,"o":"m 1099 747 l 1099 0 l 792 0 l 792 129 q 760 99 768 107 q 712 64 751 92 q 638 23 672 36 q 547 -3 604 10 q 429 -17 490 -17 l 418 -17 q 151 73 240 -17 q 63 282 63 163 l 63 747 l 375 747 l 375 378 q 423 242 375 292 q 567 192 471 192 q 728 247 668 192 q 789 394 789 303 l 789 747 l 1099 747 m 614 819 l 697 1033 l 992 1033 l 899 819 l 614 819 m 265 819 l 339 1033 l 633 1033 l 550 819 l 265 819 z "},"Ų":{"ha":1463,"x_min":67,"x_max":1396,"o":"m 1043 -261 l 847 -261 q 667 -162 667 -261 l 667 -160 q 717 -76 667 -110 q 875 -10 768 -43 q 761 -15 825 -15 l 711 -15 q 501 5 596 -15 q 340 58 406 25 q 225 139 275 92 q 146 235 175 186 q 98 339 117 283 q 73 440 79 394 q 67 532 67 486 l 67 1033 l 392 1033 l 392 551 q 406 448 392 496 q 456 353 421 400 q 562 280 490 307 q 733 253 633 253 q 902 280 832 253 q 1008 353 972 307 q 1058 448 1043 400 q 1072 551 1072 496 l 1072 1033 l 1396 1033 l 1396 532 q 1056 4 1396 192 q 1001 -28 1019 -17 q 968 -56 983 -39 q 953 -87 953 -72 q 1006 -119 953 -119 l 1043 -119 l 1043 -261 z "},"ų":{"ha":1164,"x_min":63,"x_max":1099,"o":"m 1099 747 l 1099 0 l 792 0 l 792 129 q 760 99 768 107 q 712 64 751 92 q 638 23 672 36 q 547 -3 604 10 q 429 -17 490 -17 l 418 -17 q 151 73 240 -17 q 63 282 63 163 l 63 747 l 375 747 l 375 378 q 423 242 375 292 q 567 192 471 192 q 728 247 668 192 q 789 394 789 303 l 789 747 l 1099 747 m 1099 -261 l 911 -261 q 731 -162 731 -261 l 731 -160 q 788 -71 731 -107 q 965 0 846 -35 l 1099 0 q 1017 -87 1017 -56 q 1069 -119 1017 -119 l 1099 -119 l 1099 -261 z "},"Ŵ":{"ha":1976,"x_min":-17,"x_max":1993,"o":"m 765 0 l 408 0 l -17 1033 l 336 1033 l 603 322 l 833 1033 l 1178 1033 l 1414 343 l 1675 1033 l 1993 1033 l 1575 0 l 1249 0 l 1000 692 l 765 0 m 1175 1314 l 1397 1106 l 1092 1106 l 1000 1186 l 910 1106 l 608 1106 l 826 1314 l 1175 1314 z "},"ŵ":{"ha":1586,"x_min":-14,"x_max":1600,"o":"m 617 0 l 296 0 l -14 747 l 308 747 l 479 269 l 647 747 l 972 747 l 1146 269 l 1311 747 l 1600 747 l 1311 0 l 983 0 l 800 494 l 617 0 m 982 1035 l 1193 819 l 894 819 l 810 908 l 725 819 l 431 819 l 639 1035 l 982 1035 z "},"Ŷ":{"ha":1353,"x_min":-31,"x_max":1383,"o":"m 522 0 l 522 400 l -31 1033 l 371 1033 l 692 653 l 1018 1033 l 1383 1033 l 846 400 l 846 0 l 522 0 m 858 1314 l 1081 1106 l 775 1106 l 683 1186 l 593 1106 l 292 1106 l 510 1314 l 858 1314 z "},"ŷ":{"ha":1088,"x_min":-15,"x_max":1103,"o":"m 165 -261 l 165 -39 l 340 -39 q 376 -15 376 -39 q 342 64 376 -3 l -15 747 l 318 747 l 558 242 l 792 747 l 1103 747 l 711 -50 q 594 -211 656 -161 q 436 -261 533 -261 l 165 -261 m 728 1035 l 939 819 l 640 819 l 556 908 l 471 819 l 176 819 l 385 1035 l 728 1035 z "},"Ÿ":{"ha":1353,"x_min":-31,"x_max":1383,"o":"m 522 0 l 522 400 l -31 1033 l 371 1033 l 692 653 l 1018 1033 l 1383 1033 l 846 400 l 846 0 l 522 0 m 1035 1314 l 1035 1106 l 726 1106 l 726 1314 l 1035 1314 m 654 1314 l 654 1106 l 346 1106 l 346 1314 l 654 1314 z "},"Ź":{"ha":1268,"x_min":47,"x_max":1221,"o":"m 58 1033 l 1211 1033 l 1211 844 l 503 244 l 1221 244 l 1221 0 l 47 0 l 47 190 l 738 794 l 58 794 l 58 1033 m 439 1106 l 564 1314 l 897 1314 l 751 1106 l 439 1106 z "},"ź":{"ha":1006,"x_min":33,"x_max":972,"o":"m 972 0 l 33 0 l 33 181 l 540 546 l 33 546 l 33 747 l 969 747 l 969 574 l 439 207 l 972 207 l 972 0 m 339 819 l 464 1033 l 783 1033 l 635 819 l 339 819 z "},"Ż":{"ha":1268,"x_min":47,"x_max":1221,"o":"m 58 1033 l 1211 1033 l 1211 844 l 503 244 l 1221 244 l 1221 0 l 47 0 l 47 190 l 738 794 l 58 794 l 58 1033 m 789 1319 l 789 1106 l 479 1106 l 479 1319 l 789 1319 z "},"ż":{"ha":1006,"x_min":33,"x_max":972,"o":"m 972 0 l 33 0 l 33 181 l 540 546 l 33 546 l 33 747 l 969 747 l 969 574 l 439 207 l 972 207 l 972 0 m 657 1033 l 657 819 l 347 819 l 347 1033 l 657 1033 z "},"Ž":{"ha":1268,"x_min":47,"x_max":1221,"o":"m 58 1033 l 1211 1033 l 1211 844 l 503 244 l 1221 244 l 1221 0 l 47 0 l 47 190 l 738 794 l 58 794 l 58 1033 m 461 1106 l 239 1314 l 544 1314 l 636 1233 l 726 1314 l 1028 1314 l 810 1106 l 461 1106 z "},"ž":{"ha":1006,"x_min":33,"x_max":972,"o":"m 972 0 l 33 0 l 33 181 l 540 546 l 33 546 l 33 747 l 969 747 l 969 574 l 439 207 l 972 207 l 972 0 m 333 819 l 122 1033 l 421 1033 l 506 946 l 590 1033 l 885 1033 l 676 819 l 333 819 z "},"ƒ":{"ha":707,"x_min":33,"x_max":658,"o":"m 658 457 l 476 457 l 438 -261 l 136 -261 l 174 457 l 33 457 l 33 663 l 185 663 l 193 836 q 206 906 194 875 q 243 968 217 938 q 323 1016 269 999 q 454 1033 376 1033 l 658 1033 l 658 828 l 550 828 q 515 819 526 828 q 499 801 503 811 q 493 767 496 790 l 488 663 l 658 663 l 658 457 z "},"Ǻ":{"ha":1450,"x_min":-22,"x_max":1472,"o":"m 574 1449 l 699 1663 l 1018 1663 l 869 1449 l 574 1449 m 907 422 l 707 810 l 515 422 l 907 422 m 1124 0 l 1026 189 l 400 189 l 307 0 l -22 0 l 500 1033 l 919 1033 l 1472 0 l 1124 0 m 449 1250 q 717 1411 449 1411 q 979 1250 979 1411 q 717 1086 979 1086 q 449 1250 449 1086 m 608 1250 q 717 1185 608 1185 q 821 1250 821 1185 q 717 1313 821 1313 q 608 1250 608 1313 z "},"ǻ":{"ha":1111,"x_min":22,"x_max":1103,"o":"m 725 332 l 725 356 l 429 310 q 342 285 367 300 q 317 240 317 271 l 317 239 q 349 179 317 204 q 453 154 381 154 q 649 208 572 154 q 725 332 725 263 m 733 103 q 615 23 699 60 q 388 -14 532 -14 l 369 -14 q 108 56 193 -14 q 22 231 22 125 l 22 240 q 95 396 22 343 q 336 464 168 449 l 678 496 q 725 535 725 501 q 716 564 725 553 q 661 585 707 575 q 531 596 615 596 l 524 596 q 433 589 471 596 q 376 574 394 582 q 345 552 357 567 q 331 531 333 538 q 328 513 329 525 l 40 513 l 40 515 q 46 580 40 551 q 78 646 51 608 q 149 708 104 683 q 280 751 193 733 q 486 768 367 768 l 563 768 q 776 753 688 768 q 913 715 865 738 q 986 658 960 693 q 1018 594 1013 622 q 1024 526 1024 567 l 1024 240 q 1063 203 1024 203 l 1103 203 l 1103 0 l 851 0 q 733 103 750 0 m 261 971 q 526 1132 261 1132 q 786 971 786 1132 q 526 807 786 807 q 261 971 261 807 m 421 971 q 526 906 421 906 q 628 971 628 906 q 526 1033 628 1033 q 421 971 421 1033 m 385 1169 l 510 1383 l 829 1383 l 681 1169 l 385 1169 z "},"Ǽ":{"ha":2046,"x_min":-43,"x_max":1990,"o":"m 901 414 l 901 800 l 606 414 l 901 414 m 901 0 l 901 181 l 428 181 l 289 0 l -43 0 l 744 1033 l 1976 1033 l 1976 799 l 1221 799 l 1221 646 l 1958 646 l 1958 410 l 1221 410 l 1221 240 l 1990 240 l 1990 0 l 901 0 m 1204 1106 l 1329 1314 l 1663 1314 l 1517 1106 l 1204 1106 z "},"ǽ":{"ha":1857,"x_min":22,"x_max":1828,"o":"m 1272 594 l 1269 594 q 1022 468 1060 594 l 1519 468 q 1272 594 1490 594 m 451 153 q 642 207 567 153 q 717 332 717 261 l 717 356 l 424 311 q 340 288 364 303 q 315 243 315 272 l 315 242 q 348 179 315 206 q 451 153 381 153 m 1825 264 l 1825 263 q 1816 194 1825 226 q 1775 120 1807 161 q 1691 49 1743 79 q 1542 -1 1639 19 q 1318 -21 1446 -21 l 1236 -21 q 782 147 910 -21 q 743 104 767 126 q 675 53 719 82 q 561 5 631 24 q 410 -14 492 -14 l 392 -14 q 110 55 199 -14 q 22 231 22 124 l 22 240 q 97 397 22 343 q 333 467 171 451 l 685 499 q 717 538 717 503 q 707 565 717 554 q 653 585 697 576 q 525 594 608 594 l 515 594 q 426 588 464 594 q 371 574 389 581 q 342 552 353 567 q 331 532 332 538 q 326 513 329 526 l 40 513 l 40 515 q 45 581 40 553 q 75 647 50 608 q 144 709 100 685 q 275 751 189 733 q 481 768 361 768 l 557 768 q 907 697 818 768 q 1228 768 1011 768 l 1317 768 q 1828 365 1828 768 l 1828 314 l 1017 314 q 1279 168 1044 168 l 1281 168 q 1384 176 1339 168 q 1454 197 1429 185 q 1496 222 1479 208 q 1517 247 1513 236 q 1522 264 1522 257 l 1825 264 m 763 819 l 888 1033 l 1207 1033 l 1058 819 l 763 819 z "},"Ǿ":{"ha":1589,"x_min":-8,"x_max":1596,"o":"m 642 1106 l 767 1314 l 1100 1314 l 954 1106 l 642 1106 m 826 -18 l 765 -18 q 353 51 521 -18 l 288 0 l -8 0 l 44 42 q 80 70 54 50 q 132 111 106 90 q 185 153 158 132 q 38 499 38 285 l 38 540 q 43 628 38 586 q 67 723 49 669 q 117 821 86 776 q 204 909 149 865 q 334 983 260 953 q 519 1033 408 1014 q 765 1051 629 1051 l 826 1051 q 1233 983 1074 1051 l 1299 1033 l 1596 1033 l 1403 882 q 1551 540 1551 749 l 1551 499 q 1546 411 1551 453 q 1521 316 1540 369 q 1470 217 1501 263 q 1383 128 1439 172 q 1254 52 1328 83 q 1071 1 1181 21 q 826 -18 961 -18 m 376 531 l 376 514 q 431 349 376 414 l 983 786 q 794 800 910 800 q 376 531 376 800 m 794 235 q 1005 260 918 235 q 1135 328 1092 285 q 1195 415 1178 371 q 1213 511 1213 460 l 1213 531 q 1161 690 1213 632 l 604 250 q 794 235 685 235 z "},"ǿ":{"ha":1231,"x_min":-25,"x_max":1257,"o":"m 468 819 l 593 1033 l 913 1033 l 764 819 l 468 819 m 665 -21 l 568 -21 q 265 38 385 -21 l 213 0 l -25 0 l 140 119 q 31 365 31 219 l 31 390 q 44 496 31 446 q 95 597 58 546 q 190 685 132 649 q 345 745 249 722 q 567 768 442 768 l 664 768 q 967 713 838 768 l 1017 747 l 1257 747 l 1093 631 q 1200 390 1200 536 l 1200 365 q 665 -21 1200 -21 m 342 381 l 342 374 q 367 279 342 319 l 751 553 q 618 569 697 569 l 617 569 q 405 516 468 569 q 342 381 342 463 m 617 181 q 827 238 764 181 q 890 374 890 294 l 890 381 q 869 468 890 432 l 490 196 q 617 181 547 181 z "},"Ș":{"ha":1363,"x_min":26,"x_max":1332,"o":"m 726 -18 l 631 -18 q 361 8 476 -18 q 183 72 246 35 q 84 163 121 110 q 37 260 47 217 q 26 351 26 303 l 26 367 l 364 367 q 671 203 375 203 l 690 203 q 851 212 788 203 q 944 238 915 221 q 983 272 974 254 q 993 313 993 289 q 976 365 993 346 q 899 399 960 385 q 722 417 838 414 l 544 421 q 40 724 40 435 l 40 736 q 53 828 40 786 q 103 913 65 871 q 201 985 140 956 q 364 1033 261 1014 q 603 1051 467 1051 l 699 1051 q 949 1032 840 1051 q 1122 982 1057 1013 q 1227 907 1186 951 q 1283 819 1268 863 q 1299 725 1299 775 l 1299 711 l 963 711 q 955 740 960 728 q 932 771 950 751 q 885 803 914 790 q 798 825 856 815 q 664 835 740 835 l 642 835 q 463 820 525 835 q 387 790 400 806 q 374 746 374 774 q 388 703 374 719 q 458 672 403 686 q 613 657 513 658 l 786 654 q 1203 576 1075 649 q 1332 347 1332 503 l 1332 328 q 1319 226 1332 271 q 1268 133 1307 181 q 1165 54 1229 86 q 988 2 1100 22 q 726 -18 876 -18 m 776 -393 l 619 -393 q 660 -281 646 -333 l 521 -281 l 521 -72 l 831 -72 l 831 -239 q 776 -393 831 -301 z "},"ș":{"ha":1082,"x_min":24,"x_max":1054,"o":"m 561 -21 l 504 -21 q 24 244 24 -21 l 24 253 l 343 253 q 535 151 343 151 l 538 151 q 663 163 618 151 q 719 188 708 174 q 731 222 731 201 l 731 225 q 699 272 731 257 q 567 290 668 288 l 433 293 q 234 317 317 296 q 109 372 151 338 q 49 444 67 407 q 31 526 31 482 l 31 535 q 40 604 31 574 q 78 667 49 635 q 158 719 108 699 q 296 754 208 740 q 503 768 383 768 l 558 768 q 1026 533 1026 768 l 1026 524 l 711 524 q 703 548 708 538 q 681 572 697 558 q 624 592 664 585 q 526 600 585 600 l 525 600 q 383 588 419 600 q 347 544 347 575 l 347 542 q 381 499 347 514 q 504 482 414 485 l 638 479 q 899 447 806 476 q 1023 372 992 418 q 1054 244 1054 325 l 1054 236 q 1034 137 1054 179 q 963 57 1014 94 q 811 -1 913 19 q 561 -21 710 -21 m 640 -393 l 483 -393 q 524 -281 510 -333 l 385 -281 l 385 -72 l 694 -72 l 694 -239 q 640 -393 694 -301 z "},"Ț":{"ha":1294,"x_min":39,"x_max":1256,"o":"m 483 0 l 483 789 l 39 789 l 39 1033 l 1256 1033 l 1256 789 l 810 789 l 810 0 l 483 0 m 749 -393 l 592 -393 q 632 -281 618 -333 l 493 -281 l 493 -72 l 803 -72 l 803 -239 q 749 -393 803 -301 z "},"ț":{"ha":658,"x_min":19,"x_max":618,"o":"m 618 0 l 350 0 q 165 213 165 0 l 165 542 l 19 542 l 19 747 l 165 747 l 165 965 l 471 965 l 471 747 l 618 747 l 618 542 l 471 542 l 471 271 q 483 222 471 238 q 533 206 496 206 l 618 206 l 618 0 m 522 -393 l 365 -393 q 406 -281 392 -333 l 267 -281 l 267 -72 l 576 -72 l 576 -239 q 522 -393 576 -301 z "},"ȷ":{"ha":440,"x_min":-36,"x_max":375,"o":"m -36 -43 l 21 -43 q 56 -33 46 -43 q 65 10 65 -22 l 65 747 l 375 747 l 375 -68 q 336 -214 375 -167 q 233 -261 297 -261 l -36 -261 l -36 -43 z "},"ˆ":{"ha":981,"x_min":108,"x_max":871,"o":"m 660 1035 l 871 819 l 572 819 l 488 908 l 403 819 l 108 819 l 317 1035 l 660 1035 z "},"ˇ":{"ha":981,"x_min":108,"x_max":871,"o":"m 319 819 l 108 1033 l 407 1033 l 492 946 l 576 1033 l 871 1033 l 663 819 l 319 819 z "},"˘":{"ha":981,"x_min":171,"x_max":808,"o":"m 514 808 l 469 808 q 317 832 381 808 q 224 894 254 856 q 183 965 194 932 q 171 1031 171 999 l 171 1033 l 407 1033 q 426 989 407 1013 q 493 965 446 965 q 558 989 539 965 q 578 1033 578 1013 l 808 1033 l 808 1031 q 794 965 808 1000 q 748 894 779 931 q 656 833 717 857 q 514 808 594 808 z "},"˙":{"ha":981,"x_min":335,"x_max":644,"o":"m 644 1033 l 644 819 l 335 819 l 335 1033 l 644 1033 z "},"˚":{"ha":981,"x_min":228,"x_max":753,"o":"m 228 971 q 493 1132 228 1132 q 753 971 753 1132 q 493 807 753 807 q 228 971 228 807 m 388 971 q 493 906 388 906 q 594 971 594 906 q 493 1033 594 1033 q 388 971 388 1033 z "},"˛":{"ha":981,"x_min":299,"x_max":667,"o":"m 667 -261 l 479 -261 q 299 -162 299 -261 l 299 -160 q 356 -71 299 -107 q 533 0 414 -35 l 667 0 q 585 -87 585 -56 q 638 -119 585 -119 l 667 -119 l 667 -261 z "},"˜":{"ha":981,"x_min":182,"x_max":797,"o":"m 664 825 l 656 825 q 483 864 601 825 q 404 885 421 885 q 382 856 382 885 l 382 815 l 182 815 l 182 921 q 212 1015 182 975 q 317 1056 242 1056 l 324 1056 q 377 1051 351 1056 q 421 1040 403 1046 q 496 1017 439 1035 q 575 996 558 996 q 597 1026 597 996 l 597 1067 l 797 1067 l 797 961 q 664 825 797 825 z "},"˝":{"ha":981,"x_min":128,"x_max":854,"o":"m 476 819 l 560 1033 l 854 1033 l 761 819 l 476 819 m 128 819 l 201 1033 l 496 1033 l 413 819 l 128 819 z "},"Ẁ":{"ha":1976,"x_min":-17,"x_max":1993,"o":"m 765 0 l 408 0 l -17 1033 l 336 1033 l 603 322 l 833 1033 l 1178 1033 l 1414 343 l 1675 1033 l 1993 1033 l 1575 0 l 1249 0 l 1000 692 l 765 0 m 1028 1314 l 1153 1106 l 840 1106 l 694 1314 l 1028 1314 z "},"ẁ":{"ha":1586,"x_min":-14,"x_max":1600,"o":"m 617 0 l 296 0 l -14 747 l 308 747 l 479 269 l 647 747 l 972 747 l 1146 269 l 1311 747 l 1600 747 l 1311 0 l 983 0 l 800 494 l 617 0 m 951 819 l 653 819 l 504 1033 l 826 1033 l 951 819 z "},"Ẃ":{"ha":1976,"x_min":-17,"x_max":1993,"o":"m 765 0 l 408 0 l -17 1033 l 336 1033 l 603 322 l 833 1033 l 1178 1033 l 1414 343 l 1675 1033 l 1993 1033 l 1575 0 l 1249 0 l 1000 692 l 765 0 m 857 1106 l 982 1314 l 1315 1314 l 1169 1106 l 857 1106 z "},"ẃ":{"ha":1586,"x_min":-14,"x_max":1600,"o":"m 617 0 l 296 0 l -14 747 l 308 747 l 479 269 l 647 747 l 972 747 l 1146 269 l 1311 747 l 1600 747 l 1311 0 l 983 0 l 800 494 l 617 0 m 669 819 l 794 1033 l 1114 1033 l 965 819 l 669 819 z "},"Ẅ":{"ha":1976,"x_min":-17,"x_max":1993,"o":"m 765 0 l 408 0 l -17 1033 l 336 1033 l 603 322 l 833 1033 l 1178 1033 l 1414 343 l 1675 1033 l 1993 1033 l 1575 0 l 1249 0 l 1000 692 l 765 0 m 1347 1314 l 1347 1106 l 1039 1106 l 1039 1314 l 1347 1314 m 967 1314 l 967 1106 l 658 1106 l 658 1314 l 967 1314 z "},"ẅ":{"ha":1586,"x_min":-14,"x_max":1600,"o":"m 617 0 l 296 0 l -14 747 l 308 747 l 479 269 l 647 747 l 972 747 l 1146 269 l 1311 747 l 1600 747 l 1311 0 l 983 0 l 800 494 l 617 0 m 1144 1033 l 1144 819 l 844 819 l 844 1033 l 1144 1033 m 775 1033 l 775 819 l 476 819 l 476 1033 l 775 1033 z "},"Ỳ":{"ha":1353,"x_min":-31,"x_max":1383,"o":"m 522 0 l 522 400 l -31 1033 l 371 1033 l 692 653 l 1018 1033 l 1383 1033 l 846 400 l 846 0 l 522 0 m 733 1314 l 858 1106 l 546 1106 l 400 1314 l 733 1314 z "},"ỳ":{"ha":1088,"x_min":-15,"x_max":1103,"o":"m 165 -261 l 165 -39 l 340 -39 q 376 -15 376 -39 q 342 64 376 -3 l -15 747 l 318 747 l 558 242 l 792 747 l 1103 747 l 711 -50 q 594 -211 656 -161 q 436 -261 533 -261 l 165 -261 m 713 819 l 414 819 l 265 1033 l 588 1033 l 713 819 z "}," ":{"ha":42,"x_min":0,"x_max":0,"o":""},"–":{"ha":1238,"x_min":53,"x_max":1185,"o":"m 53 506 l 1185 506 l 1185 325 l 53 325 l 53 506 z "},"—":{"ha":1815,"x_min":53,"x_max":1763,"o":"m 53 506 l 1763 506 l 1763 325 l 53 325 l 53 506 z "},"‘":{"ha":417,"x_min":47,"x_max":369,"o":"m 111 1033 l 281 1033 q 231 903 239 957 l 369 903 l 369 692 l 47 692 l 47 865 q 111 1033 47 947 z "},"’":{"ha":417,"x_min":47,"x_max":369,"o":"m 306 692 l 136 692 q 186 822 178 768 l 47 822 l 47 1033 l 369 1033 l 369 860 q 306 692 369 778 z "},"‚":{"ha":417,"x_min":47,"x_max":369,"o":"m 306 -131 l 136 -131 q 186 0 178 -54 l 47 0 l 47 211 l 369 211 l 369 38 q 306 -131 369 -44 z "},"“":{"ha":793,"x_min":47,"x_max":746,"o":"m 111 1033 l 281 1033 q 231 903 239 957 l 369 903 l 369 692 l 47 692 l 47 865 q 111 1033 47 947 m 488 1033 l 657 1033 q 607 903 615 957 l 746 903 l 746 692 l 424 692 l 424 865 q 488 1033 424 947 z "},"”":{"ha":793,"x_min":47,"x_max":746,"o":"m 306 692 l 136 692 q 186 822 178 768 l 47 822 l 47 1033 l 369 1033 l 369 860 q 306 692 369 778 m 682 692 l 513 692 q 563 822 554 768 l 424 822 l 424 1033 l 746 1033 l 746 860 q 682 692 746 778 z "},"„":{"ha":793,"x_min":47,"x_max":746,"o":"m 682 -131 l 513 -131 q 563 0 554 -54 l 424 0 l 424 211 l 746 211 l 746 38 q 682 -131 746 -44 m 306 -131 l 136 -131 q 186 0 178 -54 l 47 0 l 47 211 l 369 211 l 369 38 q 306 -131 369 -44 z "},"†":{"ha":803,"x_min":38,"x_max":765,"o":"m 254 0 l 254 593 l 38 593 l 38 808 l 254 808 l 254 1033 l 547 1033 l 547 808 l 765 808 l 765 593 l 547 593 l 547 0 l 254 0 z "},"‡":{"ha":814,"x_min":46,"x_max":768,"o":"m 264 208 l 46 208 l 46 419 l 264 419 l 264 619 l 46 619 l 46 831 l 264 831 l 264 1033 l 550 1033 l 550 831 l 768 831 l 768 619 l 550 619 l 550 419 l 768 419 l 768 208 l 550 208 l 550 0 l 264 0 l 264 208 z "},"•":{"ha":597,"x_min":42,"x_max":556,"o":"m 483 638 q 519 604 483 638 q 556 458 556 569 q 483 278 556 347 q 299 208 411 208 q 114 278 186 208 q 42 458 42 347 q 114 638 42 569 q 299 707 186 707 q 483 638 411 707 z "},"…":{"ha":1263,"x_min":49,"x_max":1214,"o":"m 383 243 l 383 0 l 49 0 l 49 243 l 383 243 m 799 243 l 799 0 l 464 0 l 464 243 l 799 243 m 1214 243 l 1214 0 l 879 0 l 879 243 l 1214 243 z "},"‰":{"ha":2821,"x_min":39,"x_max":2782,"o":"m 464 446 l 431 446 q 261 467 335 446 q 147 518 188 488 q 80 590 106 549 q 47 667 54 632 q 39 736 39 701 l 39 760 q 47 830 39 796 q 80 905 54 864 q 147 976 106 946 q 261 1026 188 1006 q 431 1046 335 1046 l 464 1046 q 633 1026 560 1046 q 747 976 706 1006 q 813 905 788 946 q 847 830 839 864 q 854 760 854 796 l 854 736 q 840 647 854 690 q 787 554 825 603 q 666 476 749 506 q 464 446 583 446 m 1397 1033 l 1672 1033 l 558 0 l 285 0 l 1397 1033 m 446 617 q 586 653 542 617 q 631 742 631 690 l 631 753 q 446 875 631 875 q 264 753 264 875 l 264 744 q 308 653 264 690 q 446 617 351 617 m 1529 -11 l 1494 -11 q 1326 10 1399 -11 q 1212 62 1253 31 q 1145 135 1171 93 q 1111 211 1119 176 q 1103 281 1103 246 l 1103 304 q 1111 374 1103 339 q 1145 449 1119 408 q 1212 519 1171 489 q 1326 570 1253 550 q 1494 590 1399 590 l 1529 590 q 1730 561 1647 590 q 1851 485 1813 532 q 1904 394 1889 438 q 1919 304 1919 350 l 1919 281 q 1912 211 1919 246 q 1878 135 1904 176 q 1813 62 1853 93 q 1699 10 1772 31 q 1529 -11 1625 -11 m 2393 -11 l 2358 -11 q 2190 10 2263 -11 q 2076 62 2117 31 q 2009 135 2035 93 q 1975 211 1983 176 q 1967 281 1967 246 l 1967 304 q 1975 374 1967 339 q 2009 449 1983 408 q 2076 519 2035 489 q 2190 570 2117 550 q 2358 590 2263 590 l 2393 590 q 2562 570 2489 590 q 2675 519 2635 550 q 2741 448 2715 489 q 2774 373 2767 407 q 2782 304 2782 339 l 2782 281 q 2774 210 2782 244 q 2742 135 2767 176 q 2676 62 2717 93 q 2563 10 2636 31 q 2393 -11 2489 -11 m 1372 198 q 1393 180 1372 198 q 1511 161 1415 161 q 1651 198 1607 161 q 1696 286 1696 235 l 1696 297 q 1652 385 1696 350 q 1511 419 1608 419 q 1371 385 1414 419 q 1328 297 1328 350 l 1328 289 q 1372 198 1328 235 m 2375 161 q 2515 198 2469 161 q 2560 286 2560 235 l 2560 297 q 2516 385 2560 350 q 2375 419 2472 419 q 2235 385 2278 419 q 2192 297 2192 350 l 2192 289 q 2235 198 2192 235 q 2375 161 2279 161 z "},"′":{"ha":356,"x_min":24,"x_max":332,"o":"m 332 1033 l 272 690 l 24 690 l 83 1033 l 332 1033 z "},"″":{"ha":661,"x_min":24,"x_max":638,"o":"m 329 1033 l 269 690 l 24 690 l 83 1033 l 329 1033 m 578 690 l 332 690 l 392 1033 l 638 1033 l 578 690 z "},"‹":{"ha":467,"x_min":19,"x_max":444,"o":"m 438 163 l 204 163 l 19 399 l 207 632 l 444 632 l 261 399 l 438 163 z "},"›":{"ha":467,"x_min":22,"x_max":447,"o":"m 264 163 l 29 163 l 206 399 l 22 632 l 260 632 l 447 399 l 264 163 z "},"⁄":{"ha":1325,"x_min":4,"x_max":1321,"o":"m 1082 1033 l 1321 1033 l 236 0 l 4 0 l 1082 1033 z "},"€":{"ha":1567,"x_min":15,"x_max":1533,"o":"m 874 -18 l 814 -18 q 544 15 663 -18 q 351 106 425 49 q 235 227 278 164 q 171 364 192 290 l 15 364 l 15 485 l 151 485 l 151 561 l 15 561 l 15 683 l 172 683 q 235 817 193 756 q 351 933 278 878 q 542 1020 424 989 q 814 1051 661 1051 l 874 1051 q 1153 1020 1031 1051 q 1344 944 1275 989 q 1458 840 1414 899 q 1517 735 1503 782 q 1532 644 1532 688 l 1532 629 l 1188 629 q 1178 658 1185 642 q 1147 702 1171 675 q 1088 750 1122 729 q 988 787 1053 771 q 840 803 922 803 q 526 683 604 803 l 953 683 l 953 561 l 490 561 q 489 533 489 551 l 489 517 q 490 485 489 496 l 953 485 l 953 364 l 531 364 q 843 232 614 232 q 992 249 926 232 q 1091 288 1057 267 q 1149 341 1125 310 q 1179 387 1174 372 q 1189 417 1185 401 l 1533 417 l 1533 401 q 1519 306 1533 356 q 1460 197 1504 257 q 1346 91 1415 138 q 1154 13 1276 44 q 874 -18 1032 -18 z "},"℗":{"ha":1618,"x_min":38,"x_max":1581,"o":"m 1581 538 l 1581 499 q 831 -15 1581 -15 l 788 -15 q 38 499 38 -15 l 38 538 q 58 692 38 621 q 130 830 78 763 q 265 944 182 897 q 481 1020 347 992 q 789 1049 615 1049 l 829 1049 q 1137 1020 1003 1049 q 1353 944 1271 992 q 1488 830 1436 897 q 1560 692 1540 763 q 1581 538 1581 621 m 792 111 l 826 111 q 1108 144 990 111 q 1288 234 1225 176 q 1380 359 1351 292 q 1408 508 1408 426 l 1408 525 q 1381 683 1408 615 q 1289 808 1353 751 q 1108 893 1225 864 q 826 922 992 922 l 792 922 q 510 893 626 922 q 329 808 393 864 q 238 683 265 751 q 210 525 210 615 l 210 508 q 238 359 210 426 q 330 234 267 292 q 510 144 393 176 q 792 111 628 111 m 921 364 l 703 364 l 703 219 l 460 219 l 460 819 l 921 819 q 1087 803 1019 819 q 1188 753 1154 786 q 1235 684 1222 721 q 1249 597 1249 647 l 1249 586 q 1178 424 1249 483 q 921 364 1107 364 m 703 660 l 703 519 l 914 519 q 1008 588 1008 519 l 1008 593 q 914 660 1008 660 l 703 660 z "},"™":{"ha":1536,"x_min":25,"x_max":1486,"o":"m 613 883 l 421 883 l 421 536 l 217 536 l 217 883 l 25 883 l 25 1033 l 613 1033 l 613 883 m 671 536 l 671 1033 l 963 1033 l 1085 771 l 1207 1033 l 1486 1033 l 1486 536 l 1304 536 l 1304 874 l 1146 536 l 1010 536 l 851 874 l 851 536 l 671 536 z "},"⅓":{"ha":1418,"x_min":-79,"x_max":1406,"o":"m 153 815 l 21 815 l 21 929 q 190 1033 149 936 l 357 1033 l 357 522 l 153 522 l 153 815 m 999 1033 l 1238 1033 l 153 0 l -79 0 l 999 1033 m 1067 -7 l 1021 -7 q 874 8 936 -7 q 778 45 811 24 q 726 96 746 67 q 703 146 707 125 q 699 188 699 167 l 699 194 l 915 194 q 1047 131 915 131 q 1182 174 1182 131 l 1182 176 q 1119 207 1182 207 l 950 207 l 950 329 l 1111 329 q 1172 356 1172 329 l 1172 358 q 1040 390 1172 390 q 913 342 913 390 l 706 342 l 706 349 q 708 378 706 364 q 721 413 711 392 q 752 452 731 435 q 806 485 774 469 q 892 510 838 501 q 1015 519 946 519 l 1058 519 q 1235 508 1164 519 q 1336 474 1306 496 q 1377 432 1367 451 q 1388 386 1388 413 l 1388 382 q 1361 326 1388 350 q 1290 296 1335 303 q 1374 256 1342 288 q 1406 175 1406 225 l 1406 169 q 1067 -7 1406 -7 z "},"⅔":{"ha":1732,"x_min":19,"x_max":1719,"o":"m 1314 1033 l 1553 1033 l 468 0 l 236 0 l 1314 1033 m 686 522 l 19 522 l 19 582 q 30 654 19 624 q 72 720 40 685 q 174 784 104 756 q 349 832 243 813 q 471 882 471 854 q 363 914 471 914 q 238 849 238 914 l 28 849 l 28 854 q 343 1042 28 1042 l 369 1042 q 532 1029 467 1042 q 629 992 597 1017 q 674 942 661 968 q 686 878 686 915 l 686 872 q 620 768 686 799 q 392 713 554 738 q 218 678 242 689 q 204 667 208 672 l 686 667 l 686 522 m 1381 -7 l 1335 -7 q 1188 8 1250 -7 q 1092 45 1125 24 q 1040 96 1060 67 q 1017 146 1021 125 q 1013 188 1013 167 l 1013 194 l 1229 194 q 1361 131 1229 131 q 1496 174 1496 131 l 1496 176 q 1433 207 1496 207 l 1264 207 l 1264 329 l 1425 329 q 1486 356 1486 329 l 1486 358 q 1354 390 1486 390 q 1226 342 1226 390 l 1019 342 l 1019 349 q 1022 378 1019 364 q 1035 413 1025 392 q 1066 452 1044 435 q 1119 485 1088 469 q 1206 510 1151 501 q 1329 519 1260 519 l 1372 519 q 1549 508 1478 519 q 1650 474 1619 496 q 1691 432 1681 451 q 1701 386 1701 413 l 1701 382 q 1675 326 1701 350 q 1604 296 1649 303 q 1688 256 1656 288 q 1719 175 1719 225 l 1719 169 q 1381 -7 1719 -7 z "},"⅛":{"ha":1428,"x_min":-79,"x_max":1411,"o":"m 999 1033 l 1238 1033 l 153 0 l -79 0 l 999 1033 m 153 815 l 21 815 l 21 929 q 190 1033 149 936 l 357 1033 l 357 522 l 153 522 l 153 815 m 1399 381 l 1399 372 q 1365 306 1399 333 q 1285 269 1332 278 q 1376 232 1340 263 q 1411 157 1411 201 l 1411 147 q 1078 -7 1411 -7 l 1044 -7 q 711 147 711 -7 l 711 157 q 747 230 711 199 q 838 269 782 261 q 756 306 789 278 q 724 372 724 333 l 724 381 q 1044 518 724 518 l 1078 518 q 1399 381 1399 518 m 1182 364 l 1182 365 q 1060 403 1182 403 q 939 365 939 403 l 939 364 q 1060 325 939 325 q 1182 364 1182 325 m 1197 163 l 1197 165 q 1060 207 1197 207 q 925 165 925 207 l 925 163 q 1060 119 925 119 q 1197 163 1197 119 z "},"⅜":{"ha":1703,"x_min":13,"x_max":1686,"o":"m 1272 1033 l 1511 1033 l 426 0 l 194 0 l 1272 1033 m 381 517 l 335 517 q 188 532 250 517 q 92 569 125 547 q 40 619 60 590 q 17 669 21 649 q 13 711 13 690 l 13 718 l 229 718 q 361 654 229 654 q 496 697 496 654 l 496 700 q 433 731 496 731 l 264 731 l 264 853 l 425 853 q 486 879 486 853 l 486 882 q 354 914 486 914 q 226 865 226 914 l 19 865 l 19 872 q 22 901 19 888 q 35 937 25 915 q 66 976 44 958 q 119 1009 88 993 q 206 1034 151 1025 q 329 1043 260 1043 l 372 1043 q 549 1031 478 1043 q 650 997 619 1019 q 691 956 681 975 q 701 910 701 936 l 701 906 q 675 850 701 874 q 604 819 649 826 q 688 780 656 811 q 719 699 719 749 l 719 693 q 381 517 719 517 m 1674 381 l 1674 372 q 1640 306 1674 333 q 1560 269 1607 278 q 1651 232 1615 263 q 1686 157 1686 201 l 1686 147 q 1353 -7 1686 -7 l 1319 -7 q 986 147 986 -7 l 986 157 q 1022 230 986 199 q 1113 269 1057 261 q 1031 306 1064 278 q 999 372 999 333 l 999 381 q 1319 518 999 518 l 1353 518 q 1674 381 1674 518 m 1457 364 l 1457 365 q 1335 403 1457 403 q 1214 365 1214 403 l 1214 364 q 1335 325 1214 325 q 1457 364 1457 325 m 1472 163 l 1472 165 q 1335 207 1472 207 q 1200 165 1200 207 l 1200 163 q 1335 119 1200 119 q 1472 163 1472 119 z "},"⅝":{"ha":1665,"x_min":32,"x_max":1649,"o":"m 1235 1033 l 1474 1033 l 389 0 l 157 0 l 1235 1033 m 397 515 l 333 515 q 169 533 235 515 q 76 581 103 551 q 40 634 49 611 q 32 682 32 657 l 32 686 l 249 686 q 251 679 249 683 q 260 669 253 675 q 278 657 267 663 q 313 648 290 651 q 365 644 336 644 q 476 700 476 644 l 476 704 q 365 758 476 758 q 289 749 318 758 q 254 731 260 739 q 249 718 249 724 l 43 718 l 43 1033 l 651 1033 l 651 907 l 249 907 l 249 828 q 425 871 318 871 l 432 871 q 632 827 576 871 q 688 707 688 783 l 688 703 q 397 515 688 515 m 1636 381 l 1636 372 q 1603 306 1636 333 q 1522 269 1569 278 q 1613 232 1578 263 q 1649 157 1649 201 l 1649 147 q 1315 -7 1649 -7 l 1282 -7 q 949 147 949 -7 l 949 157 q 984 230 949 199 q 1075 269 1019 261 q 994 306 1026 278 q 961 372 961 333 l 961 381 q 1282 518 961 518 l 1315 518 q 1636 381 1636 518 m 1419 364 l 1419 365 q 1297 403 1419 403 q 1176 365 1176 403 l 1176 364 q 1297 325 1176 325 q 1419 364 1419 325 m 1435 163 l 1435 165 q 1297 207 1435 207 q 1163 165 1163 207 l 1163 163 q 1297 119 1163 119 q 1435 163 1435 119 z "},"⅞":{"ha":1565,"x_min":24,"x_max":1549,"o":"m 1135 1033 l 1374 1033 l 289 0 l 57 0 l 1135 1033 m 24 1033 l 689 1033 l 689 910 q 565 765 581 785 q 498 649 513 697 q 483 529 483 600 l 483 522 l 256 522 l 256 575 q 283 679 256 633 q 388 799 311 725 q 482 897 476 886 q 483 903 483 900 l 225 903 l 225 799 l 24 799 l 24 1033 m 1536 381 l 1536 372 q 1503 306 1536 333 q 1422 269 1469 278 q 1513 232 1478 263 q 1549 157 1549 201 l 1549 147 q 1215 -7 1549 -7 l 1182 -7 q 849 147 849 -7 l 849 157 q 884 230 849 199 q 975 269 919 261 q 894 306 926 278 q 861 372 861 333 l 861 381 q 1182 518 861 518 l 1215 518 q 1536 381 1536 518 m 1319 364 l 1319 365 q 1197 403 1319 403 q 1076 365 1076 403 l 1076 364 q 1197 325 1076 325 q 1319 364 1319 325 m 1335 163 l 1335 165 q 1197 207 1335 207 q 1063 165 1063 207 l 1063 163 q 1197 119 1063 119 q 1335 163 1335 119 z "},"−":{"ha":808,"x_min":53,"x_max":756,"o":"m 53 525 l 756 525 l 756 331 l 53 331 l 53 525 z "},"":{"ha":701,"x_min":40,"x_max":638,"o":"m 40 0 l 40 257 l 189 257 q 284 290 254 257 q 314 407 314 322 l 314 1033 l 638 1033 l 638 338 q 332 0 638 0 l 40 0 z "},"":{"ha":1088,"x_min":22,"x_max":1043,"o":"m 725 332 l 725 356 l 429 310 q 342 285 367 300 q 317 240 317 271 l 317 239 q 349 179 317 204 q 453 154 381 154 q 649 208 572 154 q 725 332 725 263 m 733 103 q 615 23 699 60 q 388 -14 532 -14 l 369 -14 q 108 56 193 -14 q 22 231 22 125 l 22 240 q 95 396 22 343 q 336 464 168 449 l 678 496 q 725 535 725 501 q 716 564 725 553 q 661 585 707 575 q 531 596 615 596 l 524 596 q 433 589 471 596 q 376 574 394 582 q 345 552 357 567 q 331 531 333 538 q 328 513 329 525 l 40 513 l 40 515 q 46 580 40 551 q 78 646 51 608 q 149 708 104 683 q 280 751 193 733 q 486 768 367 768 l 563 768 q 776 753 688 768 q 913 715 865 738 q 985 656 960 693 q 1017 590 1011 619 q 1024 515 1024 560 l 1024 253 q 1043 7 1024 96 l 1043 0 l 749 0 q 733 103 733 33 z "},"":{"ha":758,"x_min":65,"x_max":717,"o":"m 375 326 l 375 0 l 65 0 l 65 747 l 372 747 l 372 574 q 717 764 465 764 l 717 465 q 581 483 663 483 q 426 440 478 483 q 375 326 375 397 z "},"ﬀ":{"ha":1246,"x_min":19,"x_max":1215,"o":"m 468 0 l 163 0 l 163 542 l 19 542 l 19 747 l 163 747 l 163 836 q 422 1033 163 1033 l 646 1033 l 646 850 l 526 850 q 480 836 492 850 q 468 789 468 822 l 468 747 l 731 747 l 731 836 q 990 1033 731 1033 l 1215 1033 l 1215 850 l 1094 850 q 1048 836 1060 850 q 1036 789 1036 822 l 1036 747 l 1215 747 l 1215 542 l 1036 542 l 1036 0 l 731 0 l 731 542 l 468 542 l 468 0 z "},"ﬁ":{"ha":1106,"x_min":19,"x_max":1040,"o":"m 643 1033 l 643 850 l 526 850 q 480 836 492 850 q 468 789 468 822 l 468 747 l 643 747 l 643 542 l 468 542 l 468 0 l 163 0 l 163 542 l 19 542 l 19 747 l 163 747 l 163 836 q 422 1033 163 1033 l 643 1033 m 1040 1033 l 1040 819 l 731 819 l 731 1033 l 1040 1033 m 1040 747 l 1040 0 l 731 0 l 731 747 l 1040 747 z "},"ﬂ":{"ha":1106,"x_min":19,"x_max":1040,"o":"m 643 1033 l 643 850 l 526 850 q 480 836 492 850 q 468 789 468 822 l 468 747 l 643 747 l 643 542 l 468 542 l 468 0 l 163 0 l 163 542 l 19 542 l 19 747 l 163 747 l 163 836 q 422 1033 163 1033 l 643 1033 m 1040 1033 l 1040 0 l 731 0 l 731 1033 l 1040 1033 z "}}}
